<?xml version="1.0" encoding="UTF-8"?>
<svg id="Capa_1" data-name="Capa 1" xmlns="http://www.w3.org/2000/svg" xmlns:xlink="http://www.w3.org/1999/xlink" viewBox="0 0 400 400">
  <defs>
    <style>
      .cls-1 {
        fill: url(#Degradado_sin_nombre_4);
      }
    </style>
    <linearGradient id="Degradado_sin_nombre_4" data-name="Degradado sin nombre 4" x1="94.87" y1="261.15" x2="296.27" y2="261.15" gradientUnits="userSpaceOnUse">
      <stop offset=".07" stop-color="#3ee9b2"/>
      <stop offset=".46" stop-color="#39f8cb"/>
      <stop offset="1" stop-color="#00e3fb"/>
    </linearGradient>
  </defs>
  <circle class="cls-1" cx="195.57" cy="261.15" r="100.7"/>
  <g>
    <path d="M254.54,191.56c-.15.27.51,1.97.51,2.81-.02,9.91-4.63,17.32-13.79,21.17-.81.34-3.4.67-3.6.9-.13.15-.61,2.95-1.06,3.97-6.35,14.51-24.28,18.2-35.31,6.53-.54-.57-.7-1.54-.77-1.59-.92-.71-1.37,1.15-2.08,1.87-11.6,11.7-29.86,7.31-35.5-7.92-.28-.75-.46-2.77-.56-2.88-.13-.13-2.65-.45-3.63-.87-7.34-3.14-12.91-9.31-13.7-17.51-.17-1.75.6-6.21.41-6.47-.16-.22-3.05-2.22-3.93-3.25-2.54-2.98-4.36-7.09-4.87-11-.26-1.98.24-4.88-.42-6.45-.28-.66-6.5-6.34-7.65-7.7-13.6-16.2-21.72-42.12-15.2-62.79,8.92-28.31,42.7-40.32,68.05-24.98,7.13,4.31,12.25,11.07,18.37,16.58,6.52-5.21,11.45-12.15,18.75-16.59,32.98-20.05,72.24,5.45,70.35,43.36-1.02,20.37-9.39,35.2-22.56,49.92-.69.77-2.18,1.29-2.58,2.18-.69,1.51-.09,4.18-.34,6.01-.75,5.6-3.31,10.01-7.33,13.85-.44.42-1.5.75-1.55.84ZM254.54,157.54c.28.48,5.19,3.5,5.51,5.36,11.66-11.39,19.52-27.7,20.39-44.14,1.94-36.46-38.48-55.44-65.1-30.19-3.01,2.85-11.7,14.23-15.56,14.02-.98-.05-2.4-1-3.21-1.58-5.16-3.71-10.43-11.33-15.6-15.61-13.05-10.79-31.99-10.97-45.67-1.22-26.61,18.95-15.65,59.32,4.66,78.72.32-1.86,5.22-4.88,5.51-5.36.14-.24-.57-4.11-.5-5.5.48-8.69,6.55-15.83,14.54-18.79.75-.28,2.77-.46,2.88-.56s.29-2.13.56-2.88c5.72-15.45,24.8-19.74,36.02-7.36.38.42.47,1.26.53,1.3.96.74,1.23-.96,1.81-1.59,11.09-12.04,29.2-7.75,35.47,6.89.42.98.73,3.5.87,3.63.1.1,2.13.29,2.88.56,8.02,2.97,14.05,10,14.54,18.79.08,1.39-.64,5.26-.5,5.5ZM187.3,195.71c0,7-3.65,13.93-9.57,17.68-2.17,1.37-4.57,2.05-6.82,3.21,4.99,12.23,21.03,11.39,24.61-1.3l.11-81.11c-3.11-13-19.66-14.16-24.73-1.71,2.25,1.16,4.65,1.84,6.82,3.21,5.91,3.75,9.56,10.68,9.57,17.68h-8.46c-.59-18.12-27.59-15.66-25.35,1.81.17,1.3.99,2.42,1.04,3.76.13,3.65-2.7,3.89-4.8,5.8-5.05,4.61-6.58,10.91-2.55,16.85,1.68,2.49,6.22,4.7,6.92,6.3,1.15,2.63-.33,3.79-.61,5.99-2.24,17.46,24.77,19.82,25.35,1.81h8.46ZM212.7,153.39c0-7,3.65-13.93,9.57-17.68,2.17-1.37,4.57-2.05,6.82-3.21-4.93-12.21-21.21-11.42-24.61,1.29l-.11,81.11c3.11,13,19.66,14.16,24.73,1.71-2.25-1.16-4.65-1.84-6.82-3.21-5.91-3.75-9.56-10.68-9.57-17.68h8.46c.58,18.14,27.58,15.6,25.35-1.81-.17-1.3-.99-2.42-1.04-3.76-.13-3.65,2.7-3.89,4.8-5.8,5.05-4.61,6.58-10.91,2.55-16.85-1.68-2.49-6.22-4.7-6.92-6.3-1.15-2.63.33-3.79.61-5.99,2.23-17.43-24.78-19.89-25.35-1.81h-8.46Z"/>
    <path d="M111.64,209.47c2.02-7.72,10.32-11.63,17.74-8.48,3.12,1.33,8.01,6.88,10.58,9.53,14.58,15.05,30.76,31.87,44.44,47.62,4.13,4.75,6.64,8.52,7.15,15.07,1.37,17.34-1.07,36.46,0,53.99-.33,2.85-1.78,3.73-4.48,3.98-15.97,1.45-34.11-1.16-50.31,0-2.63.03-4.18-1.4-4.48-3.98-.89-7.62,2.09-19.43-2.19-25.85l-35.06-35.3-26.19-48.41.02-75.03c3.46-20.09,32.19-19.14,33.82,1.51,1.37,17.34-1.07,36.44,0,53.97l8.98,11.38ZM140.75,305.49c.63,5.32-.47,11.75,0,17.19h42.32v-50.53c0-1.58-2.36-5.28-3.43-6.62-17.28-17.45-33.1-36.41-50.26-53.96-8.29-8.48-11.22.58-9.69,8.63l28.41,36.17c.12.81-5.69,4.81-6.82,5.47,0-.5-.22-.92-.53-1.31-15.49-19.14-30.35-38.77-45.74-57.99-.79-.85-.76-1.79-.85-2.85-1.66-17.94,1.4-38.31-.1-56.51-2.4-9.51-15.49-8.77-16.8.93l.25,72.24,24.4,44.38c9.88,11.56,23.73,21.81,33.29,33.37,2.42,2.92,5.1,7.6,5.55,11.38Z"/>
    <path d="M288.36,209.47l8.98-11.38c1.17-17.61-1.51-37.12,0-54.5,1.76-20.39,31.37-20.71,33.81-.44l.03,74.5-26.19,48.41-35.06,35.3c-4.28,6.41-1.3,18.22-2.19,25.85-.3,2.58-1.86,4.01-4.48,3.98-16.2-1.16-34.34,1.45-50.31,0-2.71-.25-4.15-1.14-4.48-3.98,1.17-17.62-1.51-37.14,0-54.52.53-6.11,3.31-10.11,7.15-14.54,13.68-15.75,29.86-32.57,44.44-47.62,2.56-2.64,7.46-8.2,10.58-9.53,7.42-3.15,15.72.75,17.74,8.48ZM259.25,322.69v-17.19c0-3.09,3.53-8.94,5.55-11.38,9.57-11.56,23.41-21.81,33.29-33.37l24.4-44.38.25-72.24c-1.31-9.7-14.4-10.44-16.8-.93-1.49,18.21,1.54,38.55-.1,56.51-.1,1.06-.07,2-.84,2.86-15.47,19.15-30.26,38.85-45.75,57.97-.31.38-.53.8-.53,1.3l-6.81-5.48,28.4-36.16c1.53-8.05-1.4-17.11-9.69-8.63-17.16,17.55-32.98,36.51-50.26,53.96-1.08,1.34-3.43,5.04-3.43,6.62v50.53h42.32Z"/>
  </g>
</svg>