<?xml version="1.0" encoding="UTF-8"?>
<svg xmlns="http://www.w3.org/2000/svg" xmlns:xlink="http://www.w3.org/1999/xlink" viewBox="0 0 500 500">
  <defs>
    <style>
      .cls-1 {
        mask: url(#mask);
      }

      .cls-2 {
        filter: url(#luminosity-noclip);
      }

      .cls-3 {
        filter: url(#luminosity-noclip-3);
      }

      .cls-4 {
        fill: url(#radial-gradient);
      }

      .cls-4, .cls-5, .cls-6, .cls-7 {
        mix-blend-mode: multiply;
      }

      .cls-8 {
        fill: url(#linear-gradient-2);
      }

      .cls-9 {
        fill: url(#linear-gradient);
      }

      .cls-10 {
        isolation: isolate;
      }

      .cls-11 {
        mask: url(#mask-2);
      }

      .cls-12 {
        mask: url(#mask-3);
      }

      .cls-13 {
        mask: url(#mask-1);
      }

      .cls-14 {
        fill: url(#Degradado_sin_nombre_103);
      }

      .cls-5 {
        fill: url(#radial-gradient-3);
      }

      .cls-6 {
        fill: url(#radial-gradient-2);
      }

      .cls-7 {
        fill: url(#radial-gradient-4);
      }
    </style>
    <filter id="luminosity-noclip" x="49.4" y="45.53" width="413.67" height="413.67" color-interpolation-filters="sRGB" filterUnits="userSpaceOnUse">
      <feFlood flood-color="#fff" result="bg"/>
      <feBlend in="SourceGraphic" in2="bg"/>
    </filter>
    <filter id="luminosity-noclip-2" x="49.4" y="-8752" width="413.67" height="32766" color-interpolation-filters="sRGB" filterUnits="userSpaceOnUse">
      <feFlood flood-color="#fff" result="bg"/>
      <feBlend in="SourceGraphic" in2="bg"/>
    </filter>
    <mask id="mask-1" x="49.4" y="-8752" width="413.67" height="32766" maskUnits="userSpaceOnUse"/>
    <radialGradient id="radial-gradient" cx="3862.89" cy="-230.87" fx="3862.89" fy="-230.87" r="359.57" gradientTransform="translate(-2230.41 414.87) scale(.65)" gradientUnits="userSpaceOnUse">
      <stop offset=".88" stop-color="#000"/>
      <stop offset=".9" stop-color="#2e2e2e"/>
      <stop offset=".97" stop-color="#c3c3c3"/>
      <stop offset="1" stop-color="#fff"/>
    </radialGradient>
    <mask id="mask" x="49.4" y="45.53" width="413.67" height="413.67" maskUnits="userSpaceOnUse">
      <g class="cls-2">
        <g class="cls-13">
          <path class="cls-4" d="M256.23,45.53c-114.23,0-206.83,92.6-206.83,206.84s92.6,206.84,206.83,206.84,206.84-92.61,206.84-206.84S370.47,45.53,256.23,45.53h0Z"/>
        </g>
      </g>
    </mask>
    <radialGradient id="radial-gradient-2" cx="1427.75" cy="165.61" fx="1427.75" fy="165.61" r="273.77" gradientTransform="translate(-944.19 124.72) scale(.85)" gradientUnits="userSpaceOnUse">
      <stop offset=".88" stop-color="#fff"/>
      <stop offset=".9" stop-color="#d2d8db"/>
      <stop offset=".97" stop-color="#3d5564"/>
      <stop offset="1" stop-color="#022135"/>
    </radialGradient>
    <linearGradient id="linear-gradient" x1="111.6" y1="93.82" x2="385.08" y2="421.31" gradientUnits="userSpaceOnUse">
      <stop offset="0" stop-color="#312a30"/>
      <stop offset="1" stop-color="#756a74"/>
    </linearGradient>
    <radialGradient id="Degradado_sin_nombre_103" data-name="Degradado sin nombre 103" cx="1290.6" cy="39.34" fx="1290.6" fy="39.34" r="383.53" gradientTransform="translate(-944.19 124.72) scale(.85)" gradientUnits="userSpaceOnUse">
      <stop offset="0" stop-color="#27e2f8"/>
      <stop offset=".19" stop-color="#2ae4f2"/>
      <stop offset=".43" stop-color="#35ebe2"/>
      <stop offset=".68" stop-color="#47f6ca"/>
      <stop offset=".77" stop-color="#43eec2"/>
      <stop offset=".9" stop-color="#39daad"/>
      <stop offset="1" stop-color="#30c89a"/>
    </radialGradient>
    <filter id="luminosity-noclip-3" x="41.45" y="45.53" width="413.68" height="413.67" color-interpolation-filters="sRGB" filterUnits="userSpaceOnUse">
      <feFlood flood-color="#fff" result="bg"/>
      <feBlend in="SourceGraphic" in2="bg"/>
    </filter>
    <filter id="luminosity-noclip-4" x="41.45" y="-8752" width="413.68" height="32766" color-interpolation-filters="sRGB" filterUnits="userSpaceOnUse">
      <feFlood flood-color="#fff" result="bg"/>
      <feBlend in="SourceGraphic" in2="bg"/>
    </filter>
    <mask id="mask-3" x="41.45" y="-8752" width="413.68" height="32766" maskUnits="userSpaceOnUse"/>
    <radialGradient id="radial-gradient-3" cx="3830.48" cy="-255.02" fx="3830.48" fy="-255.02" r="313.88" gradientTransform="translate(-2230.41 414.87) scale(.65)" gradientUnits="userSpaceOnUse">
      <stop offset=".84" stop-color="#000"/>
      <stop offset=".85" stop-color="#121212"/>
      <stop offset=".89" stop-color="#414141"/>
      <stop offset=".93" stop-color="#8d8d8d"/>
      <stop offset=".99" stop-color="#f4f4f4"/>
      <stop offset="1" stop-color="#fff"/>
    </radialGradient>
    <mask id="mask-2" x="41.45" y="45.53" width="413.68" height="413.67" maskUnits="userSpaceOnUse">
      <g class="cls-3">
        <g class="cls-12">
          <path class="cls-5" d="M248.29,45.53c-114.23,0-206.84,92.6-206.84,206.84s92.61,206.84,206.84,206.84,206.84-92.61,206.84-206.84S362.52,45.53,248.29,45.53h0Z"/>
        </g>
      </g>
    </mask>
    <radialGradient id="radial-gradient-4" cx="1403.08" cy="147.22" fx="1403.08" fy="147.22" r="238.98" gradientTransform="translate(-944.19 124.72) scale(.85)" gradientUnits="userSpaceOnUse">
      <stop offset=".84" stop-color="#fff"/>
      <stop offset=".85" stop-color="#ecf2f4"/>
      <stop offset=".89" stop-color="#bdd0d9"/>
      <stop offset=".94" stop-color="#719aae"/>
      <stop offset="1" stop-color="#0a5074"/>
      <stop offset="1" stop-color="#074e72"/>
    </radialGradient>
    <linearGradient id="linear-gradient-2" x1="103.27" y1="78.62" x2="393.41" y2="426.08" gradientUnits="userSpaceOnUse">
      <stop offset="0" stop-color="#a0a0a0"/>
      <stop offset="1" stop-color="#fbfbfb"/>
    </linearGradient>
  </defs>
  <g class="cls-10">
    <g id="Capa_1" data-name="Capa 1">
      <g>
        <g class="cls-1">
          <path class="cls-6" d="M256.23,45.53c-114.23,0-206.83,92.6-206.83,206.84s92.6,206.84,206.83,206.84,206.84-92.61,206.84-206.84S370.47,45.53,256.23,45.53h0Z"/>
        </g>
        <path class="cls-9" d="M248.33,44.24c-117.8,0-213.32,95.5-213.32,213.32s95.52,213.33,213.32,213.33,213.35-95.51,213.35-213.33S366.15,44.24,248.33,44.24h0Z"/>
        <path class="cls-14" d="M248.33,44.24c-117.8,0-213.32,95.5-213.32,213.32s95.52,213.33,213.32,213.33,213.35-95.51,213.35-213.33S366.15,44.24,248.33,44.24h0Z"/>
        <g class="cls-11">
          <path class="cls-7" d="M248.29,45.53c-114.23,0-206.84,92.6-206.84,206.84s92.61,206.84,206.84,206.84,206.84-92.61,206.84-206.84S362.52,45.53,248.29,45.53h0Z"/>
        </g>
        <path class="cls-8" d="M248.33,49.87c111.66,0,202.5,90.83,202.5,202.48s-90.84,202.49-202.5,202.49S45.84,364,45.84,252.34,136.68,49.87,248.33,49.87M248.33,26.03C123.35,26.03,22,127.35,22,252.34s101.35,226.33,226.33,226.33,226.35-101.32,226.35-226.33S373.33,26.03,248.33,26.03h0Z"/>
      </g>
      <path d="M265.96,113.66c.43,2.77,2.27,15.61,3.89,16.82.78.59,7.56,2.62,9.35,3.35,2.37.97,4.54,2.44,6.93,3.38l14.64-8.94,23.48,23.51c.43.57.18,1.05.03,1.64-.74,2.98-3.71,7.36-4.74,10.49,18.08-.96,32.41,13.53,33.71,31.19.82,11.08-.33,21.77-7.74,30.41-1.31,1.53-7.76,6.18-6.07,7.97,6.63,1.39,13.36,2.83,19.87,4.71,1.38.4,3.78,1.9,4.69,1.9,2.9,0,11.45-6.83,15.04-7.57,3.16-.65,7.35.21,10.64-.12v66.82l-81.74,40.58c-.88,4.38-.88,7.86-4.19,11.27-3.02,3.1-9.79,4.08-10.08,4.55-.12.19-.32,3.21-.75,4.49-1.67,4.92-7.22,9.03-12.52,8.74-.67,7.48-5.95,13.81-13.85,13.76-.72,11.78-12.59,17.47-22.61,11.26-1.16-.72-4.94-4.47-5.29-4.49-.55-.04-2.64,1.48-3.6,1.78-6.43,1.99-13.84-.7-16.86-6.88-.62-1.26-1.72-5.71-2.04-5.97-.5-.42-3.76-.84-4.98-1.37-4.74-2.07-8.5-7.25-8.15-12.56-7.35-.03-14.11-6.2-13.8-13.81-4.84.4-10.14-3.14-12.26-7.34-.9-1.79-1.22-5.57-1.67-6.34-.71-1.21-11.25-5.9-12.9-7.82-1.54-.24-1.12,2.08-1.59,2.74-.79,1.12-7.98.39-9.82.41-14.62-5.13-29.68-9.41-44.04-15.05v-94.16h15.19l22.22,13.17c1.68-.5,12.38-2.22,12.83-2.69,1.69-1.79-4.76-6.45-6.07-7.97-7.72-9-8.65-20.53-7.71-32.04,1.4-17.1,15.95-30.27,33.12-29.56.18-2.72-5.01-10.23-4.16-12.13l23.48-23.51,14.64,8.94c2.39-.94,4.55-2.41,6.93-3.38,1.79-.73,8.57-2.77,9.35-3.35,1.62-1.21,3.46-14.05,3.89-16.82h35.34ZM261.66,137.85l-3.39-14.57-19.55-.26-3.79,14.83c-4.67.98-9.29,2.4-13.68,4.27-2.03.86-9.97,5.58-10.88,5.65-2.7.23-11.01-8.24-13.59-7.53-2.06.57-10.43,11.19-13.13,12.87-.71.81-.62,1.69-.42,2.66s4.27,10.02,4.85,10.64c1.14,1.21,3.99,2.29,5.5,3.34.83.57,4.09,4.17,5,3.55,21.62-36.66,77.82-36.64,99.42,0,.58.38,4.48-3.34,5.56-4.09,1.55-1.08,4.09-1.63,5.19-3.1.6-.81,4.67-10.54,4.7-11.38.02-.63-.04-1.15-.51-1.62-4.65-4.17-8.63-9.32-13.59-12.98-2.28-.2-10.64,7.84-13.14,7.63-.91-.08-8.85-4.79-10.88-5.65-4.39-1.86-9.01-3.29-13.68-4.27ZM302.95,233.48c.61-3.42-3.56-5.17-5.79-7.71-8.18-9.31-9.51-24.21-7.31-36.04.4-2.15,2.84-7.56,2.52-8.83-.34-1.36-6.32-9.26-7.64-10.63-19.86-20.7-53.44-20.48-73.11.33-1.61,1.71-7.24,9.11-7.77,10.99-.13.47,2.57,7.56,2.88,9.25,2.14,11.77.74,25.66-7.31,34.93-1.29,1.49-7.46,5.93-5.79,7.71,5.44.07,12.99,4.12,18.02,4.25s13.1-4.27,18.39-4.25c.06-.89.21-1.95-.26-2.74-.37-.63-4.91-4.1-6.08-5.52-15.08-18.3-8.77-54.47,16.85-60.48,34.65-8.13,51.63,37.06,32.32,60.48-1.17,1.42-5.71,4.89-6.08,5.52-.47.79-.32,1.85-.26,2.74,5.44.07,12.99,4.12,18.02,4.25s13.1-4.27,18.4-4.25ZM179.81,256.69v9.11c0,.2-1.44,1.05.27.83,1.48-.19,12.89-2.72,13.29-3.28,0-5.96.98-10.31,3.88-15.45.59-1.05,2.19-2.53,2.44-3.09.41-.94-.36-.73-.76-.88-3.64-1.37-10.87-1.87-13.77-3.36-.74-.38-.78-.44-.94-1.27-.23-1.21-.21-12.84.12-13.42,12.91-5.95,14.88-18.26,13.68-31.31-1.72-18.7-23.39-28.62-37.83-15.76-10.67,9.5-10.66,34.01.28,43.37,1.22,1.04,4.32,2.53,4.97,3.31,1.45,1.74.09,12.22.53,15.16-2.75.39-5.73,1.01-8.38,1.85-.58.18-1.67.14-1.54.93l23.74,13.26ZM294.13,276.85c.66-2.15,0-13.8,0-17.12,0-6.37-5.28-11.06-10.8-12.95-7.91-2.7-17.46-3.97-25.62-6.13-.22-4.65.41-9.38-.5-13.96,6.64-4.62,12.87-10.27,13.72-18.88,1.54-15.55-3.29-34.8-22.36-34.95-19.97-.15-24.34,18.11-22.94,34.42.73,8.49,6.33,14.56,13.18,18.85l.07,14.52c-8.16,2.16-17.71,3.43-25.62,6.13-7.06,2.41-10.12,6.61-10.81,14.04.02.52,1.37.33,1.93.28,4.28-.41,9.57-1.7,13.82-1.7,11.97.02,24.71,6.09,36.14,9.19,3.07.83,6.83,1.05,10.2,1.95,5.5,1.47,24.02,7.93,28.21,7.13.5-.1,1.23-.34,1.38-.83ZM302.96,256.97c.59,4.66-.44,10.4,0,15.19l49.7-26.5-22.06-5,.07-14.52c5.7-3.79,10.38-7.82,12.34-14.72,5.22-18.47-4.07-41.9-26.37-37.97-16.6,2.93-19.41,19.62-18.08,33.81.76,8.07,6.41,15.38,13.68,18.62l-.13,14.28-15.22,3.84,4.52,7.9c.19,1.49,1.39,3.81,1.55,5.08ZM116.31,232.39v78.97l19.32,6.08,16.59-65.95-31.65-18.67-4.27-.43ZM380.28,242.33l-85.03,44.47c-9.06,2.32-29.66-8.44-40.14-9.08s-26.4,12.07-36.28,15.5c-3.67,2.6-3.17,9.12.79,11.19,3.35,1.76,5.15.25,8.06-1.24,12.67-6.48,21.47-18.1,36.34-7.26l39.77,35.73,76.49-37.95v-51.36ZM153.85,323.52l17.12-60.51c-.04-1.7-8.78-5.05-10.21-6.86l-16.31,63.79.04.79,9.36,2.78ZM237.8,272.71c-.43-.42-10.14-2.94-11.47-3.17-16.57-2.91-33.49,4.42-49.7,7.16l-12.21,42.56c.33,1.31,11.91,7.48,13.95,8.63,6.9-7.74,14.16-17.45,25.75-11.86,2.79,1.35,5.51,4.29,6.64,7.17.48,1.23.53,3.93,1.2,4.6.59.59,3.24.75,4.51,1.29,3.47,1.49,6.16,3.75,7.62,7.29.53,1.29,1.04,4.65,1.54,5.08.7.61,3.81.94,5.11,1.51,3.42,1.5,6.5,4.79,7.62,8.39.4,1.28.38,4.02.53,4.17.25.25,4.9.65,6.82,1.74,3.02,1.71,3.98,4.52,6.13,6.57s9.17,8.02,11.4,9.03c5.07,2.29,9.86-1.94,6.82-6.82l-24.53-20.79,5.01-6.8c.54-.38,1.89.69,2.42,1.07,7.43,5.29,14.42,13.17,21.86,18.45,7.1,5.04,13.01-1.34,7.96-6.86l-23.23-19.33c-.74-1.45,4.6-5.3,4.74-7.17.48-.36,2.97,1.76,3.57,2.22,7.84,6.06,14.91,13.19,22.96,19.01,6.17,1.89,10.16-4,5.52-8.83-13.16-9.77-24.93-24.3-37.85-33.94-3.9-2.91-7.12-2.84-11.43-.94-9.97,4.4-19.82,16.51-31.75,10.44-8.03-4.08-10.47-15.96-5.37-23.27,4.35-6.24,20.26-10.89,27.14-15.36.42-.27,1.56-.4.71-1.23ZM201.18,324.79c-2.16-1.98-4.82-1.55-7.02.09-1.12.84-8.57,8.26-9.06,9.17-2.6,4.81,2.92,10.11,8.53,5.77,3.38-2.62,12.25-10.73,7.54-15.02ZM209.49,337.46c-1.53.4-9.61,8.37-10.46,9.97-2.72,5.14,2.54,9.82,7.03,7.03.83-.52,9.5-9.43,9.78-10.09,1.75-4.22-1.95-8.06-6.35-6.9ZM224.81,350.84c-1.16.03-2.38.72-3.31,1.39-1.08.77-8.9,8.71-9.24,9.53-1.94,4.71,2.86,8.81,7.52,6.42,1.05-.54,8.65-8.31,9.29-9.48,2.02-3.69-.12-7.97-4.26-7.85ZM238.2,364.49c-2.51.26-11.49,8.73-12.25,10.96-1.35,3.94,1.33,7.64,5.44,7.14,3.1-.37,12.39-9.77,12.4-12.96,0-2.57-2.98-5.4-5.59-5.13ZM251.88,375.43l-6.33,7.94c3.33,4.9,12.99,5.61,11.55-2.12-.48-2.58-3.74-3.84-5.22-5.82Z"/>
    </g>
  </g>
</svg>