<?xml version="1.0" encoding="UTF-8"?>
<svg xmlns="http://www.w3.org/2000/svg" xmlns:xlink="http://www.w3.org/1999/xlink" viewBox="0 0 956.33 400">
  <defs>
    <style>
      .cls-1 {
        fill: #3c3c3b;
      }

      .cls-2 {
        mask: url(#mask);
      }

      .cls-3 {
        fill: #27e2f8;
      }

      .cls-4 {
        filter: url(#luminosity-noclip);
      }

      .cls-5 {
        filter: url(#luminosity-noclip-3);
      }

      .cls-6 {
        fill: url(#radial-gradient);
      }

      .cls-6, .cls-7, .cls-8, .cls-9 {
        mix-blend-mode: multiply;
      }

      .cls-10 {
        fill: url(#linear-gradient-3);
      }

      .cls-11 {
        fill: url(#linear-gradient-2);
      }

      .cls-12 {
        fill: url(#linear-gradient);
      }

      .cls-13 {
        isolation: isolate;
      }

      .cls-14 {
        mask: url(#mask-2);
      }

      .cls-15 {
        mask: url(#mask-3);
      }

      .cls-16 {
        mask: url(#mask-1);
      }

      .cls-17 {
        fill: #fff;
      }

      .cls-18 {
        fill: url(#Degradado_sin_nombre_103);
      }

      .cls-19 {
        fill: url(#Degradado_sin_nombre_31);
      }

      .cls-7 {
        fill: url(#radial-gradient-3);
      }

      .cls-8 {
        fill: url(#radial-gradient-2);
      }

      .cls-9 {
        fill: url(#radial-gradient-4);
      }
    </style>
    <linearGradient id="linear-gradient" x1="31.9" y1="207.47" x2="155.11" y2="207.47" gradientUnits="userSpaceOnUse">
      <stop offset="0" stop-color="#a0a0a0"/>
      <stop offset="1" stop-color="#fbfbfb"/>
    </linearGradient>
    <linearGradient id="Degradado_sin_nombre_31" data-name="Degradado sin nombre 31" x1="79.42" y1="200" x2="924.43" y2="200" gradientUnits="userSpaceOnUse">
      <stop offset=".07" stop-color="#49e7b2"/>
      <stop offset=".46" stop-color="#47f6ca"/>
      <stop offset="1" stop-color="#27e2f8"/>
    </linearGradient>
    <filter id="luminosity-noclip" x="206.09" y="91.6" width="216.82" height="216.83" color-interpolation-filters="sRGB" filterUnits="userSpaceOnUse">
      <feFlood flood-color="#fff" result="bg"/>
      <feBlend in="SourceGraphic" in2="bg"/>
    </filter>
    <filter id="luminosity-noclip-2" x="206.09" y="-8729.82" width="216.82" height="32766" color-interpolation-filters="sRGB" filterUnits="userSpaceOnUse">
      <feFlood flood-color="#fff" result="bg"/>
      <feBlend in="SourceGraphic" in2="bg"/>
    </filter>
    <mask id="mask-1" x="206.09" y="-8729.82" width="216.82" height="32766" maskUnits="userSpaceOnUse"/>
    <radialGradient id="radial-gradient" cx="1221.29" cy="-309.32" fx="1221.29" fy="-309.32" r="188.47" gradientTransform="translate(-468.97 407.04) scale(.65)" gradientUnits="userSpaceOnUse">
      <stop offset=".88" stop-color="#000"/>
      <stop offset=".9" stop-color="#2e2e2e"/>
      <stop offset=".97" stop-color="#c3c3c3"/>
      <stop offset="1" stop-color="#fff"/>
    </radialGradient>
    <mask id="mask" x="206.09" y="91.6" width="216.82" height="216.83" maskUnits="userSpaceOnUse">
      <g class="cls-4">
        <g class="cls-16">
          <path class="cls-6" d="M314.5,91.6c-59.87,0-108.41,48.54-108.41,108.41s48.54,108.41,108.41,108.41,108.41-48.54,108.41-108.41-48.54-108.41-108.41-108.41h0Z"/>
        </g>
      </g>
    </mask>
    <radialGradient id="radial-gradient-2" cx="607.5" cy="100.58" fx="607.5" fy="100.58" r="143.49" gradientTransform="translate(-194.99 121.39) scale(.85)" gradientUnits="userSpaceOnUse">
      <stop offset=".88" stop-color="#fff"/>
      <stop offset=".9" stop-color="#d2d8db"/>
      <stop offset=".97" stop-color="#3d5564"/>
      <stop offset="1" stop-color="#022135"/>
    </radialGradient>
    <linearGradient id="linear-gradient-2" x1="238.69" y1="116.9" x2="382.03" y2="288.56" gradientUnits="userSpaceOnUse">
      <stop offset="0" stop-color="#312a30"/>
      <stop offset="1" stop-color="#756a74"/>
    </linearGradient>
    <radialGradient id="Degradado_sin_nombre_103" data-name="Degradado sin nombre 103" cx="535.61" cy="34.4" fx="535.61" fy="34.4" r="201.03" gradientTransform="translate(-194.99 121.39) scale(.85)" gradientUnits="userSpaceOnUse">
      <stop offset="0" stop-color="#27e2f8"/>
      <stop offset=".19" stop-color="#2ae4f2"/>
      <stop offset=".43" stop-color="#35ebe2"/>
      <stop offset=".68" stop-color="#47f6ca"/>
      <stop offset=".77" stop-color="#43eec2"/>
      <stop offset=".9" stop-color="#39daad"/>
      <stop offset="1" stop-color="#30c89a"/>
    </radialGradient>
    <filter id="luminosity-noclip-3" x="201.92" y="91.6" width="216.83" height="216.83" color-interpolation-filters="sRGB" filterUnits="userSpaceOnUse">
      <feFlood flood-color="#fff" result="bg"/>
      <feBlend in="SourceGraphic" in2="bg"/>
    </filter>
    <filter id="luminosity-noclip-4" x="201.92" y="-8729.82" width="216.83" height="32766" color-interpolation-filters="sRGB" filterUnits="userSpaceOnUse">
      <feFlood flood-color="#fff" result="bg"/>
      <feBlend in="SourceGraphic" in2="bg"/>
    </filter>
    <mask id="mask-3" x="201.92" y="-8729.82" width="216.83" height="32766" maskUnits="userSpaceOnUse"/>
    <radialGradient id="radial-gradient-3" cx="1204.3" cy="-321.98" fx="1204.3" fy="-321.98" r="164.52" gradientTransform="translate(-468.97 407.04) scale(.65)" gradientUnits="userSpaceOnUse">
      <stop offset=".84" stop-color="#000"/>
      <stop offset=".85" stop-color="#121212"/>
      <stop offset=".89" stop-color="#414141"/>
      <stop offset=".93" stop-color="#8d8d8d"/>
      <stop offset=".99" stop-color="#f4f4f4"/>
      <stop offset="1" stop-color="#fff"/>
    </radialGradient>
    <mask id="mask-2" x="201.92" y="91.6" width="216.83" height="216.83" maskUnits="userSpaceOnUse">
      <g class="cls-5">
        <g class="cls-15">
          <path class="cls-7" d="M310.33,91.6c-59.87,0-108.41,48.54-108.41,108.41s48.54,108.41,108.41,108.41,108.42-48.54,108.42-108.41-48.54-108.41-108.42-108.41h0Z"/>
        </g>
      </g>
    </mask>
    <radialGradient id="radial-gradient-4" cx="594.56" cy="90.94" fx="594.56" fy="90.94" r="125.26" gradientTransform="translate(-194.99 121.39) scale(.85)" gradientUnits="userSpaceOnUse">
      <stop offset=".84" stop-color="#fff"/>
      <stop offset=".85" stop-color="#ecf2f4"/>
      <stop offset=".89" stop-color="#bdd0d9"/>
      <stop offset=".94" stop-color="#719aae"/>
      <stop offset="1" stop-color="#0a5074"/>
      <stop offset="1" stop-color="#074e72"/>
    </radialGradient>
    <linearGradient id="linear-gradient-3" x1="234.32" y1="108.94" x2="386.4" y2="291.06" xlink:href="#linear-gradient"/>
  </defs>
  <g class="cls-13">
    <g id="Capa_1" data-name="Capa 1">
      <g>
        <rect class="cls-17" x="310.36" y="105.89" width="125.05" height="125.05" rx="5.99" ry="5.99"/>
        <rect class="cls-12" x="31.9" y="93.87" width="123.21" height="227.2" rx="61.6" ry="61.6"/>
        <g>
          <rect class="cls-17" x="79.42" y="38.64" width="845.01" height="322.71" rx="57.75" ry="57.75"/>
          <path class="cls-19" d="M866.68,57.89c21.23,0,38.5,17.27,38.5,38.5v207.21c0,21.23-17.27,38.5-38.5,38.5H137.17c-21.23,0-38.5-17.27-38.5-38.5V96.39c0-21.23,17.27-38.5,38.5-38.5h729.51M866.68,38.64H137.17c-31.76,0-57.75,25.99-57.75,57.75v207.21c0,31.76,25.99,57.75,57.75,57.75h729.51c31.76,0,57.75-25.99,57.75-57.75V96.39c0-31.76-25.99-57.75-57.75-57.75h0Z"/>
        </g>
        <g>
          <path class="cls-1" d="M458.72,146.94c-3.66-.96-6.63-2.24-8.92-3.84l4.46-10.02c2.15,1.42,4.64,2.56,7.48,3.43,2.83.87,5.63,1.3,8.37,1.3,5.21,0,7.82-1.3,7.82-3.91,0-1.37-.74-2.39-2.23-3.05s-3.88-1.36-7.17-2.1c-3.61-.78-6.63-1.61-9.06-2.5-2.42-.89-4.5-2.32-6.24-4.29-1.74-1.97-2.6-4.62-2.6-7.96,0-2.93.8-5.57,2.4-7.92,1.6-2.35,3.99-4.22,7.17-5.59,3.18-1.37,7.07-2.05,11.69-2.05,3.15,0,6.26.35,9.33,1.06,3.06.71,5.76,1.75,8.09,3.12l-4.18,10.08c-4.57-2.47-9.01-3.7-13.31-3.7-2.7,0-4.66.4-5.9,1.2-1.23.8-1.85,1.84-1.85,3.12s.73,2.24,2.19,2.88c1.47.64,3.82,1.3,7.06,1.99,3.66.78,6.69,1.61,9.09,2.51,2.4.89,4.48,2.31,6.24,4.25,1.76,1.95,2.64,4.59,2.64,7.92,0,2.88-.8,5.49-2.4,7.82-1.6,2.33-4,4.2-7.2,5.59-3.2,1.4-7.09,2.1-11.66,2.1-3.89,0-7.66-.48-11.32-1.44Z"/>
          <path class="cls-1" d="M543.23,99.41v48.01h-11.18l-21.2-25.59v25.59h-13.31v-48.01h11.18l21.19,25.59v-25.59h13.31Z"/>
          <path class="cls-1" d="M585,138.09h-20.3l-3.77,9.33h-13.86l21.19-48.01h13.38l21.27,48.01h-14.13l-3.77-9.33ZM581.02,128.08l-6.17-15.37-6.18,15.37h12.35Z"/>
          <path class="cls-1" d="M640.01,101.57c3.2,1.44,5.67,3.5,7.41,6.17s2.61,5.82,2.61,9.43-.87,6.74-2.61,9.4c-1.74,2.66-4.21,4.7-7.41,6.14-3.2,1.44-6.97,2.16-11.32,2.16h-8.37v12.55h-13.58v-48.01h21.95c4.34,0,8.12.72,11.32,2.16ZM634.18,122.35c1.41-1.21,2.12-2.94,2.12-5.18s-.71-3.98-2.12-5.21c-1.42-1.24-3.52-1.85-6.31-1.85h-7.55v14.06h7.55c2.79,0,4.89-.61,6.31-1.82Z"/>
        </g>
        <g>
          <path class="cls-1" d="M167.02,192.7c1.94,2.23,2.91,4.93,2.91,8.1,0,2.58-.7,4.98-2.1,7.2-1.4,2.21-3.52,3.99-6.38,5.35-2.86,1.35-6.39,2.03-10.6,2.03-3.09,0-6.14-.38-9.16-1.12-3.03-.75-5.64-1.81-7.85-3.19l4.5-9.32c1.71,1.17,3.64,2.07,5.79,2.69s4.26.94,6.35.94,3.82-.39,5.07-1.18c1.25-.79,1.88-1.92,1.88-3.38,0-2.84-2.23-4.26-6.7-4.26h-5.19v-7.82l7.82-8.45h-17.27v-9.57h31.66v7.75l-9.07,9.76c3.63.75,6.41,2.24,8.35,4.47Z"/>
          <path class="cls-1" d="M175.56,213.07c-1.38-1.33-2.06-3.03-2.06-5.07s.68-3.78,2.03-5.07c1.36-1.29,3.05-1.94,5.1-1.94s3.8.64,5.13,1.94,2,2.98,2,5.07-.68,3.73-2.04,5.07-3.05,2-5.1,2-3.69-.67-5.07-2Z"/>
        </g>
        <g>
          <g class="cls-2">
            <path class="cls-8" d="M314.5,91.6c-59.87,0-108.41,48.54-108.41,108.41s48.54,108.41,108.41,108.41,108.41-48.54,108.41-108.41-48.54-108.41-108.41-108.41h0Z"/>
          </g>
          <path class="cls-11" d="M310.35,90.92c-61.74,0-111.81,50.06-111.81,111.81s50.07,111.82,111.81,111.82,111.82-50.06,111.82-111.82-50.07-111.81-111.82-111.81h0Z"/>
          <path class="cls-18" d="M310.35,90.92c-61.74,0-111.81,50.06-111.81,111.81s50.07,111.82,111.81,111.82,111.82-50.06,111.82-111.82-50.07-111.81-111.82-111.81h0Z"/>
          <g class="cls-14">
            <path class="cls-9" d="M310.33,91.6c-59.87,0-108.41,48.54-108.41,108.41s48.54,108.41,108.41,108.41,108.42-48.54,108.42-108.41-48.54-108.41-108.42-108.41h0Z"/>
          </g>
          <path class="cls-10" d="M310.35,93.87c58.53,0,106.14,47.61,106.14,106.13s-47.61,106.13-106.14,106.13-106.13-47.61-106.13-106.13,47.62-106.13,106.13-106.13M310.35,81.37c-65.51,0-118.63,53.11-118.63,118.62s53.12,118.63,118.63,118.63,118.64-53.11,118.64-118.63-53.12-118.62-118.64-118.62h0Z"/>
        </g>
        <g>
          <path class="cls-3" d="M457.74,190.23c-.94-3.46-1.41-7.17-1.41-11.13s.47-7.67,1.41-11.15c.94-3.48,2.27-6.52,4.01-9.12h6.45c-1.82,3.21-3.15,6.46-3.99,9.77-.84,3.31-1.25,6.81-1.25,10.5s.42,7.2,1.25,10.5c.84,3.3,2.17,6.56,3.99,9.77h-6.45c-1.73-2.63-3.07-5.67-4.01-9.14Z"/>
          <path class="cls-3" d="M491.54,190.97l-5.85-8.45h-6.45v8.45h-7.02v-30.32h13.12c2.69,0,5.02.45,7,1.34,1.98.89,3.5,2.17,4.57,3.81s1.6,3.59,1.6,5.85-.54,4.19-1.63,5.82c-1.08,1.63-2.62,2.88-4.61,3.75l6.8,9.75h-7.54ZM489.77,167.73c-1.1-.91-2.7-1.36-4.81-1.36h-5.72v10.57h5.72c2.11,0,3.71-.46,4.81-1.39,1.1-.92,1.65-2.22,1.65-3.9s-.55-3.01-1.65-3.92Z"/>
          <path class="cls-3" d="M527.54,185.34v5.63h-23.48v-30.32h22.91v5.63h-15.94v6.58h14.08v5.46h-14.08v7.02h16.5Z"/>
          <path class="cls-3" d="M540.14,166.28v8.01h14.03v5.63h-14.03v11.04h-7.02v-30.32h22.91v5.63h-15.89Z"/>
          <path class="cls-3" d="M560.8,160.65h7.02v24.6h15.2v5.72h-22.22v-30.32Z"/>
          <path class="cls-3" d="M610.44,185.34v5.63h-23.48v-30.32h22.91v5.63h-15.94v6.58h14.08v5.46h-14.08v7.02h16.5Z"/>
          <path class="cls-3" d="M634.82,190.97l-7.32-10.52-7.19,10.52h-8.06l11.22-15.42-10.66-14.9h7.97l6.97,9.83,6.84-9.83h7.58l-10.57,14.64,11.31,15.68h-8.1Z"/>
          <path class="cls-3" d="M645.7,160.65h7.02v30.32h-7.02v-30.32Z"/>
          <path class="cls-3" d="M666.07,189.45c-2.52-1.35-4.5-3.22-5.93-5.61-1.43-2.38-2.15-5.06-2.15-8.04s.71-5.65,2.15-8.03c1.43-2.38,3.41-4.25,5.93-5.61,2.53-1.36,5.36-2.04,8.51-2.04s5.98.68,8.49,2.04c2.51,1.35,4.49,3.22,5.94,5.61s2.17,5.06,2.17,8.03-.72,5.65-2.17,8.04-3.42,4.25-5.94,5.61c-2.51,1.36-5.34,2.04-8.49,2.04s-5.98-.68-8.51-2.04ZM679.43,184.28c1.44-.82,2.58-1.97,3.4-3.45.82-1.47,1.23-3.14,1.23-5.02s-.41-3.55-1.23-5.02c-.82-1.48-1.96-2.62-3.4-3.45s-3.06-1.24-4.85-1.24-3.41.41-4.85,1.24-2.58,1.97-3.4,3.45c-.83,1.47-1.24,3.14-1.24,5.02s.41,3.55,1.24,5.02c.82,1.48,1.96,2.62,3.4,3.45s3.06,1.24,4.85,1.24,3.41-.41,4.85-1.24ZM676.49,151.95h7.28l-7.84,6.24h-5.29l5.85-6.24Z"/>
          <path class="cls-3" d="M724.27,160.65v30.32h-5.76l-15.12-18.41v18.41h-6.93v-30.32h5.8l15.07,18.41v-18.41h6.93Z"/>
          <path class="cls-3" d="M728.29,199.37c1.82-3.21,3.15-6.46,4.01-9.77.85-3.31,1.28-6.81,1.28-10.5s-.43-7.2-1.28-10.5c-.86-3.3-2.19-6.56-4.01-9.77h6.45c1.76,2.57,3.11,5.59,4.05,9.08.94,3.48,1.41,7.21,1.41,11.2s-.47,7.7-1.39,11.15c-.93,3.45-2.28,6.49-4.07,9.12h-6.45Z"/>
          <path d="M459.86,242.38c-2.18-.66-3.91-1.54-5.17-2.64l1.95-4.38c1.24.98,2.77,1.79,4.57,2.41,1.8.62,3.61.93,5.43.93,2.25,0,3.93-.36,5.05-1.09,1.11-.72,1.67-1.67,1.67-2.86,0-.86-.31-1.58-.93-2.14-.63-.56-1.41-1-2.36-1.32s-2.25-.68-3.9-1.09c-2.31-.55-4.18-1.1-5.61-1.64-1.43-.55-2.66-1.41-3.68-2.58s-1.54-2.75-1.54-4.74c0-1.67.46-3.2,1.36-4.57.91-1.37,2.28-2.46,4.12-3.27,1.83-.81,4.07-1.21,6.73-1.21,1.85,0,3.67.23,5.46.69s3.34,1.13,4.63,1.99l-1.78,4.38c-1.33-.78-2.71-1.37-4.16-1.78-1.44-.4-2.84-.61-4.2-.61-2.22,0-3.87.38-4.96,1.13-1.08.75-1.62,1.74-1.62,2.98,0,.87.31,1.57.93,2.12s1.41.98,2.36,1.3c.95.31,2.25.68,3.9,1.08,2.25.52,4.1,1.06,5.54,1.63,1.44.56,2.68,1.42,3.7,2.58s1.54,2.71,1.54,4.68c0,1.68-.45,3.19-1.36,4.55s-2.29,2.44-4.14,3.25-4.1,1.21-6.76,1.21c-2.34,0-4.6-.33-6.78-1Z"/>
          <path d="M500.62,222c1.8,1.63,2.71,4.09,2.71,7.38v13.56h-5.11v-2.82c-.67,1.01-1.61,1.78-2.84,2.32s-2.71.8-4.44.8-3.25-.3-4.54-.89c-1.3-.59-2.3-1.41-3.01-2.47-.7-1.05-1.06-2.24-1.06-3.57,0-2.08.77-3.75,2.32-5,1.54-1.26,3.98-1.88,7.29-1.88h5.98v-.35c0-1.62-.48-2.86-1.45-3.73-.97-.86-2.41-1.3-4.31-1.3-1.3,0-2.58.2-3.84.61s-2.32.97-3.18,1.69l-2.12-3.94c1.21-.93,2.67-1.63,4.38-2.12,1.7-.49,3.51-.74,5.41-.74,3.41,0,6.01.82,7.82,2.45ZM495.68,238.38c1.05-.62,1.8-1.51,2.23-2.66v-2.68h-5.59c-3.12,0-4.68,1.02-4.68,3.07,0,.98.39,1.76,1.17,2.34s1.86.86,3.25.86,2.56-.31,3.62-.93Z"/>
          <path d="M529.12,221.03c1.78.98,3.17,2.37,4.18,4.15,1.01,1.79,1.51,3.86,1.51,6.19s-.5,4.41-1.51,6.22c-1.02,1.8-2.41,3.2-4.18,4.18s-3.79,1.48-6.04,1.48c-1.59,0-3.04-.28-4.36-.83-1.31-.55-2.42-1.37-3.31-2.47v2.99h-5.15v-32.14h5.41v11.82c.92-1.01,2.01-1.78,3.27-2.3,1.25-.52,2.63-.78,4.14-.78,2.25,0,4.26.49,6.04,1.48ZM527.39,236.62c1.28-1.33,1.93-3.07,1.93-5.24s-.64-3.91-1.93-5.24c-1.29-1.33-2.92-1.99-4.92-1.99-1.3,0-2.47.3-3.51.89s-1.86,1.44-2.47,2.53c-.61,1.1-.91,2.37-.91,3.81s.31,2.72.91,3.81c.61,1.1,1.43,1.95,2.47,2.53,1.04.59,2.21.89,3.51.89,1.99,0,3.63-.66,4.92-1.99Z"/>
          <path d="M561.63,233.11h-18.15c.32,1.71,1.15,3.05,2.49,4.05s3.01,1.49,5.01,1.49c2.54,0,4.63-.84,6.28-2.51l2.9,3.34c-1.04,1.24-2.35,2.18-3.94,2.82s-3.38.95-5.37.95c-2.54,0-4.78-.51-6.72-1.52-1.93-1.01-3.43-2.42-4.48-4.23-1.06-1.8-1.58-3.84-1.58-6.13s.51-4.28,1.54-6.09c1.02-1.8,2.45-3.21,4.27-4.22s3.87-1.52,6.15-1.52,4.27.5,6.04,1.49c1.78,1,3.16,2.4,4.16,4.2s1.49,3.89,1.49,6.26c0,.38-.03.91-.08,1.6ZM545.62,225.43c-1.2,1.02-1.93,2.39-2.19,4.09h13.12c-.23-1.67-.94-3.03-2.12-4.07s-2.66-1.56-4.42-1.56-3.2.51-4.4,1.54Z"/>
          <path d="M580.29,219.56v5.16c-.46-.08-.88-.13-1.25-.13-2.11,0-3.76.62-4.93,1.84-1.18,1.23-1.78,3-1.78,5.31v11.22h-5.41v-23.13h5.15v3.38c1.56-2.43,4.31-3.64,8.23-3.64Z"/>
          <path d="M470.62,293.67c-.63.52-1.41.91-2.32,1.17-.91.26-1.87.39-2.88.39-2.54,0-4.5-.67-5.89-1.99-1.39-1.33-2.08-3.27-2.08-5.8v-11.13h-3.81v-4.33h3.81v-5.29h5.41v5.29h6.19v4.33h-6.19v11c0,1.13.28,1.98.82,2.58.55.59,1.34.89,2.38.89,1.21,0,2.22-.31,3.03-.95l1.52,3.85Z"/>
          <path d="M488.47,271.53v5.16c-.46-.08-.88-.13-1.25-.13-2.11,0-3.76.62-4.93,1.84-1.18,1.23-1.78,3-1.78,5.31v11.22h-5.41v-23.13h5.15v3.38c1.56-2.43,4.31-3.64,8.23-3.64Z"/>
          <path d="M509.58,273.98c1.8,1.63,2.71,4.09,2.71,7.38v13.56h-5.11v-2.82c-.67,1.01-1.61,1.78-2.84,2.32s-2.71.8-4.44.8-3.25-.3-4.54-.89c-1.3-.59-2.3-1.41-3.01-2.47-.7-1.05-1.06-2.24-1.06-3.57,0-2.08.77-3.75,2.32-5,1.54-1.26,3.98-1.88,7.29-1.88h5.98v-.35c0-1.62-.48-2.86-1.45-3.73-.97-.86-2.41-1.3-4.31-1.3-1.3,0-2.58.2-3.84.61s-2.32.97-3.18,1.69l-2.12-3.94c1.21-.93,2.67-1.63,4.38-2.12,1.7-.49,3.51-.74,5.41-.74,3.41,0,6.01.82,7.82,2.45ZM504.65,290.35c1.05-.62,1.8-1.51,2.23-2.66v-2.68h-5.59c-3.12,0-4.68,1.02-4.68,3.07,0,.98.39,1.76,1.17,2.34s1.86.86,3.25.86,2.56-.31,3.62-.93Z"/>
          <path d="M539.36,274.09c1.76,1.71,2.64,4.23,2.64,7.58v13.25h-5.41v-12.56c0-2.02-.47-3.54-1.43-4.57s-2.31-1.54-4.07-1.54c-1.99,0-3.57.6-4.72,1.8-1.15,1.2-1.73,2.92-1.73,5.18v11.69h-5.41v-23.13h5.15v2.99c.9-1.07,2.02-1.88,3.38-2.43,1.36-.55,2.89-.82,4.59-.82,2.92,0,5.25.86,7.02,2.56Z"/>
          <path d="M550.54,294.49c-1.79-.49-3.22-1.11-4.29-1.86l2.08-4.12c1.04.69,2.29,1.25,3.75,1.67s2.9.63,4.31.63c3.23,0,4.85-.85,4.85-2.55,0-.81-.41-1.37-1.23-1.69-.82-.31-2.15-.62-3.97-.91-1.9-.29-3.45-.62-4.65-1s-2.24-1.03-3.12-1.97c-.88-.94-1.32-2.24-1.32-3.92,0-2.19.92-3.95,2.75-5.26,1.83-1.32,4.31-1.97,7.43-1.97,1.59,0,3.18.18,4.77.55,1.58.36,2.89.84,3.9,1.45l-2.08,4.12c-1.96-1.16-4.17-1.73-6.63-1.73-1.59,0-2.8.24-3.62.71-.82.48-1.24,1.1-1.24,1.88,0,.86.44,1.48,1.32,1.84.88.36,2.25.7,4.09,1.02,1.85.29,3.37.63,4.55,1,1.18.38,2.2,1.01,3.05,1.91.85.89,1.28,2.17,1.28,3.81,0,2.17-.94,3.9-2.82,5.2-1.88,1.3-4.44,1.95-7.67,1.95-1.88,0-3.71-.25-5.5-.74Z"/>
          <path d="M577.18,270.58v1.39h6.36v4.33h-6.19v18.63h-5.41v-18.63h-3.81v-4.33h3.81v-1.48c0-2.48.72-4.44,2.17-5.87,1.44-1.43,3.48-2.14,6.11-2.14,2.08,0,3.71.42,4.89,1.25l-1.52,4.07c-.92-.63-1.92-.95-2.98-.95-2.28,0-3.42,1.24-3.42,3.73Z"/>
          <path d="M590.91,293.71c-1.88-1.01-3.34-2.42-4.39-4.23-1.06-1.8-1.58-3.84-1.58-6.13s.53-4.31,1.58-6.11c1.05-1.79,2.52-3.19,4.39-4.2s3.99-1.52,6.33-1.52,4.49.51,6.36,1.52c1.88,1.01,3.34,2.41,4.4,4.2,1.05,1.79,1.58,3.83,1.58,6.11s-.53,4.32-1.58,6.13c-1.06,1.8-2.52,3.21-4.4,4.23-1.88,1.01-4,1.52-6.36,1.52s-4.45-.51-6.33-1.52ZM602.17,288.6c1.3-1.33,1.95-3.07,1.95-5.24s-.65-3.91-1.95-5.24c-1.3-1.33-2.95-1.99-4.93-1.99s-3.63.67-4.92,1.99c-1.29,1.33-1.93,3.08-1.93,5.24s.64,3.91,1.93,5.24c1.28,1.33,2.92,1.99,4.92,1.99s3.64-.66,4.93-1.99Z"/>
          <path d="M628.15,271.53v5.16c-.46-.08-.88-.13-1.25-.13-2.11,0-3.76.62-4.93,1.84-1.18,1.23-1.78,3-1.78,5.31v11.22h-5.41v-23.13h5.15v3.38c1.56-2.43,4.31-3.64,8.23-3.64Z"/>
          <path d="M668.87,274.06c1.7,1.69,2.56,4.23,2.56,7.6v13.25h-5.41v-12.56c0-2.02-.45-3.54-1.34-4.57-.9-1.02-2.18-1.54-3.85-1.54-1.82,0-3.28.6-4.38,1.8-1.1,1.2-1.64,2.91-1.64,5.13v11.74h-5.41v-12.56c0-2.02-.45-3.54-1.34-4.57-.9-1.02-2.18-1.54-3.85-1.54-1.85,0-3.31.59-4.4,1.78-1.08,1.18-1.62,2.9-1.62,5.15v11.74h-5.41v-23.13h5.15v2.94c.87-1.04,1.95-1.83,3.25-2.38,1.3-.55,2.74-.82,4.33-.82,1.73,0,3.27.32,4.62.98,1.34.65,2.4,1.61,3.18,2.88.95-1.21,2.18-2.16,3.68-2.84,1.5-.68,3.16-1.02,4.98-1.02,2.92,0,5.23.85,6.93,2.53Z"/>
          <path d="M695.01,273.98c1.8,1.63,2.71,4.09,2.71,7.38v13.56h-5.11v-2.82c-.67,1.01-1.61,1.78-2.84,2.32s-2.71.8-4.44.8-3.25-.3-4.54-.89c-1.3-.59-2.3-1.41-3.01-2.47-.7-1.05-1.06-2.24-1.06-3.57,0-2.08.77-3.75,2.32-5,1.54-1.26,3.98-1.88,7.29-1.88h5.98v-.35c0-1.62-.48-2.86-1.45-3.73-.97-.86-2.41-1.3-4.31-1.3-1.3,0-2.58.2-3.84.61s-2.32.97-3.18,1.69l-2.12-3.94c1.21-.93,2.67-1.63,4.38-2.12,1.7-.49,3.51-.74,5.41-.74,3.41,0,6.01.82,7.82,2.45ZM690.07,290.35c1.05-.62,1.8-1.51,2.23-2.66v-2.68h-5.59c-3.12,0-4.68,1.02-4.68,3.07,0,.98.39,1.76,1.17,2.34s1.86.86,3.25.86,2.56-.31,3.62-.93Z"/>
          <path d="M718.03,271.53v5.16c-.46-.08-.88-.13-1.25-.13-2.11,0-3.76.62-4.93,1.84-1.18,1.23-1.78,3-1.78,5.31v11.22h-5.41v-23.13h5.15v3.38c1.56-2.43,4.31-3.64,8.23-3.64Z"/>
          <path d="M724.36,294.49c-1.79-.49-3.22-1.11-4.29-1.86l2.08-4.12c1.04.69,2.29,1.25,3.75,1.67s2.9.63,4.31.63c3.23,0,4.85-.85,4.85-2.55,0-.81-.41-1.37-1.23-1.69-.82-.31-2.15-.62-3.97-.91-1.9-.29-3.45-.62-4.65-1s-2.24-1.03-3.12-1.97c-.88-.94-1.32-2.24-1.32-3.92,0-2.19.92-3.95,2.75-5.26,1.83-1.32,4.31-1.97,7.43-1.97,1.59,0,3.18.18,4.77.55,1.58.36,2.89.84,3.9,1.45l-2.08,4.12c-1.96-1.16-4.17-1.73-6.63-1.73-1.59,0-2.8.24-3.62.71-.82.48-1.24,1.1-1.24,1.88,0,.86.44,1.48,1.32,1.84.88.36,2.25.7,4.09,1.02,1.85.29,3.37.63,4.55,1,1.18.38,2.2,1.01,3.05,1.91.85.89,1.28,2.17,1.28,3.81,0,2.17-.94,3.9-2.82,5.2-1.88,1.3-4.44,1.95-7.67,1.95-1.88,0-3.71-.25-5.5-.74Z"/>
          <path d="M766.67,285.09h-18.15c.32,1.71,1.15,3.05,2.49,4.05s3.01,1.49,5.01,1.49c2.54,0,4.63-.84,6.28-2.51l2.9,3.34c-1.04,1.24-2.35,2.18-3.94,2.82s-3.38.95-5.37.95c-2.54,0-4.78-.51-6.72-1.52-1.93-1.01-3.43-2.42-4.48-4.23-1.06-1.8-1.58-3.84-1.58-6.13s.51-4.28,1.54-6.09c1.02-1.8,2.45-3.21,4.27-4.22s3.87-1.52,6.15-1.52,4.27.5,6.04,1.49c1.78,1,3.16,2.4,4.16,4.2s1.49,3.89,1.49,6.26c0,.38-.03.91-.08,1.6ZM750.66,277.4c-1.2,1.02-1.93,2.39-2.19,4.09h13.12c-.23-1.67-.94-3.03-2.12-4.07s-2.66-1.56-4.42-1.56-3.2.51-4.4,1.54Z"/>
          <path d="M771.18,294.21c-.7-.68-1.04-1.54-1.04-2.58s.34-1.94,1.02-2.6c.68-.67,1.52-1,2.53-1s1.86.33,2.53,1c.68.66,1.02,1.53,1.02,2.6s-.35,1.9-1.04,2.58c-.7.68-1.53,1.02-2.51,1.02s-1.82-.34-2.51-1.02Z"/>
        </g>
        <path d="M232,208.16v-18.86c.8-.9,1.5-2.11,2.88-2.14l27.33-.04c2.17-3.67,4.35-7.2,7.66-9.98,12.27-10.31,28-7.73,39.84,1.72,8.42-6.23,18.08-10.13,28.69-7.6,6.58,1.56,12.8,5.79,16.6,11.38.62.92,2.11,4.26,2.82,4.48l26.72.04c1.38-.11,2.96,1.32,3.16,2.62-.36,5.57.54,11.85.03,17.34-.15,1.62-1.04,2.72-2.62,3.16l-27.3.08c-.71.21-2.2,3.56-2.82,4.48-11.49,16.88-32.16,13.14-48.34,6.13-11.12,7.15-24.38,8.67-35.41.41-4.01-3-6.62-6.71-9.05-11.03l-27.33-.04c-1.38-.03-2.08-1.23-2.88-2.14ZM298.61,217.29c-3.89-1.73-7.75-3.64-11.46-5.73-3.95-2.23-8.23-4.1-9.84-8.71-1.95-5.58.27-11.8,5.59-14.51,5.77-2.94,11.06-.19,15.87,3.09,1.84-2.69,3.64-5.41,5.93-7.75-7.93-6.26-18.07-8.84-27.27-3.55-19.1,10.98-10.74,40.61,11.3,40.21.82-.02,10.68-2.01,9.9-3.04ZM349.72,187.17c-4.37-7.32-13.29-11.08-21.67-9.66-9.09,1.55-18.89,9.17-23.04,17.26l8.67,3.89c3.19-4.07,6.91-8,11.8-10.02.84-.35,3.92-1.47,4.62-1.47h19.62ZM260.29,193.86h-21.6v9.73h21.6c-.44-3.23-.44-6.52,0-9.73ZM349.72,210.29h-21.44c-6.06,0-20.86-6.91-26.68-9.82-3.4-1.7-8.18-5.03-11.42-6.22-4.8-1.77-8.7,3.36-5.85,7.37,1.05,1.49,7.43,4.72,9.42,5.78,10.53,5.63,29.27,14.35,41.18,12.58,6.05-.9,11.66-4.43,14.79-9.69ZM381.05,193.86h-49.73c-.64,0-2.92.89-3.65,1.21-2.71,1.21-5.37,3.58-7.14,5.94l3.04,1.21c1.72.23,4.29,1.37,5.93,1.37h51.56v-9.73Z"/>
      </g>
    </g>
  </g>
</svg>