<?xml version="1.0" encoding="UTF-8"?>
<svg id="Capa_1" data-name="Capa 1" xmlns="http://www.w3.org/2000/svg" viewBox="0 0 1171.61 212.36">
  <path d="M371.93,42.62l20.01.27c17.45,1.02,35.17,1.36,52.5,4.12,2.4.38,9.94,1.51,11.52,2.87,2.29,1.98,1.66,6.06-1.21,7.1-2.05.74-5.25-.66-7.46-1.08-9.6-1.8-19.93-2.71-29.69-3.42-16.63-1.21-33.35-1.65-50.03-1.56l-34.07,44.58c-.1.54.24.33.59.36,6.11.45,12.78-.26,18.97,0,2.17.09,6.56.29,8.53.83,3.5.96,4.19,6.04.96,7.7-2.04,1.04-3.18.26-5.18.11-10.28-.79-20.57-.52-30.83.12-8.08,10.97-16.66,21.58-24.81,32.5-.22.29-1.55,1.93-1.34,2.13,2.38-.47,4.89-.17,7.33-.23.57-.01,1.09-.25,1.66-.26,19.35-.37,38.67.3,57.96,1.45-.06-4.52,2.25-8.63,4.56-12.35,1.99-3.22,4.63-6.12,6.58-9.25.19-.3.47-.53.38-.93-4.08,2.37-9.76,7.53-14.76,6.95-4.3-.49-5.26-6.44-4.62-9.89,2.23-11.92,16.67-21.16,28.38-20.81,2.4.07,3.93,1.02,5.75,2.42.32,0,1.91-1.51,2.51-1.82,3.45-1.76,6.26,1.06,5.11,4.63-7.29,9.25-14.09,18.93-20.75,28.65-.42.62-4.31,6.38-4.03,6.64,4.99-1.11,8.22-.73,11.75,3,.35.37.54.98.86,1.3.99.96,9.49,3.52,11.44,4.16,2.45.8,6.95,1.66,8.99,2.76,3.65,1.98,1.99,8.12-2.69,7.72-2.32-.2-6.05-1.45-8.68-1.88-12.62-2.1-25.58-2.75-38.35-3.4-19.02-.97-38.03-1.38-57.1-.71-2.62.09-5.87-.13-8.42.22-.33.05-.63.04-.84.36l-8.17,10.77c-3.6,3.11-8.55-.6-6.66-4.97.28-.66,4.06-4.99,3.8-5.19-2.1.27-4.22.46-6.32.75-3.3.45-8.63,2.51-9.46-2.61-.65-4.04,2.87-4.73,5.89-5.27,4.75-.84,9.54-1,14.33-1.51.57-.06,2.33-.23,2.64-.48l25.8-33.92c.06-.47,0-.33-.36-.36-.54-.06-2.64.18-3.35.25-1.9.17-4.8.97-6.48.96-3.38-.03-5.17-3.94-3.34-6.69.91-1.36,2.15-1.59,3.65-1.86,5.2-.95,10.97-.92,16.26-1.26l.73-.23,34.41-44.96c.1-.54-.24-.33-.59-.36-2.65-.19-5.3.17-7.91.25-10.67.32-21.37.81-31.89,2.85-4.75-.53-5.35-7-.68-8.3,2.16-.6,5.35-.95,7.64-1.24,13.1-1.68,26.6-1.79,39.8-1.95.66-.13,1.32-1.72,2.05-2.27,2.46-1.84,5.94-.73,6.74,2.22ZM387.01,101.15c-6.39.06-12.53,3.11-16.68,7.91-1.9,2.2-3.83,5.17-3.95,8.15,7.36-4.12,13.78-9.66,20.32-14.94l.32-1.12Z"/>
  <path d="M697.51,104.5h3.96c5.52-6.51,12.74-12.31,21.83-11.5,5.2.46,7.48,4.67,6.19,9.54-2.17,8.23-17.29,16.81-24.54,9.88-3.71,7.88,3.89,8.25,9.54,6.78,10.02-2.6,19.12-10.91,24.24-19.65.92-1.57,2.43-5.28,3.4-6.36,2.68-2.97,7.53.06,6.01,3.89,2.96-1.92,10.59-5.67,13.44-2.28,1.68,2,.83,3.98-.29,5.95s-5.97,7.75-5.67,9.57c.1.59.64,1.15.69,1.99.21,3.93-4.72,5.15-6.93,1.87-1.38-2.05-1.2-4.41-.53-6.68.26-.88.99-1.92,1.2-2.63.1-.33-.03-.43-.35-.35-5.62,4.43-10.78,9.35-15.47,14.75-1.45,1.67-4.71,6.75-6.62,7.05-2.6.41-3.6-.65-4.54-2.85-10.02,5.94-28.7,5.51-25.8-10.55h-6.12l-39.48,51.65c-3.48,3.9-9.32.36-7-4.59,10.3-13.8,20.99-27.32,31.34-41.08,1.2-1.59,2.61-3.3,3.69-4.94.22-.33.59-.59.53-1.03h-16.92c-.87,1.53-8.96,10.66-8.95,11.39,0,.08.81.9.97,1.38.53,1.6.21,3.36-.86,4.65-3.41,1.56-7.57,5.72-10.86,7.01-4.9,1.92-7.82-3.99-4.27-7.38l12.94-16.57-.28-.45c-9.35,0-18.7-.09-28.05-.04-24.18.13-48.54.61-72.71.02-3.57-1.37-3.41-6.84.28-7.9,5.26-1.51,12.3-1.21,17.74-2.67,1.71.03,2.87.85,3.71,2.28l85.73.07,1.12-1.04,29.88-38.47c3.68-3.65,8.77.29,6.89,4.73l-26.45,33.98-.23.85h16.92l34.46-45.17c.23-.54-.39-1.22-.49-1.95-.53-3.8,2.95-4.74,5.47-6.72,1.34-1.05,4.75-4.35,6.07-4.73,4.06-1.17,6.99,2.55,5.01,6.2l-39.84,52.13ZM720.49,100.01c-4.19.45-8.43,3.53-11.22,6.52.41.3.91,1.13,1.36,1.27,3.22.95,9.71-3.06,11.4-5.78,1.28-2.07.64-2.25-1.54-2.02Z"/>
  <path d="M894.99,118.52c-.72,6.06-9.59,16.65-14.8,19.73-10.06,5.95-14.64-4.3-10.87-12.66-7.53,2.61-14.32.51-10.56-8.63l-5.92,4.27c-4.11,2.8-12.44,8.61-15.44,1.37-2.1-5.07,1.17-11.67,4.13-15.78,5.89-8.18,16.54-14.7,26.95-13.59,1.63.18,3.26,1.56,3.72,3.12.93-.55,1.72-1.52,2.71-1.96,3.44-1.51,6.62,1.84,4.64,5.11-3.86,4.42-7.64,8.94-10.81,13.89-.89,1.39-2.77,4.19-3.26,5.62-.21.62,1.1-.04,1.32-.12,4.66-1.77,9.61-6.03,12.82-9.69-2.4-1.48-2.73-5.2.03-6.47,1.91-.88,3.51-.07,5.45.05,2.77-3.96,5.57-7.93,8.49-11.78,1.07-1.41,4.53-6.36,5.64-7.07,3.08-1.99,6.56,1.13,5.23,4.51-4.1,5.6-8.54,10.97-12.35,16.78,3.15.81,6.36,2.1,9.7,1.66,4.25-.56,7.4-7.23,9.78-10.6,1.28-1.81,2.66-3.58,4.03-5.32.07-.52-.05-.29-.36-.35-2.1-.38-3.81-1.13-3.73-3.71.15-4.85,6.92-2.58,9.85-3.61,1.75-1.8,3.95-6.16,6.61-6.36s4.1,1.87,3.7,4.43c-.13.85-.8,1.27-.94,2.05,3.11-.36,5.25,2.14,4.05,5.13-.31.79-1.24,1.6-2.07,1.77-2.07.42-5.41.02-7.62.3-.4.03-.59.34-.85.58-2,1.87-5.41,7.17-7.15,9.64-3.05,4.35-6.68,9.5-9.05,14.21-.31.62-2.06,4.37-2.03,4.68.01.17.31.3.53.31,4.35.06,10.7-6.46,13.5-9.53,1.82-2,3.96-5.47,5.72-7.11,3.13-2.91,8.06.6,5.3,4.93-4.17,6.56-15.2,18.02-23.26,18.71s-10.22-3.37-8.1-10.49c.14-.49,1.03-2.2,1.02-2.33-.03-.55-1.81-.3-2.27-.36-1.24-.15-2.47-.51-3.72-.47-.12.09.24.31.24.36,0,1.47.17,3.4,0,4.79ZM865.47,100.2c-.18-.17-2.44.25-2.88.34-8.36,1.66-16.76,9.55-18.71,17.87,7.87-4.42,14.55-10.61,21.61-16.16.36-.2.05-1.97-.03-2.04ZM887.07,112.65c-.13-.1-.69.58-.82.74-2.63,3.24-8.23,10.68-10.02,14.2-.32.63-2.03,5.12-.8,5.19,1.39.08,6.86-5.91,7.9-7.21,2.84-3.58,6.38-8.28,3.74-12.92Z"/>
  <path d="M397.33,119.12c3.96-.89,7.54-3.74,10.67-6.24,4.27-3.4,8.84-7.66,12.61-11.61,2.06-2.16,4.43-5.61,6.46-7.45,2.91-2.64,7.33.24,5.87,3.95-5.21,6.97-11.94,13.15-15.22,21.35.49.04.97,0,1.45-.1,6.53-1.46,18.2-18.94,23.38-24.11,3.19-3.19,7.27-.57,6.26,3.61-5.09,6.88-11.91,13.06-14.77,21.32,5.56.46,11.23-5.04,14.63-8.99,4.16-4.83,7.56-11.23,11.67-15.91,2.33-2.66,6.38-1.8,7.18,1.66,3.17-1.61,4.19-4.28,8.24-3.44,4.97,1.02,6.25,6.06,5.49,10.45-1.9,11.09-17.95,30.02-29.82,19.6-.35-.3-.98-1.47-1.31-1.2-.09.07-.99,1.65-1.25,1.99-4.65,6.23-9.31,12.44-13.91,18.7-3.33,3.23-8.53-.51-6.4-4.72l8.12-10.94c-3.6.09-8.26-.47-9.36-4.56-4.97,4.38-15.58,6.34-16.8-2.4l-5.51,3.48c-5.27,3.84-15.7,3.97-14.88-4.8.58-6.15,12.13-16.51,16.31-21.58.78-.95,1.7-2.79,2.52-3.47,2.81-2.32,6.64.22,5.77,3.61-.47,1.83-4.58,6.52-6,8.15-3.88,4.43-8.62,8.38-11.4,13.66ZM473.39,102.59c-.22-.21-3.06,2.09-3.47,2.4-3.66,2.83-9.54,7.2-12.62,10.41-2.22,2.31,1.17,3.02,3.14,2.66,3.24-.6,7.73-5.76,9.54-8.45,1.46-2.17,2.58-4.54,3.4-7.02Z"/>
  <path d="M827.81,97.07c2.98-1.91,10.35-5.58,13.33-2.41,3.21,3.41-2.02,8.37-3.83,11.3-.46.75-1.9,3.06-2.02,3.76-.14.85.7,1.74.7,2.82,0,3.82-4.81,4.8-6.94,1.64-1.38-2.05-1.2-4.41-.53-6.68.26-.88.99-1.92,1.2-2.63.1-.33-.03-.43-.35-.35-5.61,4.43-10.78,9.35-15.47,14.75-1.31,1.51-4.69,6.55-6.24,6.95-2.78.73-4.37-.62-4.92-3.24-6.4,3.34-16.42,6.21-22.99,2.11-1.36-.85-2.36-1.8-2.94-3.32-4.9,3.44-10.2,6.62-16.43,4.68-9.02-2.8-2.27-13.91,1-18.65,2.6-3.75,6.99-9.72,10.15-12.87s7.27-.58,6.26,3.61c-5.09,6.88-11.91,13.06-14.77,21.32,3.35.44,6.23-1.41,8.75-3.36,8.83-6.86,12.44-17.91,23.58-22.22,3.11-1.2,10.16-2.51,12.26.82,2.52,4.01-2.55,7.04-4.32,10.23-.96,1.72-1.16,4.4-2.48,5.43-1.82,1.42-5.09.8-5.58-1.61-.56-2.76.85-5.31,1.86-7.73-.38-.38-5.09,3.35-5.63,3.84-2.57,2.34-7.85,9.24-8.23,12.64-.15,1.32.65,1.54,1.85,1.86,6.61,1.79,17.8-4.21,23.02-8.18,4.85-3.69,7.33-6.95,10.38-12.16.91-1.55,2.34-5.14,3.31-6.21,2.68-2.97,7.53.05,6.01,3.89Z"/>
  <path d="M506.51,113.61c3.71-1.47,6.97-4.09,9.85-6.82,2.05-1.94,3.57-5.47,7.12-3.29,3.01,1.85,1.15,4.83-.53,6.76-4.47,5.15-13.12,11.2-20.16,11.28-.81,0-1.48-.28-2.16-.28-1.1,0-4.74,3.06-6.28,3.81-11.03,5.4-18.5-1.7-14.82-13.13,1.6-4.98,7.17-12.55,11.79-15.06,1.76-.96,2.33-.29,3.44-.62,1.04-.31,2.57-1.84,4.4-2.34,9.75-2.63,12.28,7.2,9.7,14.72-.59,1.73-1.66,3.28-2.34,4.97ZM501.17,100.72c-1.44.2-3.54,2.5-4.14,3.79-1.27,2.74-1.14,6.01,1.2,8.14,1.98-2.13,3.65-5.05,4.32-7.9.34-1.43.95-4.35-1.38-4.03ZM489.23,109.06c-1.97,1.87-4.34,7.21-3.49,9.84.75,2.31,5.92-.21,7.09-1.34-1.87-2.58-3.38-5.23-3.6-8.5Z"/>
  <path d="M452.7,82.75c1.39-.22,2.85.33,3.66,1.5,2.29,3.33-3.08,10.28-7.14,7.61-3.69-2.43.25-8.6,3.48-9.11Z"/>
  <path d="M781.67,82.75c1.39-.22,2.85.33,3.66,1.5,2.29,3.33-3.08,10.28-7.14,7.61-3.69-2.43.25-8.6,3.48-9.11Z"/>
</svg>