<?xml version="1.0" encoding="UTF-8"?>
<svg xmlns="http://www.w3.org/2000/svg" xmlns:xlink="http://www.w3.org/1999/xlink" viewBox="0 0 956.33 400">
  <defs>
    <style>
      .cls-1 {
        fill: #3c3c3b;
      }

      .cls-2 {
        mask: url(#mask);
      }

      .cls-3 {
        fill: #27e2f8;
      }

      .cls-4 {
        filter: url(#luminosity-noclip);
      }

      .cls-5 {
        filter: url(#luminosity-noclip-3);
      }

      .cls-6 {
        fill: url(#radial-gradient);
      }

      .cls-6, .cls-7, .cls-8, .cls-9 {
        mix-blend-mode: multiply;
      }

      .cls-10 {
        fill: url(#linear-gradient-3);
      }

      .cls-11 {
        fill: url(#linear-gradient-2);
      }

      .cls-12 {
        fill: url(#linear-gradient);
      }

      .cls-13 {
        fill: #1d1d1b;
      }

      .cls-14 {
        isolation: isolate;
      }

      .cls-15 {
        mask: url(#mask-2);
      }

      .cls-16 {
        mask: url(#mask-3);
      }

      .cls-17 {
        mask: url(#mask-1);
      }

      .cls-18 {
        fill: #fff;
      }

      .cls-19 {
        fill: url(#Degradado_sin_nombre_103);
      }

      .cls-20 {
        fill: url(#Degradado_sin_nombre_31);
      }

      .cls-7 {
        fill: url(#radial-gradient-3);
      }

      .cls-8 {
        fill: url(#radial-gradient-2);
      }

      .cls-9 {
        fill: url(#radial-gradient-4);
      }
    </style>
    <linearGradient id="linear-gradient" x1="31.9" y1="207.47" x2="155.11" y2="207.47" gradientUnits="userSpaceOnUse">
      <stop offset="0" stop-color="#a0a0a0"/>
      <stop offset="1" stop-color="#fbfbfb"/>
    </linearGradient>
    <linearGradient id="Degradado_sin_nombre_31" data-name="Degradado sin nombre 31" x1="79.42" y1="200" x2="924.43" y2="200" gradientUnits="userSpaceOnUse">
      <stop offset=".07" stop-color="#49e7b2"/>
      <stop offset=".46" stop-color="#47f6ca"/>
      <stop offset="1" stop-color="#27e2f8"/>
    </linearGradient>
    <filter id="luminosity-noclip" x="206.09" y="91.6" width="216.82" height="216.83" color-interpolation-filters="sRGB" filterUnits="userSpaceOnUse">
      <feFlood flood-color="#fff" result="bg"/>
      <feBlend in="SourceGraphic" in2="bg"/>
    </filter>
    <filter id="luminosity-noclip-2" x="206.09" y="-8729.82" width="216.82" height="32766" color-interpolation-filters="sRGB" filterUnits="userSpaceOnUse">
      <feFlood flood-color="#fff" result="bg"/>
      <feBlend in="SourceGraphic" in2="bg"/>
    </filter>
    <mask id="mask-1" x="206.09" y="-8729.82" width="216.82" height="32766" maskUnits="userSpaceOnUse"/>
    <radialGradient id="radial-gradient" cx="112.76" cy="-309.32" fx="112.76" fy="-309.32" r="188.47" gradientTransform="translate(248.36 407.04) scale(.65)" gradientUnits="userSpaceOnUse">
      <stop offset=".88" stop-color="#000"/>
      <stop offset=".9" stop-color="#2e2e2e"/>
      <stop offset=".97" stop-color="#c3c3c3"/>
      <stop offset="1" stop-color="#fff"/>
    </radialGradient>
    <mask id="mask" x="206.09" y="91.6" width="216.82" height="216.83" maskUnits="userSpaceOnUse">
      <g class="cls-4">
        <g class="cls-17">
          <path class="cls-6" d="M314.5,91.6c-59.87,0-108.41,48.54-108.41,108.41s48.54,108.41,108.41,108.41,108.41-48.54,108.41-108.41-48.54-108.41-108.41-108.41h0Z"/>
        </g>
      </g>
    </mask>
    <radialGradient id="radial-gradient-2" cx="248.51" cy="100.58" fx="248.51" fy="100.58" r="143.49" gradientTransform="translate(110.12 121.39) scale(.85)" gradientUnits="userSpaceOnUse">
      <stop offset=".88" stop-color="#fff"/>
      <stop offset=".9" stop-color="#d2d8db"/>
      <stop offset=".97" stop-color="#3d5564"/>
      <stop offset="1" stop-color="#022135"/>
    </radialGradient>
    <linearGradient id="linear-gradient-2" x1="238.69" y1="116.9" x2="382.03" y2="288.56" gradientUnits="userSpaceOnUse">
      <stop offset="0" stop-color="#312a30"/>
      <stop offset="1" stop-color="#756a74"/>
    </linearGradient>
    <radialGradient id="Degradado_sin_nombre_103" data-name="Degradado sin nombre 103" cx="176.62" cy="34.4" fx="176.62" fy="34.4" r="201.03" gradientTransform="translate(110.12 121.39) scale(.85)" gradientUnits="userSpaceOnUse">
      <stop offset="0" stop-color="#27e2f8"/>
      <stop offset=".19" stop-color="#2ae4f2"/>
      <stop offset=".43" stop-color="#35ebe2"/>
      <stop offset=".68" stop-color="#47f6ca"/>
      <stop offset=".77" stop-color="#43eec2"/>
      <stop offset=".9" stop-color="#39daad"/>
      <stop offset="1" stop-color="#30c89a"/>
    </radialGradient>
    <filter id="luminosity-noclip-3" x="201.92" y="91.6" width="216.83" height="216.83" color-interpolation-filters="sRGB" filterUnits="userSpaceOnUse">
      <feFlood flood-color="#fff" result="bg"/>
      <feBlend in="SourceGraphic" in2="bg"/>
    </filter>
    <filter id="luminosity-noclip-4" x="201.92" y="-8729.82" width="216.83" height="32766" color-interpolation-filters="sRGB" filterUnits="userSpaceOnUse">
      <feFlood flood-color="#fff" result="bg"/>
      <feBlend in="SourceGraphic" in2="bg"/>
    </filter>
    <mask id="mask-3" x="201.92" y="-8729.82" width="216.83" height="32766" maskUnits="userSpaceOnUse"/>
    <radialGradient id="radial-gradient-3" cx="95.78" cy="-321.98" fx="95.78" fy="-321.98" r="164.52" gradientTransform="translate(248.36 407.04) scale(.65)" gradientUnits="userSpaceOnUse">
      <stop offset=".84" stop-color="#000"/>
      <stop offset=".85" stop-color="#121212"/>
      <stop offset=".89" stop-color="#414141"/>
      <stop offset=".93" stop-color="#8d8d8d"/>
      <stop offset=".99" stop-color="#f4f4f4"/>
      <stop offset="1" stop-color="#fff"/>
    </radialGradient>
    <mask id="mask-2" x="201.92" y="91.6" width="216.83" height="216.83" maskUnits="userSpaceOnUse">
      <g class="cls-5">
        <g class="cls-16">
          <path class="cls-7" d="M310.33,91.6c-59.87,0-108.41,48.54-108.41,108.41s48.54,108.41,108.41,108.41,108.42-48.54,108.42-108.41-48.54-108.41-108.42-108.41h0Z"/>
        </g>
      </g>
    </mask>
    <radialGradient id="radial-gradient-4" cx="235.58" cy="90.94" fx="235.58" fy="90.94" r="125.26" gradientTransform="translate(110.12 121.39) scale(.85)" gradientUnits="userSpaceOnUse">
      <stop offset=".84" stop-color="#fff"/>
      <stop offset=".85" stop-color="#ecf2f4"/>
      <stop offset=".89" stop-color="#bdd0d9"/>
      <stop offset=".94" stop-color="#719aae"/>
      <stop offset="1" stop-color="#0a5074"/>
      <stop offset="1" stop-color="#074e72"/>
    </radialGradient>
    <linearGradient id="linear-gradient-3" x1="234.32" y1="108.94" x2="386.4" y2="291.06" xlink:href="#linear-gradient"/>
  </defs>
  <g class="cls-14">
    <g id="Capa_1" data-name="Capa 1">
      <g>
        <rect class="cls-18" x="310.36" y="105.89" width="125.05" height="125.05" rx="5.99" ry="5.99"/>
        <rect class="cls-12" x="31.9" y="93.87" width="123.21" height="227.2" rx="61.6" ry="61.6"/>
        <g>
          <rect class="cls-18" x="79.42" y="38.64" width="845.01" height="322.71" rx="57.75" ry="57.75"/>
          <path class="cls-20" d="M866.68,57.89c21.23,0,38.5,17.27,38.5,38.5v207.21c0,21.23-17.27,38.5-38.5,38.5H137.17c-21.23,0-38.5-17.27-38.5-38.5V96.39c0-21.23,17.27-38.5,38.5-38.5h729.51M866.68,38.64H137.17c-31.76,0-57.75,25.99-57.75,57.75v207.21c0,31.76,25.99,57.75,57.75,57.75h729.51c31.76,0,57.75-25.99,57.75-57.75V96.39c0-31.76-25.99-57.75-57.75-57.75h0Z"/>
        </g>
        <g>
          <path class="cls-1" d="M466.75,133.96v10.57h21.2v10.49h-21.2v16.46h-13.58v-48.02h37.66v10.49h-24.08Z"/>
          <path class="cls-1" d="M518.19,158.73h-7.41v12.76h-13.58v-48.02h21.95c4.34,0,8.12.72,11.32,2.16s5.67,3.5,7.41,6.17,2.61,5.82,2.61,9.43-.81,6.51-2.43,9.09c-1.63,2.58-3.94,4.61-6.97,6.07l10.36,15.09h-14.54l-8.71-12.76ZM524.64,136.02c-1.42-1.23-3.52-1.85-6.31-1.85h-7.55v14.06h7.55c2.79,0,4.89-.61,6.31-1.82,1.41-1.21,2.12-2.94,2.12-5.18s-.71-3.98-2.12-5.21Z"/>
          <path class="cls-1" d="M580.13,162.16h-20.3l-3.77,9.33h-13.86l21.19-48.02h13.38l21.27,48.02h-14.13l-3.77-9.33ZM576.15,152.14l-6.17-15.37-6.18,15.37h12.35Z"/>
          <path class="cls-1" d="M645.23,171.49l-.14-25.45-12.35,20.71h-6.03l-12.28-20.03v24.76h-12.55v-48.02h11.18l16.87,27.71,16.46-27.71h11.18l.14,48.02h-12.48Z"/>
          <path class="cls-1" d="M705.86,160.99v10.49h-38.55v-48.02h37.66v10.49h-24.21v8.1h21.33v10.15h-21.33v8.78h25.11Z"/>
        </g>
        <g>
          <path class="cls-1" d="M154.97,170.71v43.79h-12.38v-34.22h-8.14v-9.57h20.52Z"/>
          <path class="cls-1" d="M163.17,213.06c-1.37-1.33-2.06-3.03-2.06-5.07s.68-3.78,2.04-5.07c1.35-1.29,3.05-1.94,5.1-1.94s3.79.64,5.13,1.94,2,2.98,2,5.07-.68,3.73-2.03,5.07c-1.36,1.33-3.06,2-5.1,2s-3.69-.67-5.07-2Z"/>
        </g>
        <g>
          <g class="cls-2">
            <path class="cls-8" d="M314.5,91.6c-59.87,0-108.41,48.54-108.41,108.41s48.54,108.41,108.41,108.41,108.41-48.54,108.41-108.41-48.54-108.41-108.41-108.41h0Z"/>
          </g>
          <path class="cls-11" d="M310.35,90.92c-61.74,0-111.81,50.06-111.81,111.81s50.07,111.82,111.81,111.82,111.82-50.06,111.82-111.82-50.07-111.81-111.82-111.81h0Z"/>
          <path class="cls-19" d="M310.35,90.92c-61.74,0-111.81,50.06-111.81,111.81s50.07,111.82,111.81,111.82,111.82-50.06,111.82-111.82-50.07-111.81-111.82-111.81h0Z"/>
          <g class="cls-15">
            <path class="cls-9" d="M310.33,91.6c-59.87,0-108.41,48.54-108.41,108.41s48.54,108.41,108.41,108.41,108.42-48.54,108.42-108.41-48.54-108.41-108.42-108.41h0Z"/>
          </g>
          <path class="cls-10" d="M310.35,93.87c58.53,0,106.14,47.61,106.14,106.13s-47.61,106.13-106.14,106.13-106.13-47.61-106.13-106.13,47.62-106.13,106.13-106.13M310.35,81.37c-65.51,0-118.63,53.11-118.63,118.62s53.12,118.63,118.63,118.63,118.64-53.11,118.64-118.63-53.12-118.62-118.64-118.62h0Z"/>
        </g>
        <g>
          <rect class="cls-13" x="256.13" y="147.42" width="9.3" height="105.15"/>
          <rect class="cls-13" x="275.81" y="147.42" width="9.3" height="105.15"/>
          <rect class="cls-13" x="295.5" y="147.42" width="9.3" height="105.15"/>
          <rect class="cls-13" x="315.19" y="147.42" width="9.3" height="105.15"/>
          <rect class="cls-13" x="335.56" y="147.42" width="9.3" height="105.15"/>
          <rect class="cls-13" x="355.24" y="147.42" width="9.3" height="105.15"/>
        </g>
        <g>
          <path class="cls-3" d="M457.74,214.3c-.94-3.46-1.41-7.17-1.41-11.13s.47-7.67,1.41-11.15c.94-3.48,2.27-6.52,4.01-9.12h6.45c-1.82,3.21-3.15,6.46-3.99,9.77-.84,3.31-1.25,6.81-1.25,10.5s.42,7.2,1.25,10.5c.84,3.3,2.17,6.56,3.99,9.77h-6.45c-1.73-2.63-3.07-5.67-4.01-9.14Z"/>
          <path class="cls-3" d="M472.23,184.72h13.78c3.29,0,6.2.63,8.73,1.88,2.52,1.25,4.49,3.03,5.89,5.31s2.1,4.93,2.1,7.97-.7,5.69-2.1,7.97c-1.4,2.28-3.37,4.05-5.89,5.31-2.53,1.25-5.44,1.88-8.73,1.88h-13.78v-30.32ZM485.65,209.27c3.03,0,5.45-.84,7.26-2.53,1.8-1.69,2.71-3.98,2.71-6.87s-.91-5.17-2.71-6.86c-1.8-1.69-4.23-2.53-7.26-2.53h-6.41v18.79h6.41Z"/>
          <path class="cls-3" d="M508,184.72h7.02v30.32h-7.02v-30.32Z"/>
          <path class="cls-3" d="M525.22,214.58c-2.24-.65-4.03-1.49-5.39-2.53l2.38-5.28c1.3.95,2.84,1.72,4.63,2.29s3.58.87,5.37.87c1.99,0,3.46-.3,4.42-.89s1.43-1.38,1.43-2.36c0-.72-.28-1.32-.85-1.8-.56-.48-1.28-.86-2.17-1.15-.88-.29-2.07-.61-3.57-.95-2.31-.55-4.2-1.1-5.67-1.64-1.47-.55-2.74-1.43-3.79-2.65-1.05-1.21-1.58-2.82-1.58-4.85,0-1.76.47-3.36,1.43-4.79s2.39-2.56,4.31-3.4c1.92-.84,4.27-1.26,7.04-1.26,1.93,0,3.83.23,5.67.7s3.46,1.13,4.85,1.99l-2.17,5.32c-2.8-1.58-5.6-2.38-8.4-2.38-1.96,0-3.42.31-4.36.95-.94.64-1.41,1.48-1.41,2.51s.54,1.81,1.62,2.31c1.09.51,2.74,1.01,4.96,1.5,2.31.55,4.2,1.1,5.67,1.64s2.74,1.41,3.79,2.6c1.06,1.18,1.58,2.79,1.58,4.81,0,1.73-.48,3.31-1.45,4.74s-2.42,2.56-4.35,3.4c-1.94.84-4.29,1.26-7.06,1.26-2.4,0-4.71-.33-6.96-.98Z"/>
          <path class="cls-3" d="M573.32,209.4v5.63h-23.48v-30.32h22.91v5.63h-15.94v6.58h14.08v5.46h-14.08v7.02h16.5Z"/>
          <path class="cls-3" d="M606.72,184.72v30.32h-5.76l-15.12-18.41v18.41h-6.93v-30.32h5.8l15.07,18.41v-18.41h6.93ZM594,181.92c-.59-.31-1.25-.71-1.97-1.24-.46-.35-.84-.61-1.15-.78-.3-.17-.6-.26-.89-.26-.61,0-1.1.21-1.47.63-.38.42-.58,1.02-.61,1.8h-3.42c.06-1.94.54-3.47,1.45-4.62.91-1.14,2.11-1.71,3.61-1.71.75,0,1.42.16,2.02.46.59.31,1.26.73,2.01,1.28.46.35.85.61,1.15.78.31.17.6.26.89.26.58,0,1.06-.21,1.45-.63s.6-.99.63-1.72h3.42c-.06,1.88-.54,3.38-1.45,4.51s-2.11,1.69-3.62,1.69c-.78,0-1.46-.15-2.05-.45Z"/>
          <path class="cls-3" d="M620.07,213.52c-2.52-1.35-4.5-3.22-5.93-5.61-1.43-2.38-2.15-5.06-2.15-8.04s.71-5.65,2.15-8.03c1.43-2.38,3.41-4.25,5.93-5.61,2.53-1.36,5.36-2.04,8.51-2.04s5.98.68,8.49,2.04c2.51,1.35,4.49,3.22,5.94,5.61s2.17,5.06,2.17,8.03-.72,5.65-2.17,8.04-3.42,4.25-5.94,5.61c-2.51,1.36-5.34,2.04-8.49,2.04s-5.98-.68-8.51-2.04ZM633.44,208.34c1.44-.82,2.58-1.97,3.4-3.45.82-1.47,1.23-3.14,1.23-5.02s-.41-3.55-1.23-5.02c-.82-1.48-1.96-2.62-3.4-3.45s-3.06-1.24-4.85-1.24-3.41.41-4.85,1.24-2.58,1.97-3.4,3.45c-.83,1.47-1.24,3.14-1.24,5.02s.41,3.55,1.24,5.02c.82,1.48,1.96,2.62,3.4,3.45s3.06,1.24,4.85,1.24,3.41-.41,4.85-1.24Z"/>
          <path class="cls-3" d="M647.6,223.44c1.82-3.21,3.15-6.46,4.01-9.77.85-3.31,1.28-6.81,1.28-10.5s-.43-7.2-1.28-10.5c-.86-3.3-2.19-6.56-4.01-9.77h6.45c1.76,2.57,3.11,5.59,4.05,9.08.94,3.48,1.41,7.21,1.41,11.2s-.47,7.7-1.39,11.15c-.93,3.45-2.28,6.49-4.07,9.12h-6.45Z"/>
          <path d="M459.86,266.45c-2.18-.66-3.91-1.54-5.17-2.64l1.95-4.38c1.24.98,2.77,1.79,4.57,2.41,1.8.62,3.61.93,5.43.93,2.25,0,3.93-.36,5.05-1.09,1.11-.72,1.67-1.67,1.67-2.86,0-.86-.31-1.58-.93-2.14-.63-.56-1.41-1-2.36-1.32s-2.25-.68-3.9-1.09c-2.31-.55-4.18-1.1-5.61-1.64-1.43-.55-2.66-1.41-3.68-2.58s-1.54-2.75-1.54-4.74c0-1.67.46-3.2,1.36-4.57.91-1.37,2.28-2.46,4.12-3.27,1.83-.81,4.07-1.21,6.73-1.21,1.85,0,3.67.23,5.46.69s3.34,1.13,4.63,1.99l-1.78,4.38c-1.33-.78-2.71-1.37-4.16-1.78-1.44-.4-2.84-.61-4.2-.61-2.22,0-3.87.38-4.96,1.13-1.08.75-1.62,1.74-1.62,2.98,0,.87.31,1.57.93,2.12s1.41.98,2.36,1.3c.95.31,2.25.68,3.9,1.08,2.25.52,4.1,1.06,5.54,1.63,1.44.56,2.68,1.42,3.7,2.58s1.54,2.71,1.54,4.68c0,1.68-.45,3.19-1.36,4.55s-2.29,2.44-4.14,3.25-4.1,1.21-6.76,1.21c-2.34,0-4.6-.33-6.78-1Z"/>
          <path d="M500.62,246.07c1.8,1.63,2.71,4.09,2.71,7.38v13.56h-5.11v-2.82c-.67,1.01-1.61,1.78-2.84,2.32s-2.71.8-4.44.8-3.25-.3-4.54-.89c-1.3-.59-2.3-1.41-3.01-2.47-.7-1.05-1.06-2.24-1.06-3.57,0-2.08.77-3.75,2.32-5,1.54-1.26,3.98-1.88,7.29-1.88h5.98v-.35c0-1.62-.48-2.86-1.45-3.73-.97-.86-2.41-1.3-4.31-1.3-1.3,0-2.58.2-3.84.61s-2.32.97-3.18,1.69l-2.12-3.94c1.21-.93,2.67-1.63,4.38-2.12,1.7-.49,3.51-.74,5.41-.74,3.41,0,6.01.82,7.82,2.45ZM495.68,262.44c1.05-.62,1.8-1.51,2.23-2.66v-2.68h-5.59c-3.12,0-4.68,1.02-4.68,3.07,0,.98.39,1.76,1.17,2.34s1.86.86,3.25.86,2.56-.31,3.62-.93Z"/>
          <path d="M529.12,245.1c1.78.98,3.17,2.37,4.18,4.15,1.01,1.79,1.51,3.86,1.51,6.19s-.5,4.41-1.51,6.22c-1.02,1.8-2.41,3.2-4.18,4.18s-3.79,1.48-6.04,1.48c-1.59,0-3.04-.28-4.36-.83-1.31-.55-2.42-1.37-3.31-2.47v2.99h-5.15v-32.14h5.41v11.82c.92-1.01,2.01-1.78,3.27-2.3,1.25-.52,2.63-.78,4.14-.78,2.25,0,4.26.49,6.04,1.48ZM527.39,260.68c1.28-1.33,1.93-3.07,1.93-5.24s-.64-3.91-1.93-5.24c-1.29-1.33-2.92-1.99-4.92-1.99-1.3,0-2.47.3-3.51.89s-1.86,1.44-2.47,2.53c-.61,1.1-.91,2.37-.91,3.81s.31,2.72.91,3.81c.61,1.1,1.43,1.95,2.47,2.53,1.04.59,2.21.89,3.51.89,1.99,0,3.63-.66,4.92-1.99Z"/>
          <path d="M561.63,257.18h-18.15c.32,1.71,1.15,3.05,2.49,4.05s3.01,1.49,5.01,1.49c2.54,0,4.63-.84,6.28-2.51l2.9,3.34c-1.04,1.24-2.35,2.18-3.94,2.82s-3.38.95-5.37.95c-2.54,0-4.78-.51-6.72-1.52-1.93-1.01-3.43-2.42-4.48-4.23-1.06-1.8-1.58-3.84-1.58-6.13s.51-4.28,1.54-6.09c1.02-1.8,2.45-3.21,4.27-4.22s3.87-1.52,6.15-1.52,4.27.5,6.04,1.49c1.78,1,3.16,2.4,4.16,4.2s1.49,3.89,1.49,6.26c0,.38-.03.91-.08,1.6ZM545.62,249.49c-1.2,1.02-1.93,2.39-2.19,4.09h13.12c-.23-1.67-.94-3.03-2.12-4.07s-2.66-1.56-4.42-1.56-3.2.51-4.4,1.54Z"/>
          <path d="M580.29,243.62v5.16c-.46-.08-.88-.13-1.25-.13-2.11,0-3.76.62-4.93,1.84-1.18,1.23-1.78,3-1.78,5.31v11.22h-5.41v-23.13h5.15v3.38c1.56-2.43,4.31-3.64,8.23-3.64Z"/>
          <path d="M601.21,265.8c-1.9-1.01-3.39-2.42-4.46-4.23s-1.6-3.84-1.6-6.13.54-4.31,1.6-6.11,2.55-3.19,4.44-4.2c1.89-1.01,4.05-1.52,6.48-1.52,2.28,0,4.28.47,6,1.39,1.72.93,3.01,2.26,3.88,3.99l-4.16,2.43c-.66-1.07-1.49-1.87-2.49-2.4s-2.09-.8-3.27-.8c-2.02,0-3.69.66-5.02,1.97-1.33,1.31-1.99,3.06-1.99,5.26s.66,3.95,1.97,5.26c1.31,1.32,2.99,1.97,5.04,1.97,1.18,0,2.27-.26,3.27-.8s1.83-1.33,2.49-2.41l4.16,2.43c-.9,1.73-2.2,3.06-3.92,4-1.72.94-3.7,1.41-5.95,1.41-2.4,0-4.55-.51-6.46-1.52Z"/>
          <path d="M625.94,265.8c-1.88-1.01-3.34-2.42-4.39-4.23-1.06-1.8-1.58-3.84-1.58-6.13s.53-4.31,1.58-6.11c1.05-1.79,2.52-3.19,4.39-4.2s3.99-1.52,6.33-1.52,4.49.51,6.36,1.52c1.88,1.01,3.34,2.41,4.4,4.2,1.05,1.79,1.58,3.83,1.58,6.11s-.53,4.32-1.58,6.13c-1.06,1.8-2.52,3.21-4.4,4.23-1.88,1.01-4,1.52-6.36,1.52s-4.45-.51-6.33-1.52ZM637.21,260.68c1.3-1.33,1.95-3.07,1.95-5.24s-.65-3.91-1.95-5.24c-1.3-1.33-2.95-1.99-4.93-1.99s-3.63.67-4.92,1.99c-1.29,1.33-1.93,3.08-1.93,5.24s.64,3.91,1.93,5.24c1.28,1.33,2.92,1.99,4.92,1.99s3.64-.66,4.93-1.99Z"/>
          <path d="M669.95,246.18c1.76,1.71,2.64,4.23,2.64,7.58v13.25h-5.41v-12.56c0-2.02-.47-3.54-1.43-4.57s-2.31-1.54-4.07-1.54c-1.99,0-3.57.6-4.72,1.8-1.15,1.2-1.73,2.92-1.73,5.18v11.69h-5.41v-23.13h5.15v2.99c.9-1.07,2.02-1.88,3.38-2.43,1.36-.55,2.89-.82,4.59-.82,2.92,0,5.25.86,7.02,2.56Z"/>
          <path d="M683.77,265.8c-1.88-1.01-3.34-2.42-4.39-4.23-1.06-1.8-1.58-3.84-1.58-6.13s.53-4.31,1.58-6.11c1.05-1.79,2.52-3.19,4.39-4.2s3.99-1.52,6.33-1.52,4.49.51,6.36,1.52c1.88,1.01,3.34,2.41,4.4,4.2,1.05,1.79,1.58,3.83,1.58,6.11s-.53,4.32-1.58,6.13c-1.06,1.8-2.52,3.21-4.4,4.23-1.88,1.01-4,1.52-6.36,1.52s-4.45-.51-6.33-1.52ZM695.03,260.68c1.3-1.33,1.95-3.07,1.95-5.24s-.65-3.91-1.95-5.24c-1.3-1.33-2.95-1.99-4.93-1.99s-3.63.67-4.92,1.99c-1.29,1.33-1.93,3.08-1.93,5.24s.64,3.91,1.93,5.24c1.28,1.33,2.92,1.99,4.92,1.99s3.64-.66,4.93-1.99Z"/>
          <path d="M711.79,265.8c-1.9-1.01-3.39-2.42-4.46-4.23s-1.6-3.84-1.6-6.13.54-4.31,1.6-6.11,2.55-3.19,4.44-4.2c1.89-1.01,4.05-1.52,6.48-1.52,2.28,0,4.28.47,6,1.39,1.72.93,3.01,2.26,3.88,3.99l-4.16,2.43c-.66-1.07-1.49-1.87-2.49-2.4s-2.09-.8-3.27-.8c-2.02,0-3.69.66-5.02,1.97-1.33,1.31-1.99,3.06-1.99,5.26s.66,3.95,1.97,5.26c1.31,1.32,2.99,1.97,5.04,1.97,1.18,0,2.27-.26,3.27-.8s1.83-1.33,2.49-2.41l4.16,2.43c-.9,1.73-2.2,3.06-3.92,4-1.72.94-3.7,1.41-5.95,1.41-2.4,0-4.55-.51-6.46-1.52Z"/>
          <path d="M754.11,257.18h-18.15c.32,1.71,1.15,3.05,2.49,4.05s3.01,1.49,5.01,1.49c2.54,0,4.63-.84,6.28-2.51l2.9,3.34c-1.04,1.24-2.35,2.18-3.94,2.82s-3.38.95-5.37.95c-2.54,0-4.78-.51-6.72-1.52-1.93-1.01-3.43-2.42-4.48-4.23-1.06-1.8-1.58-3.84-1.58-6.13s.51-4.28,1.54-6.09c1.02-1.8,2.45-3.21,4.27-4.22s3.87-1.52,6.15-1.52,4.27.5,6.04,1.49c1.78,1,3.16,2.4,4.16,4.2s1.49,3.89,1.49,6.26c0,.38-.03.91-.08,1.6ZM738.1,249.49c-1.2,1.02-1.93,2.39-2.19,4.09h13.12c-.23-1.67-.94-3.03-2.12-4.07s-2.66-1.56-4.42-1.56-3.2.51-4.4,1.54Z"/>
          <path d="M772.78,243.62v5.16c-.46-.08-.88-.13-1.25-.13-2.11,0-3.76.62-4.93,1.84-1.18,1.23-1.78,3-1.78,5.31v11.22h-5.41v-23.13h5.15v3.38c1.56-2.43,4.31-3.64,8.23-3.64Z"/>
          <path d="M776.37,266.3c-.7-.68-1.04-1.54-1.04-2.58s.34-1.94,1.02-2.6c.68-.67,1.52-1,2.53-1s1.86.33,2.53,1c.68.66,1.02,1.53,1.02,2.6s-.35,1.9-1.04,2.58c-.7.68-1.53,1.02-2.51,1.02s-1.82-.34-2.51-1.02Z"/>
        </g>
      </g>
    </g>
  </g>
</svg>