<?xml version="1.0" encoding="UTF-8"?>
<svg xmlns="http://www.w3.org/2000/svg" xmlns:xlink="http://www.w3.org/1999/xlink" viewBox="0 0 500 500">
  <defs>
    <style>
      .cls-1 {
        mask: url(#mask);
      }

      .cls-2 {
        filter: url(#luminosity-noclip);
      }

      .cls-3 {
        filter: url(#luminosity-noclip-3);
      }

      .cls-4 {
        fill: url(#radial-gradient);
      }

      .cls-4, .cls-5, .cls-6, .cls-7 {
        mix-blend-mode: multiply;
      }

      .cls-8 {
        fill: url(#linear-gradient-2);
      }

      .cls-9 {
        fill: url(#linear-gradient);
      }

      .cls-10 {
        isolation: isolate;
      }

      .cls-11 {
        mask: url(#mask-2);
      }

      .cls-12 {
        mask: url(#mask-3);
      }

      .cls-13 {
        mask: url(#mask-1);
      }

      .cls-14 {
        fill: url(#Degradado_sin_nombre_103);
      }

      .cls-5 {
        fill: url(#radial-gradient-3);
      }

      .cls-6 {
        fill: url(#radial-gradient-2);
      }

      .cls-7 {
        fill: url(#radial-gradient-4);
      }
    </style>
    <filter id="luminosity-noclip" x="51.06" y="43.18" width="413.67" height="413.67" color-interpolation-filters="sRGB" filterUnits="userSpaceOnUse">
      <feFlood flood-color="#fff" result="bg"/>
      <feBlend in="SourceGraphic" in2="bg"/>
    </filter>
    <filter id="luminosity-noclip-2" x="51.06" y="-8752" width="413.67" height="32766" color-interpolation-filters="sRGB" filterUnits="userSpaceOnUse">
      <feFlood flood-color="#fff" result="bg"/>
      <feBlend in="SourceGraphic" in2="bg"/>
    </filter>
    <mask id="mask-1" x="51.06" y="-8752" width="413.67" height="32766" maskUnits="userSpaceOnUse"/>
    <radialGradient id="radial-gradient" cx="4170.86" cy="-234.5" fx="4170.86" fy="-234.5" r="359.57" gradientTransform="translate(-2428.04 414.87) scale(.65)" gradientUnits="userSpaceOnUse">
      <stop offset=".88" stop-color="#000"/>
      <stop offset=".9" stop-color="#2e2e2e"/>
      <stop offset=".97" stop-color="#c3c3c3"/>
      <stop offset="1" stop-color="#fff"/>
    </radialGradient>
    <mask id="mask" x="51.06" y="43.18" width="413.67" height="413.67" maskUnits="userSpaceOnUse">
      <g class="cls-2">
        <g class="cls-13">
          <path class="cls-4" d="M257.89,43.18c-114.23,0-206.83,92.6-206.83,206.84s92.6,206.84,206.83,206.84,206.84-92.61,206.84-206.84S372.13,43.18,257.89,43.18h0Z"/>
        </g>
      </g>
    </mask>
    <radialGradient id="radial-gradient-2" cx="1528.61" cy="162.84" fx="1528.61" fy="162.84" r="273.77" gradientTransform="translate(-1028.24 124.72) scale(.85)" gradientUnits="userSpaceOnUse">
      <stop offset=".88" stop-color="#fff"/>
      <stop offset=".9" stop-color="#d2d8db"/>
      <stop offset=".97" stop-color="#3d5564"/>
      <stop offset="1" stop-color="#022135"/>
    </radialGradient>
    <linearGradient id="linear-gradient" x1="113.26" y1="91.47" x2="386.74" y2="418.96" gradientUnits="userSpaceOnUse">
      <stop offset="0" stop-color="#312a30"/>
      <stop offset="1" stop-color="#756a74"/>
    </linearGradient>
    <radialGradient id="Degradado_sin_nombre_103" data-name="Degradado sin nombre 103" cx="1391.46" cy="36.58" fx="1391.46" fy="36.58" r="383.53" gradientTransform="translate(-1028.24 124.72) scale(.85)" gradientUnits="userSpaceOnUse">
      <stop offset="0" stop-color="#27e2f8"/>
      <stop offset=".19" stop-color="#2ae4f2"/>
      <stop offset=".43" stop-color="#35ebe2"/>
      <stop offset=".68" stop-color="#47f6ca"/>
      <stop offset=".77" stop-color="#43eec2"/>
      <stop offset=".9" stop-color="#39daad"/>
      <stop offset="1" stop-color="#30c89a"/>
    </radialGradient>
    <filter id="luminosity-noclip-3" x="43.12" y="43.18" width="413.68" height="413.67" color-interpolation-filters="sRGB" filterUnits="userSpaceOnUse">
      <feFlood flood-color="#fff" result="bg"/>
      <feBlend in="SourceGraphic" in2="bg"/>
    </filter>
    <filter id="luminosity-noclip-4" x="43.12" y="-8752" width="413.68" height="32766" color-interpolation-filters="sRGB" filterUnits="userSpaceOnUse">
      <feFlood flood-color="#fff" result="bg"/>
      <feBlend in="SourceGraphic" in2="bg"/>
    </filter>
    <mask id="mask-3" x="43.12" y="-8752" width="413.68" height="32766" maskUnits="userSpaceOnUse"/>
    <radialGradient id="radial-gradient-3" cx="4138.45" cy="-258.66" fx="4138.45" fy="-258.66" r="313.88" gradientTransform="translate(-2428.04 414.87) scale(.65)" gradientUnits="userSpaceOnUse">
      <stop offset=".84" stop-color="#000"/>
      <stop offset=".85" stop-color="#121212"/>
      <stop offset=".89" stop-color="#414141"/>
      <stop offset=".93" stop-color="#8d8d8d"/>
      <stop offset=".99" stop-color="#f4f4f4"/>
      <stop offset="1" stop-color="#fff"/>
    </radialGradient>
    <mask id="mask-2" x="43.12" y="43.18" width="413.68" height="413.67" maskUnits="userSpaceOnUse">
      <g class="cls-3">
        <g class="cls-12">
          <path class="cls-5" d="M249.95,43.18c-114.23,0-206.84,92.6-206.84,206.84s92.61,206.84,206.84,206.84,206.84-92.61,206.84-206.84S364.19,43.18,249.95,43.18h0Z"/>
        </g>
      </g>
    </mask>
    <radialGradient id="radial-gradient-4" cx="1503.94" cy="144.45" fx="1503.94" fy="144.45" r="238.98" gradientTransform="translate(-1028.24 124.72) scale(.85)" gradientUnits="userSpaceOnUse">
      <stop offset=".84" stop-color="#fff"/>
      <stop offset=".85" stop-color="#ecf2f4"/>
      <stop offset=".89" stop-color="#bdd0d9"/>
      <stop offset=".94" stop-color="#719aae"/>
      <stop offset="1" stop-color="#0a5074"/>
      <stop offset="1" stop-color="#074e72"/>
    </radialGradient>
    <linearGradient id="linear-gradient-2" x1="104.93" y1="76.27" x2="395.07" y2="423.73" gradientUnits="userSpaceOnUse">
      <stop offset="0" stop-color="#a0a0a0"/>
      <stop offset="1" stop-color="#fbfbfb"/>
    </linearGradient>
  </defs>
  <g class="cls-10">
    <g id="Capa_1" data-name="Capa 1">
      <g>
        <g class="cls-1">
          <path class="cls-6" d="M257.89,43.18c-114.23,0-206.83,92.6-206.83,206.84s92.6,206.84,206.83,206.84,206.84-92.61,206.84-206.84S372.13,43.18,257.89,43.18h0Z"/>
        </g>
        <path class="cls-9" d="M249.99,41.89c-117.8,0-213.32,95.5-213.32,213.32s95.52,213.33,213.32,213.33,213.35-95.51,213.35-213.33S367.82,41.89,249.99,41.89h0Z"/>
        <path class="cls-14" d="M249.99,41.89c-117.8,0-213.32,95.5-213.32,213.32s95.52,213.33,213.32,213.33,213.35-95.51,213.35-213.33S367.82,41.89,249.99,41.89h0Z"/>
        <g class="cls-11">
          <path class="cls-7" d="M249.95,43.18c-114.23,0-206.84,92.6-206.84,206.84s92.61,206.84,206.84,206.84,206.84-92.61,206.84-206.84S364.19,43.18,249.95,43.18h0Z"/>
        </g>
        <path class="cls-8" d="M249.99,47.52c111.66,0,202.5,90.83,202.5,202.48s-90.84,202.49-202.5,202.49S47.5,361.65,47.5,249.99,138.35,47.52,249.99,47.52M249.99,23.68C125.01,23.68,23.66,125,23.66,249.99s101.35,226.33,226.33,226.33,226.35-101.32,226.35-226.33S375,23.68,249.99,23.68h0Z"/>
      </g>
      <path d="M89.3,228.22c2.15-6.36,4.96-11.07,11.61-13.41,1.33-.47,6.28-1.19,6.53-1.41.42-.37,2.44-9.07,3.04-10.79,2.77-7.94,8.58-22.26,13.65-28.72,3.46-4.4,8.16-2.57,8.48,2.57-7.07,12.54-13.47,25.51-16.87,39.61,1.27.96,2.72,1.57,3.9,2.71,1.11,1.08,2.49,4.14,3.5,4.21,10.34-1.81,20.73-3.8,31.2-4.77,8.01-.74,16.34-.37,24.17-1.73,4.18-7.9,12.27-10.8,20.88-9.19,9.45-11.85,19.32-23.37,30.89-33.25.61-1.38-1.33-5.23-1.48-7.34s.59-3.92.55-5.35c-.04-1.33-6.11-4.42-7.61-5.25-11.45-6.39-24.39-10.91-36.83-14.98-1.29.04-2.62,3.26-3.77,4.42-4.34,4.41-10.75,5.75-16.74,4.93-1.72-.24-6.29-2.87-6.83-2.62-.26.12-3.24,2.72-3.83,3.24-2.81,2.48-8.63,10.64-11.76,10.64-3.33,0-5.45-3.37-4.11-6.5.87-2.02,9.01-9.76,11.15-11.79.75-.71,2.71-1.76,2.98-2.31.24-.49-1.28-4.42-1.43-5.68-1.65-14.16,12.7-24.97,25.64-18.58,1.45.72,4.85,4.04,5.18,4.06.57.04,8.66-4.16,10.33-4.82,38.52-15.25,80.75-14.54,118.12,3.73,3.3-.92,5.88-3.88,9.41-4.49,9.56-1.63,20.23,4.8,21.34,14.86.27,2.46-.82,8.14-.51,9.29.15.57,7.75,7.72,8.42,8.11,2.17,1.27,3.61-.41,5.91-.63,17.11-1.65,26.39,16.21,16.26,29.62,33.13,55.91,24.14,126.3-19.78,173.44-1.31,1.4-8.02,7.14-8.27,7.64-.8,1.62.71,3.69.91,5.59,1.82,17.28-17.82,27.15-30.3,15.17-40.92,21.39-91.8,21.7-132.69.1-13.38,10.38-31.46,1.29-30.05-15.86.11-1.32,1.4-3.65.92-4.41-30.86-26.77-49.36-68.03-48.55-109.11-7.01-2.2-11.47-6.88-13.57-13.9v-7.06ZM305.84,127.64c-.46-.63-12.57-5.32-14.37-5.95-26.94-9.37-56.36-9.97-83.74-1.91-3.2.94-21.05,7.22-21.82,9.37-.38,1.05-.52,2.71.63,3.31,2.67,1.4,7.59,2.2,10.76,3.35,8.4,3.03,16.81,6.57,24.81,10.5,2.32,1.14,9.68,6.07,11.35,6.34.36.06,4.83-3.17,6.34-3.74,4.56-1.73,9.32-1.86,13.87,0,1.7.69,5.13,3.78,6,3.79.93.01,8.06-4.56,9.7-5.39,8.12-4.11,16.49-7.7,25.01-10.89,2.18-.82,9.33-2.56,10.55-3.45.22-.16,1.06-5.1.9-5.31ZM166.24,124.19c-10.61,1.91-8.24,18.33,2.16,18.05,12.18-.33,11.45-20.49-2.16-18.05ZM321.02,124.2c-9.68,1.79-9.25,17.34,1.84,17.77,12.87.49,11.7-20.27-1.84-17.77ZM342.29,153.57c-2.3-.44-6.13-6.58-7.85-6.57-.98,0-2.53,1.73-3.7,2.2-5.77,2.36-12.5,2.32-17.75-1.35-1.56-1.09-5.36-6.11-6.18-6.13-12.6,3.93-25.11,8.72-36.63,15.19-1.34.75-5.67,2.95-5.99,4.05-.44,1.5.58,3,.52,4.55-.08,2.06-2.03,7.4-1.51,8.54,21.29,18.63,38.36,41.71,50.73,67.14,1.89-.71,6.92,1.1,7.9.19.86-.8,5.71-10.08,6.72-11.97,6.11-11.45,17.23-34.79,19.45-47.07.61-3.35-3.31-4.32-5.3-7.12-2.78-3.91-3.81-8.9-3.12-13.64.45-3.07,2.47-5.06,2.71-8.01ZM354.57,155.97c-8.51,1.77-8.35,16.08.49,17.48,14.84,2.34,14.3-20.55-.49-17.48ZM240.16,158.98c-8.5,8.53,5.02,21.3,13.07,12.78s-4.61-21.26-13.07-12.78ZM236.26,180.63c-.28.07-3.87,3.16-4.54,3.74-9.13,7.93-17.01,18.34-24.67,27.67l4.66,7.07c27.71,3,54.39,11,79.86,21.96,2.68,1.15,8.89,4.97,11.22,5.32,1.81.27,2.69-1.16,2.26-2.86-.48-1.88-3.81-7.68-4.95-9.81-8.45-15.75-22.86-34.88-35.99-46.99-.93-.86-6.45-5.98-6.9-6.1-.85-.22-7.84,2.85-10.47,2.86s-9.92-3-10.47-2.86ZM373.55,297.08c12.16-32.97,10.82-71.16-3.61-103.2-.82-1.82-5.39-11.25-6.4-11.88s-4.53.91-6.08.3c-5.46,16.5-11.62,32.8-19.5,48.3-1.21,2.38-8.56,14.35-8.52,15.59.04,1.12,4.05,6.04,4.54,8.96.53,3.14,0,6.44-.19,9.56,14.28,9.5,27.1,20.87,39.75,32.37ZM191.54,215.99c-8.28,1.86-8.45,17.09,2.22,17.57,13.82.62,12.36-20.85-2.22-17.57ZM106.25,222.46c-11.2.87-10.81,19.04,1.58,18.14,11.52-.84,10.43-19.07-1.58-18.14ZM160.98,348.75c-.87-18.47-.93-36.46,2.06-54.74,2.52-15.44,7.31-31.16,13.26-45.59.7-1.69,5.23-10.47,5.2-11.08-.02-.36-3.02-4.78-3.61-6.19-.83-1.99-.42-4.9-2.37-5.3l-50.84,5.96c.54,8.79-5.36,14.49-13.03,17.41.33,31.32,12.47,63.73,31.83,88.15,1.84,2.32,11.22,13.44,13.32,13.76.91.14,2.99-2.14,4.18-2.38ZM170.01,347.03c3.68.92,7.02,1.93,9.93,4.49,1.65,1.45,2.62,4.37,4.72,3.6,45.82-17.04,86.48-46.3,116.81-84.55.66-1.52-2.29-6.11-2.61-8.55-.22-1.67.45-7.02.26-7.34-.58-.99-18.35-8.64-20.92-9.67-21.04-8.41-43.88-14.51-66.44-16.72-1.97,10.54-12.79,16.27-22.98,13.49-2.19,6.16-5.25,11.95-7.53,18.08-10.35,27.82-13.81,57.57-11.25,87.17ZM310.2,265.69c8.12,8.1,20.64-4.18,13.07-12.78-8.01-9.1-21.85,4.03-13.07,12.78ZM322.84,348.18c1.63-1.84.74-20.56,1.32-24.28.74-4.75,7.22-5.13,8.53-.95.76,2.43.4,10.84.29,13.89-.12,3.46-.8,7.67-1.22,11.16-.11,1.23,4.27,3.27,4.94,3.14.82-.16,10.53-10.16,11.86-11.67,3.62-4.12,21.8-29.27,20.81-33.14-.34-1.32-13.97-13.84-16.12-15.7-2.66-2.32-22.59-18.27-24.1-18.27-.72,0-3.22,1.56-3.14,2.52.98,6.43,5.76,18.73,4.59,24.84-.58,3.04-5.02,3.92-7.22,2.11s-3.93-20.85-5.77-24.69l-8.48-1.63c-32.06,39.78-74.43,71.02-122.71,88.36-.28.28-1.27,6.62-1.21,7.01.14.91,14.73,6.72,16.81,7.44,32.18,11.19,68.47,9.98,99.57-4.03,1.42-.64,5.82-2.57,6.7-3.35.38-.34-.17-6.76.02-8.18.56-4.22,4.2-9.36,7.64-11.78,1.67-1.17,6.67-2.51,6.92-2.79ZM161.89,371.63c8.33,8.33,20.76-4.28,12.99-12.69-8.32-9-21.45,4.23-12.99,12.69ZM322.78,357.24c-2.68.61-5.44,4.51-5.71,7.23-1.31,13.18,16.91,13.62,17.69,2.38.49-7.08-5.2-11.15-11.97-9.61Z"/>
    </g>
  </g>
</svg>