<?xml version="1.0" encoding="UTF-8"?>
<svg id="Capa_1" data-name="Capa 1" xmlns="http://www.w3.org/2000/svg" xmlns:xlink="http://www.w3.org/1999/xlink" viewBox="0 0 400 400">
  <defs>
    <style>
      .cls-1 {
        fill: url(#Degradado_sin_nombre_4);
      }

      .cls-2 {
        stroke: #000;
        stroke-miterlimit: 10;
      }
    </style>
    <linearGradient id="Degradado_sin_nombre_4" data-name="Degradado sin nombre 4" x1="140" y1="222.35" x2="300.03" y2="222.35" gradientUnits="userSpaceOnUse">
      <stop offset=".07" stop-color="#3ee9b2"/>
      <stop offset=".46" stop-color="#39f8cb"/>
      <stop offset="1" stop-color="#00e3fb"/>
    </linearGradient>
  </defs>
  <path class="cls-1" d="M299.97,145.86c-28.71-4.85-55.47-16.03-80.25-30.94-24.27,15.42-51.27,25.94-79.66,30.94l-.06,119.07c13.62,33.75,48.21,52.12,80.3,64.86,31.79-13.14,66.23-31.11,79.73-64.86l-.06-119.07Z"/>
  <g>
    <path class="cls-2" d="M303.97,138.8h18.55c.92,0,12.69-12.29,12.92-13.19.32-1.25-2.9-7.11-3.07-10.13-.53-9.63,7.11-20.55,16.98-21.67,34.2-3.91,30.45,47.8-2.14,40.03-1.41-.34-3.66-2.19-4.58-1.78-3.06,1.38-14.32,16.2-16.95,16.2h-21.7v33.94h23.68c3.8-18.19,29.39-21.45,38.04-5.29,12.65,23.63-21.67,43.91-36.02,20.24-.89-1.47-1.73-5.47-2.02-5.47h-23.68v31.17c0,.08,1.1,1.18,1.18,1.18h21.31c3.79,1.19,24.08,11.97,26.08,11.65.77-.12,1.46-2.2,2.34-2.97,15.28-13.51,38.25-.93,34.76,18.98-3.09,17.63-26.84,22.46-37.08,7.8-3.64-5.21-3.24-9.64-4.37-15.36l-24.09-10.63h-20.12v24.07c0,1.48-6.94,15.41-8.27,17.77-15.76,28.06-46.46,47.82-75.41,60.33-3.87,1.67-17.7,7.73-20.88,7.58-2.85-.14-12.81-4.63-16.16-6-30.32-12.42-62.96-32.72-79.36-61.91-1.33-2.36-8.27-16.3-8.27-17.77v-24.07h-20.12l-24.09,10.63c-1.13,5.72-.73,10.15-4.37,15.36-10.24,14.66-33.99,9.84-37.08-7.8-3.51-20.01,19.6-32.43,34.76-18.98.87.77,1.57,2.85,2.34,2.97,1.82.29,22.46-10.36,26.08-11.65h21.31c.08,0,1.18-1.1,1.18-1.18v-31.17h-23.68c-4.56,21.99-38.28,20.61-40.28-1.94-2.33-26.32,33.55-32.38,40.28-7.53h23.68v-33.94h-21.7c-2.63,0-13.9-14.83-16.95-16.2-.92-.41-3.17,1.44-4.58,1.78-32.59,7.77-36.34-43.94-2.14-40.03,9.87,1.13,17.51,12.04,16.98,21.67-.17,3.02-3.39,8.88-3.07,10.13.23.89,11.99,13.19,12.92,13.19h18.55v-21.7c0-.22,2.22-2.41,2.95-2.58,33.89-2.08,62.06-12.15,89.96-30.79,2.57-1.72,8.45-7.23,10.88-7.37,3.51-.19,8.56,5.25,11.66,7.37,27.57,18.79,56.4,28.6,89.96,30.79.73.16,2.95,2.36,2.95,2.58v21.7ZM294.51,123.02c-23.36-1.61-47.1-7.75-67.89-18.53-9.47-4.91-17.86-11.55-27.09-16.82-27.55,20.51-59.86,33.39-94.44,35.35l.05,132.15c14.31,41.58,56.07,64.01,94.92,78.39,38.67-14.68,80.11-36.9,94.39-78.39l.05-132.15ZM43.32,103.47c-12.08,2.51-9.36,22.8,3.67,21.89,15.29-1.07,13.45-25.44-3.67-21.89ZM349.52,103.46c-1.86.43-5,3.43-5.97,5.08-6.04,10.33,6.06,21.06,15.63,14.84,10.12-6.57,4.01-23.05-9.66-19.92ZM43.82,179.33c-8.38,8.89,2.25,24.34,14.19,16.95,14.15-8.76-2.91-28.92-14.19-16.95ZM355.8,179.32c-11.89-11.81-28.07,8.38-14.2,16.96,12.23,7.57,22.53-8.69,14.2-16.96ZM27.55,236.85c-11.01,1.99-11.41,19.77.8,21.72,16.72,2.67,17.47-25.02-.8-21.72ZM366.9,236.85c-13.1,2.34-10.25,23.33,3.68,21.86,14.7-1.55,12.3-24.72-3.68-21.86Z"/>
    <path class="cls-2" d="M198,103.44c4.94-1.12,13.69,6.43,18.36,8.94,14.11,7.58,29.28,13.59,44.84,17.51,4.27,1.08,19.59,2.47,21.06,5.77l.45,115.64c-7.16,24.88-29.44,43.09-51.32,55.22-5.43,3.01-26.22,13.67-31.22,13.83-5.09.16-26.88-10.99-32.47-14.11-21.67-12.08-43.78-30.18-50.81-54.94l.45-115.64c1.42-3.2,14.44-4.32,18.39-5.29,16.56-4.08,30.87-9.25,45.93-17.2,3.74-1.97,13.45-9.08,16.34-9.73ZM273.09,142.07c-26.31-4.44-50.85-14.69-73.56-28.36-22.25,14.13-46.99,23.78-73.02,28.36l-.06,109.15c12.49,30.93,44.19,47.78,73.61,59.45,29.14-12.04,60.71-28.52,73.09-59.45l-.06-109.15Z"/>
    <path class="cls-2" d="M185.59,205.1h45.38c3.32,0,4.91,3.8,5.17,6.67.73,8.22,1.15,32.66-.08,40.24-.55,3.34-1.95,4.13-5.04,4.43-19.88,1.97-42.98-1.6-63.22,0-2.91-.04-4.02-2.53-4.32-5.15-1.48-12.8,1-28.56.19-41.68,1.19-5.35,8.21-4.57,12.46-4.51v-20.12c0-.32,1.93-4.75,2.34-5.55,8.81-17.27,34.61-16.88,42.96.5,1.88,3.91,4.68,14.42-1.49,14.98-6.88.62-5.1-5.54-6.68-9.97-3.68-10.32-18.93-11.83-25.17-2.99-.57.8-2.5,4.01-2.5,4.61v18.55ZM226.63,246.93v-31.17c0-.08-1.1-1.18-1.18-1.18h-51.3c-.08,0-1.18,1.1-1.18,1.18v31.17h53.67Z"/>
    <path class="cls-2" d="M198.81,221.79c8.02-1.46,6.73,15.32,4.12,17.6-8.81,7.69-11.21-16.31-4.12-17.6Z"/>
  </g>
</svg>