<?xml version="1.0" encoding="UTF-8"?>
<svg id="Capa_1" data-name="Capa 1" xmlns="http://www.w3.org/2000/svg" xmlns:xlink="http://www.w3.org/1999/xlink" viewBox="0 0 400 400">
  <defs>
    <style>
      .cls-1 {
        stroke: #000;
        stroke-miterlimit: 10;
        stroke-width: 2px;
      }

      .cls-2 {
        fill: url(#Degradado_sin_nombre_4);
      }
    </style>
    <linearGradient id="Degradado_sin_nombre_4" data-name="Degradado sin nombre 4" x1="94.95" y1="175.7" x2="297.2" y2="175.7" gradientUnits="userSpaceOnUse">
      <stop offset=".07" stop-color="#3ee9b2"/>
      <stop offset=".46" stop-color="#39f8cb"/>
      <stop offset="1" stop-color="#00e3fb"/>
    </linearGradient>
  </defs>
  <circle class="cls-2" cx="196.08" cy="175.7" r="101.13"/>
  <g>
    <path class="cls-1" d="M336.77,12.38c34.14,3.82,49.47,45.06,27.78,71.11l-46.93,47.18c1.53,7.51,4.33,14.67,5.6,22.27,6.45,38.48-4.8,69.21-27.63,99.32-8.47,11.17-33.17,37.02-36.23,48.93-2.53,9.83.55,31.09-.32,42.64-1.21,16.12-11.03,22.57-26.69,21.82-2.25,34.34-50.16,34.43-52.62.03-7.12.15-15-.72-20.36-5.93-11.49-11.16-3.87-42.81-6.31-58.13-.28-1.77-1.23-2.99-2.55-4.1l-33.5,33.14c-26.21,6.58-54.06,20.86-80.05,26.63-5.7,1.27-8.68-1.18-7.2-7.24l27.17-80.95,42.64-43.05c-30.17-61.1-2.79-135.35,59.48-162.18,26.8-11.54,57.31-12.75,84.98-3.56,5.2,1.73,10.01,4.36,15.2,6.03l43.13-42.84c6.33-5.29,15.78-10.21,24.05-11.13,2.55-.28,7.82-.29,10.37,0ZM326.98,22.95c-5.18.63-10.48,3.02-14.63,6.09l45.53,45.53c17.35-23.64-1.88-55.15-30.9-51.62ZM304.56,36.09c-1.67,2.15-13.9,12.92-13.65,14.33l44.72,44.95,1.51.72c1.11,0,13.82-12.64,13.65-13.63l-46.23-46.38ZM283.08,57.57l-14.43,14.43c7.73,5.2,15.3,10.68,21.83,17.39l12.21-12.21-19.61-19.61ZM204.82,64.4c-74.38.91-126.8,76.58-100.41,146.64,12.44,33.02,41.08,54.17,57.57,84.63l87.04.36c1.95-.37,6.44-9.56,8.05-11.95,17.41-25.86,42.19-46.03,52.1-76.77,22.76-70.63-29.94-143.83-104.34-142.91ZM312.34,120.5l1.85-.73,15.12-15.83-19.47-18.93-12.19,12.16c5.54,7.32,11.04,14.83,14.69,23.34ZM105.69,236.04l-37,35.92,19.61,19.61,32.91-33.05-15.51-22.48ZM128.3,266.42l-32.16,32.3,18.93,19.47,29.81-29.35c.65-2.56-14.44-19.12-16.58-22.42ZM104.96,324.16l-41.48-41.85-9.51,27.61.57,2.05,21.33,20.97,1.85-.02,27.23-8.77ZM248.64,306.4h-85.17v18.52h85.17v-18.52ZM64.97,337.49c-4.18-3.8-9.26-11.01-13.69-14.07-.63-.43-.73-1.03-1.86-.73l-6.67,21.47,22.21-6.67ZM164.58,335.28c-2.38,0-.65,12.33.31,14.5,1.97,4.44,7.18,5.24,11.5,5.53,16.59,1.12,43.56,1.28,60.05,0,4.88-.38,9.49-1.39,11.26-6.52.69-2.02,1.99-13.5-.17-13.5h-82.95ZM221.98,365.64h-31.85c1.95,20.51,29.89,20.51,31.85,0Z"/>
    <path class="cls-1" d="M268.07,155.88c1.18,1.41,11.38,2.03,13.88,4.27,3.03,2.71,2.86,22.37,1.12,26.25-1.87,4.17-11.79,3.4-14.41,5.59-.54.45-5.45,12.2-5.58,12.89-.59,3.14,8.13,10.16,5.91,15.58-1.22,2.99-14.85,16.39-17.92,16.95-4.23.78-10.36-6.12-13.27-6.4-.89-.09-13.73,5.38-14.17,6.3-2.05,4.36-.56,12.47-6.62,14.12-4.7,1.28-18.61,1.43-22.98-.39-4.82-2.01-3.74-12.19-6.1-14.64-1.72-1.79-10.13-2.74-12.41-5.44-2.59-.64-10.44,7.63-15.02,6.25-3.18-.96-16.95-14.78-17.63-18.01-.97-4.61,6.61-11.36,6.41-13.77-.06-.71-4.99-12.53-5.45-13.06-2.04-2.4-11.52-1.68-14.03-5.22-2.09-2.95-2.15-13.56-1.9-17.42.26-3.87.42-8.79,4.3-10.51,2.05-.91,10.99-2.28,11.86-3.33,1.31-1.57,2.89-10.58,5.19-12.91-1.09-4.3-7.45-10.04-6.35-14.49.75-3.03,14.3-16.61,17.44-17.43,5.6-1.46,11.25,6.23,14.62,6.22,1.87,0,9.8-5.39,12.96-5.28,1.93-3.04,2.11-12.19,4.65-14.23,3.11-2.5,22.44-2.24,26.27-.4,3.3,1.58,3.5,10.94,5,14.25,3.1.27,11.55,5.69,13.46,5.79,2.51.14,8.92-7.16,13.88-6.52,2.58.33,10.22,7.68,12.3,9.96,2.63,2.87,6.8,6.89,5.74,10.94-.6,2.28-6.46,9.41-6.36,11.17.05.95,2.55,4.95,3.18,6.44s1.59,5.95,2.03,6.48ZM152.15,163.99c-2.21,2.58-12.36,2.88-13.51,4.62-.52.79-.6,8.74-.35,10.04.69,3.53,11.61,2.03,14.25,6.49,1.34,2.26,2.03,6.68,3.18,9.41,1.21,2.88,4.73,8.03,4.85,10.77.34,7.57-12.27,10.39-.42,18.87,4.98,3.57,9.28-4.74,14.8-4.49,2.74.12,7.88,3.65,10.77,4.85,3.36,1.41,9.43,1.9,11.26,5.03,1.68,2.87,1.83,11.87,4.64,12.4,1.28.24,9.33.17,10.05-.34,1.41-.99,1.81-11.06,4.42-13.36,1.64-1.44,7.8-2.67,10.34-3.73,4.23-1.78,8.68-5.75,13.37-4.46,2.54.7,7.5,5.24,9.35,5.43,1.96.2,8.05-5.91,8.31-7.8.37-2.67-6.03-8.47-5.89-12.39.09-2.59,3.66-7.99,4.85-10.79,1.17-2.75,1.99-7.34,3.19-9.4,2.61-4.46,13.56-2.96,14.25-6.49.25-1.3.17-9.25-.35-10.04-1.29-1.94-10.5-1.43-13.39-5.12-1.68-2.14-3.32-9.15-4.65-12.38-1.45-3.51-4.62-5.98-3.69-10.08.77-3.39,7.17-8.54,5.09-12.04-.54-.91-6.14-6.22-7.12-6.31-2.32-.21-8.63,6-12.55,6.01-2.11,0-7.36-3.73-10.01-4.85-3.62-1.52-10.38-2.18-12.15-5.62-1.42-2.76-1.46-11.23-4.49-11.8-1.29-.24-9.33-.17-10.05.34-1.41.99-1.81,11.04-4.42,13.35-1.3,1.15-10.31,3.56-13.07,4.71-2.07.86-5.17,3.38-6.71,3.7-5.58,1.18-11.21-7.61-15.42-5.1-.6.36-6.04,6.05-6.16,6.49-.66,2.55,6.07,8.67,5.88,13.16-.12,2.89-2.36,4.69-3.37,7.06-1.14,2.67-4.08,12.72-5.04,13.85Z"/>
    <path class="cls-1" d="M202.57,134.79c31.56-2.93,53.32,31.31,37.57,59.04-11.69,20.58-39.94,25.96-58.5,11.08-27.73-22.23-14.21-66.86,20.94-70.12ZM203.3,145.15c-19.74,1.9-31.79,23-23.67,41.04,10.11,22.47,43.48,22.29,53.09-.52,8.54-20.29-7.41-42.64-29.41-40.51Z"/>
  </g>
</svg>