<?xml version="1.0" encoding="UTF-8"?>
<svg id="Capa_1" data-name="Capa 1" xmlns="http://www.w3.org/2000/svg" xmlns:xlink="http://www.w3.org/1999/xlink" viewBox="0 0 400 400">
  <defs>
    <style>
      .cls-1 {
        fill: url(#Degradado_sin_nombre_133);
      }
    </style>
    <linearGradient id="Degradado_sin_nombre_133" data-name="Degradado sin nombre 133" x1="62.07" y1="189.09" x2="286.8" y2="189.09" gradientUnits="userSpaceOnUse">
      <stop offset=".07" stop-color="#3ee7b0"/>
      <stop offset=".46" stop-color="#39f6c8"/>
      <stop offset="1" stop-color="#00e1f9"/>
    </linearGradient>
  </defs>
  <circle class="cls-1" cx="174.43" cy="189.09" r="112.36"/>
  <g>
    <path d="M369.69,339.82h0s-40.74-40.74-40.74-40.74c0,0,0,0,0,0l-14.3-14.3s0,0,0,0l-12.62-12.62c-1.72-1.72-4-2.67-6.43-2.67s-4.72.95-6.43,2.66l-.72.72-17.25-17.26c18.6-23.37,29.73-52.95,29.73-85.1,0-37.19-14.89-70.95-39.01-95.61,0,0,.02-.02.03-.03-6.05-6.27-12.67-11.97-19.82-16.99-.43-.3-.89-.53-1.36-.68-5.24-3.55-10.74-6.74-16.47-9.55-.41-.44-.91-.82-1.49-1.09-18.5-8.89-38.36-13.4-59.04-13.4-75.25,0-136.48,61.22-136.48,136.48,0,37.69,15.36,71.86,40.14,96.58.78.8,1.57,1.58,2.37,2.36l-6.81,3.92c-.4.23-.87.27-1.27.11-2.26-.91-5.59-1.98-9.92-3.19-5.09-1.41-10.49.8-13.14,5.37l-4.57,7.9c-2.65,4.59-1.86,10.38,1.94,14.09,3.19,3.12,5.79,5.46,7.7,6.94.35.27.55.69.55,1.15v9.73c0,.45-.2.88-.54,1.15-2.45,1.91-5.54,4.84-7.7,6.95-3.79,3.71-4.58,9.5-1.93,14.09l4.57,7.89c2.65,4.56,8.05,6.77,13.15,5.36,4.32-1.2,7.65-2.28,9.9-3.19.41-.17.88-.13,1.28.1l8.46,4.88c.39.23.66.61.72,1.04.43,3.01,1.42,7.16,2.18,10.13,1.33,5.12,5.95,8.7,11.24,8.7h9.15c5.29,0,9.9-3.58,11.23-8.7.76-2.93,1.75-7.07,2.19-10.14.06-.42.33-.81.72-1.04l8.46-4.87c.39-.23.87-.26,1.26-.11,2.83,1.14,6.95,2.36,9.92,3.19,5.09,1.41,10.5-.79,13.14-5.36l4.57-7.9c2.65-4.59,1.86-10.38-1.93-14.08-2.16-2.12-5.25-5.04-7.71-6.96-.34-.26-.54-.69-.54-1.14v-9.73c0-.24.06-.47.16-.68,9.17,1.96,18.67,2.99,28.41,2.99,32.2,0,61.83-11.26,85.17-30.06l17.2,17.19-.72.72c-1.72,1.72-2.67,4-2.67,6.43s.95,4.72,2.66,6.43l12.63,12.63,14.3,14.3,10.69,10.69c1.97,1.97,5.17,1.97,7.15,0,1.97-1.97,1.97-5.17,0-7.15l-7.12-7.12,21.44-21.44,36.46,36.46-21.44,21.45-14.1-14.1c-1.97-1.97-5.17-1.97-7.15,0-1.97,1.97-1.97,5.17,0,7.15l14.82,14.82c1.72,1.72,4,2.67,6.43,2.67s4.72-.95,6.43-2.66l22.87-22.87c1.72-1.72,2.67-4,2.67-6.43,0-2.43-.94-4.72-2.66-6.43ZM288.97,187.54s-.07-.03-.11-.04c-8.69,61.68-61.62,108.5-125.11,108.5-14.91,0-29.22-2.6-42.51-7.36-47.9-17.74-82.15-64-82.15-118.14,0-69.41,56.31-125.89,125.51-125.89s125.51,56.47,125.51,125.89c0,5.78-.4,11.47-1.16,17.05ZM130.37,323.69h0c1.62,1.27,4.06,3.48,6.86,6.21.48.47.59,1.21.25,1.79l-4.57,7.89c-.34.59-1.03.87-1.69.69-3.83-1.07-6.97-2.07-8.84-2.82-3.31-1.33-6.99-1.07-10.1.72l-8.46,4.87c-3.07,1.77-5.2,4.91-5.68,8.39-.29,2.02-.98,5.22-1.96,9.01-.17.66-.76,1.12-1.44,1.12h-9.15c-.68,0-1.28-.46-1.45-1.11-.98-3.83-1.68-7.03-1.96-9.03-.51-3.54-2.58-6.6-5.69-8.38l-8.45-4.87c-3.11-1.79-6.79-2.05-10.11-.72-1.88.76-4.93,1.74-8.82,2.82-.66.18-1.36-.1-1.7-.69l-4.57-7.89c-.34-.58-.23-1.32.25-1.8,2.79-2.74,5.23-4.94,6.84-6.21,2.78-2.16,4.44-5.57,4.44-9.12v-9.73c0-3.59-1.61-6.91-4.44-9.12-1.58-1.23-4.01-3.43-6.85-6.2-.49-.48-.59-1.22-.25-1.8l4.57-7.89c.34-.59,1.04-.87,1.69-.69,3.9,1.09,6.95,2.06,8.84,2.83,3.31,1.33,6.99,1.07,10.1-.72l8.44-4.87c.4-.23.78-.49,1.14-.77,2.87,2.39,5.84,4.67,8.9,6.82-13.49,1.78-23.95,13.33-23.95,27.27,0,2.79,2.26,5.05,5.05,5.05s5.05-2.26,5.05-5.05c0-9.6,7.84-17.42,17.47-17.42s17.47,7.81,17.47,17.42-7.84,17.42-17.47,17.42c-3.81,0-7.42-1.2-10.46-3.46-2.24-1.67-5.41-1.21-7.07,1.03-1.67,2.24-1.21,5.41,1.03,7.07,4.79,3.58,10.5,5.47,16.5,5.47,15.21,0,27.58-12.35,27.58-27.53,0-4.27-1-8.32-2.75-11.93,3.72,1.46,7.52,2.76,11.39,3.9-.29,1.02-.44,2.08-.44,3.17v9.73c0,3.55,1.66,6.95,4.43,9.11ZM257.45,270.47c2.46-2.3,4.84-4.69,7.13-7.17l16.71,16.71-7.15,7.15-16.69-16.69ZM274.14,301.45l21.45-21.44,8.34,8.34-21.45,21.44-8.34-8.34ZM296.77,324.09l-7.15-7.15,21.45-21.44,7.15,7.15-21.44,21.45Z"/>
    <path d="M230.1,190.32h-29.31l-16.77-42.87c-.76-1.94-2.63-3.21-4.71-3.21h-.05c-2.1.02-3.97,1.33-4.69,3.3l-24.47,65.98-17.72-50.23c-.66-1.87-2.36-3.19-4.34-3.35-1.98-.17-3.87.84-4.84,2.57l-15.53,27.81h-15.52c-2.79,0-5.05,2.26-5.05,5.05s2.26,5.05,5.05,5.05h18.49c1.83,0,3.52-.99,4.41-2.59l11.52-20.63,18.64,52.85c.71,2.01,2.6,3.36,4.73,3.37h.04c2.11,0,4-1.31,4.74-3.3l24.71-66.64,13.19,33.73c.76,1.94,2.63,3.21,4.71,3.21h32.76c2.79,0,5.05-2.26,5.05-5.05s-2.26-5.06-5.05-5.06Z"/>
    <path d="M238.96,81.49c.09-.07.17-.14.26-.2-20.94-17.87-47.76-27.91-75.46-27.91-64.11,0-116.26,52.15-116.26,116.26s52.15,116.26,116.26,116.26c27.4,0,52.61-9.53,72.5-25.44,26.74-21.12,43.95-53.88,43.95-90.59s-16.05-67.22-41.25-88.38ZM165.25,274.35c-57.44,0-104.17-46.87-104.17-104.49s46.73-104.48,104.17-104.48,104.17,46.87,104.17,104.48-46.73,104.49-104.17,104.49Z"/>
  </g>
</svg>