<?xml version="1.0" encoding="UTF-8"?>
<svg id="Capa_1" data-name="Capa 1" xmlns="http://www.w3.org/2000/svg" xmlns:xlink="http://www.w3.org/1999/xlink" viewBox="0 0 400 400">
  <defs>
    <style>
      .cls-1 {
        fill: url(#Degradado_sin_nombre_4);
      }
    </style>
    <linearGradient id="Degradado_sin_nombre_4" data-name="Degradado sin nombre 4" x1="39.49" y1="199.15" x2="318.39" y2="199.15" gradientUnits="userSpaceOnUse">
      <stop offset=".07" stop-color="#3ee9b2"/>
      <stop offset=".46" stop-color="#39f8cb"/>
      <stop offset="1" stop-color="#00e3fb"/>
    </linearGradient>
  </defs>
  <rect class="cls-1" x="39.49" y="113.4" width="278.9" height="171.51" rx="12" ry="12"/>
  <g>
    <path d="M25.86,84.23c2.75-12.23,11.58-21.58,24.24-23.21l300.43-.03c13.53,1.3,23.79,12.18,24.92,25.6l-.03,195.28c-.68,11.63-13.09,24.93-24.91,24.93h-112.31l6.92,21.07c5.9,1,14.24-2.53,17.35,4.16-.38,10.76,1.56,24.04.32,34.53-.4,3.37-2.94,5.88-6.47,5.82l-113.75-.34c-1.94-.92-3.67-2.61-4.02-4.85-1.59-10.06.99-24.14.11-34.64,2.69-7.35,11.48-3.68,17.51-4.68l6.92-21.07H50.78c-1.76,0-7.63-1.94-9.47-2.82-8.59-4.07-12.99-11.53-15.45-20.4V84.23ZM50.26,74.84c-6.23,1.56-10.52,6.64-10.77,13.13v191.9c.56,7.41,6.65,13.05,14,13.31h294.31c7.31-.2,13.53-6.05,14-13.31V87.96c-.24-7.04-5.57-12.8-12.63-13.32l-298.91.19ZM230.68,327.97l-6.26-20.03-1-1.04-46.02.22-6.8,20.85h60.08ZM249.12,341.63h-96.95v17.07h96.95v-17.07Z"/>
    <path d="M69.4,88.52l259.97-.22c8.03.12,15.25,4.42,17.87,12.17,1.45,54.46,1.45,109.7,0,164.16-1.48,4.91-6.35,9.78-11.27,11.27-34.77,2.03-70.02.29-104.97.89-7.1-.67-8.86-9.57-2.88-13.15,34.39-1.4,69.17.22,103.64-.82,2.07-.67,2.79-2.75,2.72-4.79l-.33-153.35c-.82-2.49-3.87-2.69-6.16-2.72H72.6c-3.15.26-5.67.71-5.79,4.46l-.02,151.61c-.07,2.04.66,4.12,2.72,4.79,34.47,1.04,69.25-.58,103.64.82,5.98,3.58,4.22,12.48-2.88,13.15h-100.4c-7.26-.46-13.46-5.35-15.83-12.15-2.04-52.99-.27-106.44-.9-159.6.58-8.86,7.48-15.66,16.26-16.51Z"/>
    <path d="M308.99,183.44c5.13,4.68.11,10.52-3.88,13.79,0,.94,11.78,10.97,13.27,13.34,2.73,4.34.3,7.18-2.38,10.53-5.1,6.38-11.82,12.14-16.69,18.81-8.24,6.97-17.33-9.5-23.23-13.66-3.84,5.58-12.04,8.8-15.19.84-2.26-5.71-3.41-13.88-4.96-19.96l-10.73,5.99c-12.94,4.55-29.2-3.98-30.84-18.01-.69-5.88-.98-31.46.22-36.5,1.81-7.61,12.6-6.9,13.39,1.72.94,10.24-1.53,23.73,0,33.45,1.3,8.24,15.32,9.12,18.77,1.78l.35-35.84c1.07-5.23,6.39-8.35,11.13-5.08s.84,13.36,3.15,15.29c13.84,4.58,29.36,6.84,43.03,11.59,1.27.44,3.66,1.1,4.57,1.92ZM294.85,224.88c.27-2.28,8.44-8.89,8.16-10.49-4.08-6.43-19.61-13.46-12.26-21.94l-26.61-7.16,6.83,26.62c9.56-7.35,16.77,8.5,23.88,12.97Z"/>
    <path d="M160.18,154.03c3.13-.63,12.11-.46,15.54-.15,31.14,2.85,31.35,53.14,3.93,59.21-4.81,1.07-17.58,1.73-21.82-.36-2.86-1.41-3.39-5.08-3.63-7.97-1.19-13.97.95-29.58,0-43.74.32-3.27,2.72-6.34,5.98-7ZM167.87,199.62c6.18-.06,10.5,1.26,14.69-4.08,4.78-6.08,4.65-21.91-2.43-26.27-2.16-1.33-12.26-3.04-12.26-.71v31.06Z"/>
    <path d="M128.61,200.3c6.74,1.35,7.43,11.95.54,13.51-2.58.58-21.02.58-23.61,0-2.29-.51-4.58-3.25-4.6-5.64,1.1-15.4-1.41-32.67-.02-47.84.23-2.49,1.7-5.91,4.49-6.44,2.81-.54,21.68-.45,24.4.17,4.42,1,5.56,8.5,2.24,11.45-.65.57-4.19,2.02-4.8,2.02h-12.63v9.56h13.31c3.63,0,6.08,7.9,3.09,11.28-.4.46-3.54,2.37-3.77,2.37h-12.63v9.56c4.12.57,10.16-.77,14,0Z"/>
    <path d="M199.1,263.26c7.4-1.42,11.62,7.7,5.3,12.14-8.96,6.29-15.52-10.19-5.3-12.14Z"/>
  </g>
</svg>