<?xml version="1.0" encoding="UTF-8"?>
<svg id="Capa_1" data-name="Capa 1" xmlns="http://www.w3.org/2000/svg" xmlns:xlink="http://www.w3.org/1999/xlink" viewBox="0 0 400 400">
  <defs>
    <style>
      .cls-1 {
        fill: url(#Degradado_sin_nombre_4);
      }
    </style>
    <linearGradient id="Degradado_sin_nombre_4" data-name="Degradado sin nombre 4" x1="94.87" y1="261.15" x2="296.27" y2="261.15" gradientUnits="userSpaceOnUse">
      <stop offset=".07" stop-color="#3ee9b2"/>
      <stop offset=".46" stop-color="#39f8cb"/>
      <stop offset="1" stop-color="#00e3fb"/>
    </linearGradient>
  </defs>
  <circle class="cls-1" cx="195.57" cy="261.15" r="100.7"/>
  <g>
    <path d="M177.52,209.31h10.44c1.07,0,3.45,2.83,3.12,4.22-1.22,21.69,1.6,45.09-.02,66.57-1.78,23.66-23.13,39.52-46.26,37.8l-50.99,21.65c-1.01-.23-3.17-6.7-3.74-8.1l41.75-18.06c-13.3-7.79-22.28-21.16-22-36.95l-15.52,8.99-4.75-7.59,21.71-12.66c3.39-9.8,9.62-16.69,17.5-23.12l12.91-120.23c.62-1.51,1.83-2.5,3.45-2.76,5.38-.84,21.87-.58,27.64-.06,1.61.15,4.77,1.27,4.77,3.13v87.16ZM168.49,128.07h-18.62l-2.82,27.08h21.44v-27.08ZM168.49,164.18h-22.57l-2.82,27.08h25.39v-27.08ZM168.49,200.28h-26.51l-3.95,37.79c5.57-1.3,11.17-2.02,16.92-1.69v-23.98c0-.66,2.44-3.1,3.1-3.1h10.44v-9.03ZM182.03,218.33h-18.05v20.03c7.05,3.12,12.72,7.18,18.05,12.69v-32.72ZM146.94,245.58c-43.34,4.61-32.72,72.08,10.85,62.19,37.5-8.51,28.72-66.4-10.85-62.19Z"/>
    <path d="M245.21,267.98h-9.03v-42.59c0-.23-1.15-2.64-1.43-3.08-4.36-6.71-14.9-4.56-16.48,3.21.93,19.89-1.7,41.7-.16,61.38,1.76,22.32,27.47,22.34,44.14,22.99l47.79,21.32c.79,1.12-3.34,6.67-3.35,8.41l-46.92-21.05c-21.79.89-48.72-4.93-50.69-31.11-1.51-20.15,1.13-42.23.08-62.58,1.06-5.37,3.93-9.98,8.57-12.86,1.48-.92,4.6-1.38,4.91-2.99l-.03-73.93c1.39-18.66,25.82-22,32.59-4.9l19.5,115.89c3.14,16.54,22.68,21.63,34.78,30.67.49.37,1.1.62.93,1.4-.11.49-4.13,7.29-4.56,7.3l-30.45-19.75c-5.7-5.47-8.11-11.47-9.71-19.06-7.96-37.73-11.14-77.41-19.81-115.02-4.05-6.11-12.48-3.87-14.18,2.97l-.07,73.9c-.06,2.27,3.12,2.4,4.93,3.53,3.53,2.19,8.64,8.55,8.64,12.8v43.16Z"/>
    <path d="M233.08,68.87c1.15.99,7.24,4.62,7.02,5.82l-19.42,24.61c-.83-1.59-6.63-4.45-6.42-5.81l18.82-24.62Z"/>
    <rect x="195.57" y="60.38" width="9.03" height="31.59"/>
    <path d="M167.35,68.84l18.57,24.63c.14.97-5.96,4.82-7,5.82l-18.82-24.64c-.14-.91,6.75-6.18,7.25-5.81Z"/>
    <path d="M148.05,261.36c21.43-3.06,24.75,29.27,4.31,31.38-20.96,2.16-24.07-28.56-4.31-31.38ZM149.17,270.36c-8.11,1.32-6.74,14.22,2.04,13.39,8.74-.83,7.37-14.92-2.04-13.39Z"/>
  </g>
</svg>