<?xml version="1.0" encoding="UTF-8"?>
<svg id="Capa_1" xmlns="http://www.w3.org/2000/svg" version="1.1" viewBox="0 0 20 20">
  <!-- Generator: Adobe Illustrator 29.8.3, SVG Export Plug-In . SVG Version: 2.1.1 Build 3)  -->
  <defs>
    <style>
      .st0 {
        fill: #006ab3;
      }

      .st1 {
        fill: #fff;
      }

      .st2 {
        fill: #e42829;
      }
    </style>
  </defs>
  <path class="st0" d="M14.59,19.52H5.41c-.9,0-1.6-.77-1.52-1.66l1.12-12.1c.07-.78.73-1.38,1.52-1.38h6.94c.79,0,1.44.6,1.52,1.38l1.12,12.1c.08.89-.62,1.66-1.52,1.66Z"/>
  <g>
    <path class="st1" d="M11.49,14.52c-.34.19-.69.3-1.06.34-.37.04-.72.02-1.07-.07-.35-.09-.66-.24-.95-.46s-.52-.49-.7-.82c-.18-.33-.29-.67-.32-1.03-.03-.35,0-.7.11-1.03.11-.34.27-.64.5-.93.23-.28.51-.51.84-.7.26-.14.54-.25.82-.31.29-.06.56-.08.83-.05l.1,1.36c-.12-.03-.24-.04-.36-.04-.12,0-.24.02-.36.05-.12.03-.24.08-.36.14-.24.13-.42.3-.54.51s-.17.42-.17.65c0,.23.06.45.18.66.12.22.29.4.49.53.2.13.42.19.65.21.23.01.46-.05.69-.17.19-.1.35-.23.48-.39.13-.16.22-.3.26-.42l1.09.84c-.11.19-.26.39-.46.59-.2.21-.44.39-.72.54"/>
    <path class="st1" d="M10.31,17.05c-.06,0-.13-.03-.14-.1-.01-.07.03-.13.1-.15.03,0,.07-.01.1-.02.14-.03.26-.05.39-.09l.25-.08.4-.17s.06-.03.09-.05l.29-.16s.02-.02.04-.02l.32-.21.27-.22c.34-.31.64-.66.88-1.06.23-.38.39-.81.5-1.28l.05-.26s0-.03,0-.04l.04-.38v-.12c0-.2,0-.38-.02-.57,0-.07.04-.13.1-.14,0,0,0,0,0,0,.07,0,.13.04.14.11.03.2.03.41.02.61v.12s0,0,0,.01l-.04.39s0,.04,0,.06l-.06.27c-.11.5-.29.96-.53,1.36-.25.42-.56.8-.93,1.12l-.28.23s0,0,0,0l-.32.22s-.04.02-.05.03l-.3.16s-.07.04-.11.06l-.41.17s0,0-.01,0l-.25.08c-.14.05-.28.08-.42.1-.03,0-.07.01-.1.02,0,0,0,0,0,0"/>
    <path class="st1" d="M11.2,17.34s-.03,0-.05,0c-.16-.04-.31-.08-.47-.13-.14-.05-.27-.1-.4-.16l-.04-.02s-.07-.05-.07-.09c0-.04,0-.08.03-.11l.04-.04c.09-.09.18-.18.26-.28.08-.11.17-.22.25-.33.04-.06.12-.07.17-.03.06.04.07.12.03.17-.08.12-.17.23-.26.35-.06.07-.12.14-.18.2.08.03.17.07.25.09.14.04.3.08.45.12.07.02.11.08.09.15-.01.05-.05.09-.1.09"/>
    <path class="st1" d="M9.69,7.87c.06,0,.13.03.14.1.01.07-.03.13-.1.15-.03,0-.07.01-.1.02-.14.03-.26.05-.39.09l-.25.08-.4.17s-.06.03-.09.05l-.29.16s-.02.02-.04.02l-.32.21-.27.22c-.34.31-.64.66-.88,1.06-.23.38-.39.81-.5,1.28l-.05.26s0,.03,0,.04l-.04.38v.12c0,.2,0,.38.02.57,0,.07-.04.13-.1.14,0,0,0,0,0,0-.07,0-.13-.04-.14-.11-.03-.2-.03-.41-.02-.61v-.12s0,0,0-.01l.04-.39s0-.04,0-.06l.06-.27c.11-.5.29-.96.53-1.36.25-.42.56-.8.93-1.12l.28-.23s0,0,0,0l.32-.22s.04-.02.05-.03l.3-.16s.07-.04.11-.06l.41-.17s0,0,.01,0l.25-.08c.14-.05.28-.08.42-.1.03,0,.07-.01.1-.02,0,0,0,0,0,0"/>
    <path class="st1" d="M8.8,7.58s.03,0,.05,0c.16.04.31.08.47.13.14.05.27.1.4.16l.04.02s.07.05.07.09c0,.04,0,.08-.03.11l-.04.04c-.09.09-.18.18-.26.28-.08.11-.17.22-.25.33-.04.06-.12.07-.17.03-.06-.04-.07-.12-.03-.17.08-.12.17-.23.26-.35.06-.07.12-.14.18-.2-.08-.03-.17-.07-.25-.09-.14-.04-.3-.08-.45-.12-.07-.02-.11-.08-.09-.15.01-.05.05-.09.1-.09"/>
  </g>
  <path class="st2" d="M12.49,3.98c-.08,0-.14-.06-.14-.14,0-1.7-1.1-3.08-2.45-3.08s-2.45,1.38-2.45,3.08c0,.08-.06.14-.14.14s-.14-.06-.14-.14c0-1.86,1.23-3.37,2.74-3.37s2.74,1.51,2.74,3.37c0,.08-.06.14-.14.14Z"/>
  <path class="st2" d="M13.01,3.43s0,.02-.01.04c-.07.11-.14.23-.22.33-.07.1-.15.19-.23.27l-.02.03s-.06.04-.09.03c-.03,0-.06-.02-.08-.05l-.02-.04c-.05-.1-.1-.19-.15-.27-.06-.09-.13-.19-.2-.28-.03-.05-.02-.11.02-.14.05-.03.11-.02.14.02.07.09.14.19.21.29.04.06.08.13.11.2.05-.06.1-.11.14-.17.07-.1.14-.21.21-.32.03-.05.09-.06.14-.03.04.02.05.06.05.1"/>
</svg>