<?xml version="1.0" encoding="UTF-8"?>
<svg id="Capa_1" data-name="Capa 1" xmlns="http://www.w3.org/2000/svg" xmlns:xlink="http://www.w3.org/1999/xlink" viewBox="0 0 800 500">
  <defs>
    <style>
      .cls-1 {
        fill: #e1e4ed;
      }

      .cls-2 {
        font-family: Montserrat-ExtraBold, Montserrat;
        font-size: 62.24px;
        font-weight: 700;
      }

      .cls-3 {
        fill: url(#Degradado_sin_nombre_4-2);
      }

      .cls-4 {
        fill: url(#Degradado_sin_nombre_4);
      }

      .cls-5 {
        opacity: .31;
      }

      .cls-6 {
        fill: #f6fafd;
      }

      .cls-7 {
        fill: url(#Degradado_sin_nombre_53);
      }

      .cls-8 {
        fill: #dcdfeb;
      }
    </style>
    <linearGradient id="Degradado_sin_nombre_4" data-name="Degradado sin nombre 4" x1="232.23" y1="187.36" x2="294.84" y2="187.36" gradientUnits="userSpaceOnUse">
      <stop offset=".07" stop-color="#3ee9b2"/>
      <stop offset=".46" stop-color="#39f8cb"/>
      <stop offset="1" stop-color="#00e3fb"/>
    </linearGradient>
    <linearGradient id="Degradado_sin_nombre_4-2" data-name="Degradado sin nombre 4" x1="169.62" x2="232.23" xlink:href="#Degradado_sin_nombre_4"/>
    <linearGradient id="Degradado_sin_nombre_53" data-name="Degradado sin nombre 53" x1="-261.46" y1="-171.42" x2="-261.46" y2="21.59" gradientTransform="translate(659.41 463.61)" gradientUnits="userSpaceOnUse">
      <stop offset="0" stop-color="#3ee9b2"/>
      <stop offset=".38" stop-color="#03e4f8"/>
      <stop offset=".64" stop-color="#01e3f9" stop-opacity=".56"/>
      <stop offset=".89" stop-color="#00e3fa" stop-opacity=".16"/>
      <stop offset="1" stop-color="#00e3fb" stop-opacity="0"/>
    </linearGradient>
  </defs>
  <image class="cls-5" width="6016" height="4016" transform="translate(-.52) scale(.13)" xlink:href="../../close-up-female-hand-using-digital-tablet-tablet.jpg"/>
  <g>
    <text class="cls-2" transform="translate(314.96 239.81)"><tspan x="0" y="0">Manuales</tspan></text>
    <g>
      <path d="M320.3,130.85h8.29s0,21.93,0,21.93h14.2s0-21.93,0-21.93h8.29s0,49.73,0,49.73h-8.29s0-20.49,0-20.49h-14.2s0,20.49,0,20.49h-8.29s0-49.73,0-49.73Z"/>
      <path d="M390.53,163.75v-10.96c0-9.14-6.61-15.33-15.75-15.33-8.44,0-15.75,6.89-15.75,15.33v13.17c0,9.14,6.61,15.33,15.75,15.33,4.2,0,8.12-1.71,11-4.47l-5.25-5.25c-1.39,1.49-3.38,2.41-5.75,2.41-4.5,0-7.87-3.52-7.87-8.02v-2.21h23.62ZM367.06,152.78c0-4.64,3.23-8.01,7.73-8.01,4.64,0,7.87,3.37,7.87,8.01v3.65h-15.61v-3.65Z"/>
      <path d="M398.48,149.13c0-6.47,4.64-10.97,10.97-10.97h2.81v7.31h-2.25c-2.11,0-3.66,1.41-3.66,3.66v31.45s-7.87,0-7.87,0v-31.45Z"/>
      <path d="M419.06,127.12c0-2.67,2.18-4.85,4.85-4.85,2.67,0,4.85,2.18,4.85,4.85,0,2.67-2.18,4.85-4.85,4.85-2.67,0-4.85-2.18-4.85-4.85ZM419.83,138.16h7.87s.07,42.42.07,42.42h-7.87s-.07-42.42-.07-42.42Z"/>
      <path d="M435.43,165.95v-13.17c0-8.44,7.31-15.33,15.75-15.33,4.36,0,7.87,1.27,10.96,4.36l-5.2,5.2c-1.54-1.41-3.51-2.25-5.76-2.25-4.5,0-7.88,3.37-7.88,8.01v13.17c0,4.5,3.38,8.02,7.88,8.02,2.25,0,4.22-.98,5.76-2.39l5.06,5.06c-2.81,2.95-6.75,4.64-10.82,4.64-9.14,0-15.61-6.19-15.75-15.33Z"/>
      <path d="M467.24,147.66c0-6.47,4.64-10.97,10.97-10.97h2.81v7.31h-2.25c-2.11,0-3.65,1.41-3.65,3.66v31.45s-7.87,0-7.87,0v-31.45Z"/>
      <path d="M525.1,145.47h-3.94v-7.31h3.94s0-4.36,0-4.36c0-6.47,4.64-10.97,10.97-10.97h1.27v7.31h-.7c-2.11,0-3.65,1.4-3.65,3.65v4.36s4.52,0,4.52,0v7.31h-4.52s0,35.11,0,35.11h-7.88s0-35.11,0-35.11Z"/>
      <polygon points="549.09 145.47 545.15 145.47 545.15 138.16 549.09 138.16 549.09 122.83 556.97 122.83 556.97 138.16 560.9 138.16 560.9 145.47 556.97 145.47 556.97 180.58 549.09 180.58 549.09 145.47"/>
      <path d="M499.94,137.45c-4.22,0-8.26,1.61-11.21,4.4l4.97,4.97c1.41-1.55,3.47-2.48,5.96-2.48,4.78,0,8.01,3.65,8.01,8.44v1.22h-.14c-2.25-1.83-4.92-2.81-8.15-2.81-8.44,0-15.47,6.61-15.47,15.04,0,9.14,6.33,15.05,15.05,15.05,3.65,0,7.03-1.27,8.72-3.23v2.53s7.73,0,7.73,0v-27.8c0-9.14-6.33-15.33-15.47-15.33ZM499.66,174.25c-4.5,0-7.88-3.52-7.88-8.02,0-4.64,3.38-8.01,7.88-8.01s7.87,3.37,7.87,8.01c0,4.5-3.23,8.02-7.87,8.02Z"/>
    </g>
    <g id="_20-manual" data-name=" 20-manual">
      <path class="cls-4" d="M294.84,144.95v84.83c0,4.46-3.62,8.08-8.08,8.08h-54.53v-8.08h46.45v-12.06c2-.04,4.02-.06,6.06-.06v-80.79h2.02c4.46,0,8.08,3.62,8.08,8.08Z"/>
      <path class="cls-1" d="M278.68,217.72c-17.77.42-33.75,2.99-46.45,12.06v-88.86c14.14-10.1,32.31-12.12,52.51-12.12v88.86c-2.04,0-4.06.02-6.06.06Z"/>
      <path class="cls-8" d="M278.68,217.72v12.06h-46.45c12.7-9.07,28.68-11.63,46.45-12.06Z"/>
      <path class="cls-3" d="M232.23,229.77v8.08h-54.53c-4.46,0-8.08-3.62-8.08-8.08v-84.83c0-4.46,3.62-8.08,8.08-8.08h2.02v80.79c2.04,0,4.06.02,6.06.06v12.06h46.45Z"/>
      <path class="cls-6" d="M185.78,217.72c-2-.04-4.02-.06-6.06-.06v-88.86c20.2,0,38.37,2.02,52.51,12.12v88.86c-12.7-9.07-28.68-11.63-46.45-12.06Z"/>
      <path class="cls-8" d="M232.23,229.77h-46.45v-12.06c17.77.42,33.75,2.99,46.45,12.06Z"/>
      <path class="cls-8" d="M294.84,217.66v8.08h-6.52c-.45,1.99-1.24,3.89-2.34,5.61l4.62,4.62-5.72,5.72-4.62-4.62c-1.72,1.1-3.62,1.89-5.61,2.34v6.52h-8.08v-6.52c-1.99-.45-3.89-1.24-5.61-2.34l-4.62,4.62-5.72-5.72,4.62-4.62c-1.1-1.72-1.89-3.62-2.34-5.61h-6.52v-8.08h6.52c.45-1.99,1.24-3.89,2.34-5.61l-4.62-4.62,5.72-5.72,4.62,4.62c1.72-1.1,3.62-1.89,5.61-2.34v-6.52h8.08v6.52c1.99.45,3.89,1.24,5.61,2.34l4.62-4.62,5.72,5.72-4.62,4.62c1.1,1.72,1.89,3.62,2.34,5.61h6.52ZM280.7,221.69c0-5.58-4.52-10.1-10.1-10.1s-10.1,4.52-10.1,10.1,4.52,10.1,10.1,10.1,10.1-4.52,10.1-10.1Z"/>
      <path d="M189.73,201.5c13.75.61,23.49,2.42,31.61,5.9l1.59-3.71c-8.58-3.67-18.77-5.59-33.02-6.22l-.18,4.04Z"/>
      <path d="M189.73,191.4c13.75.61,23.49,2.42,31.61,5.9l1.59-3.71c-8.58-3.67-18.77-5.59-33.02-6.22l-.18,4.04Z"/>
      <path d="M189.73,181.3c13.75.61,23.49,2.42,31.61,5.9l1.59-3.71c-8.58-3.67-18.77-5.59-33.02-6.22l-.18,4.04Z"/>
      <path d="M189.73,171.2c13.75.61,23.49,2.42,31.61,5.9l1.59-3.71c-8.58-3.67-18.77-5.59-33.02-6.22l-.18,4.04Z"/>
      <path d="M189.73,161.11c13.75.61,23.49,2.42,31.61,5.9l1.59-3.71c-8.58-3.67-18.77-5.59-33.02-6.22l-.18,4.04Z"/>
      <path d="M222.92,153.19c-8.58-3.67-18.77-5.59-33.02-6.22l-.18,4.04c13.75.61,23.49,2.42,31.61,5.9l1.59-3.71Z"/>
      <path d="M243.12,197.3c8.11-3.47,17.86-5.29,31.61-5.9l-.18-4.04c-14.26.63-24.44,2.55-33.02,6.22l1.59,3.71Z"/>
      <path d="M243.12,187.2c8.11-3.47,17.86-5.29,31.61-5.9l-.18-4.04c-14.26.63-24.44,2.55-33.02,6.22l1.59,3.71Z"/>
      <path d="M243.12,177.1c8.11-3.47,17.86-5.29,31.61-5.9l-.18-4.04c-14.26.63-24.44,2.55-33.02,6.22l1.59,3.71Z"/>
      <path d="M243.12,167c8.11-3.47,17.86-5.29,31.61-5.9l-.18-4.04c-14.26.63-24.44,2.55-33.02,6.22l1.59,3.71Z"/>
      <path d="M274.55,146.97c-14.26.63-24.44,2.55-33.02,6.22l1.59,3.71c8.11-3.47,17.86-5.29,31.61-5.89l-.18-4.04Z"/>
      <path d="M286.76,134.85v-6.06c0-1.12-.9-2.02-2.02-2.02-18.32,0-37.33,1.44-52.51,11.68-15.19-10.24-34.19-11.68-52.51-11.68-1.12,0-2.02.9-2.02,2.02v6.06c-5.57,0-10.09,4.52-10.1,10.1v84.83c0,5.57,4.52,10.09,10.1,10.1h66.65v-4.04h-10.1v-4.98c2.79-1.9,5.77-3.53,8.87-4.86l-1.59-3.71c-2.52,1.09-4.95,2.37-7.28,3.82v-84.11c13.79-9.42,31.33-11.06,48.47-11.18v64.63h4.04v-56.55c3.35,0,6.06,2.71,6.06,6.06v56.55h4.04v-56.55c0-5.57-4.52-10.09-10.1-10.1ZM187.8,219.8c13.08.42,26.11,2.15,37.25,7.95h-37.25v-7.95ZM181.74,130.81c17.14.11,34.68,1.75,48.47,11.17v84.06c-14.26-8.72-31.58-10.29-48.47-10.41v-84.83ZM177.7,235.83c-3.35,0-6.06-2.71-6.06-6.06v-84.83c0-3.35,2.71-6.06,6.06-6.06v78.77c0,1.12.9,2.02,2.02,2.02,1.35,0,2.69.01,4.04.03v10.07c0,1.12.9,2.02,2.02,2.02h44.43v4.04h-52.51Z"/>
      <path d="M294.84,215.64h-4.98c-.35-1.13-.81-2.22-1.36-3.27l3.52-3.52c.79-.79.79-2.07,0-2.86l-5.71-5.71c-.79-.79-2.07-.79-2.86,0l-3.52,3.52c-1.05-.55-2.14-1-3.27-1.36v-4.98c0-1.12-.9-2.02-2.02-2.02h-8.08c-1.12,0-2.02.9-2.02,2.02v4.98c-1.13.36-2.22.81-3.27,1.36l-3.52-3.52c-.79-.79-2.07-.79-2.86,0l-5.71,5.71c-.79.79-.79,2.07,0,2.86l3.52,3.52c-.55,1.05-1,2.14-1.36,3.27h-4.98c-1.12,0-2.02.9-2.02,2.02v8.08c0,1.12.9,2.02,2.02,2.02h4.98c.35,1.13.81,2.22,1.36,3.27l-3.52,3.52c-.79.79-.79,2.07,0,2.86l5.71,5.71c.79.79,2.07.79,2.86,0l3.52-3.52c1.05.55,2.14,1,3.27,1.36v4.98c0,1.12.9,2.02,2.02,2.02h8.08c1.12,0,2.02-.9,2.02-2.02v-4.98c1.13-.35,2.22-.81,3.27-1.36l3.52,3.52c.79.79,2.07.79,2.86,0l5.71-5.71c.79-.79.79-2.07,0-2.86l-3.52-3.52c.55-1.05,1-2.14,1.36-3.27h4.98c1.12,0,2.02-.9,2.02-2.02v-8.08c0-1.12-.9-2.02-2.02-2.02ZM292.82,223.71h-4.5c-.94,0-1.76.65-1.97,1.57-.4,1.77-1.11,3.46-2.07,5-.5.8-.39,1.84.28,2.5l3.19,3.19-2.86,2.86-3.19-3.19c-.67-.67-1.71-.78-2.5-.28-1.54.97-3.23,1.68-5,2.08-.92.21-1.57,1.02-1.57,1.96v4.5h-4.04v-4.5c0-.94-.65-1.76-1.57-1.97-1.77-.4-3.46-1.11-5-2.07-.8-.5-1.84-.39-2.5.28l-3.19,3.19-2.86-2.86,3.19-3.19c.67-.67.78-1.71.28-2.5-.97-1.54-1.67-3.23-2.07-5-.21-.92-1.03-1.57-1.97-1.57h-4.5v-4.04h4.5c.94,0,1.76-.65,1.97-1.57.4-1.77,1.11-3.46,2.07-5,.5-.8.39-1.84-.28-2.5l-3.19-3.19,2.86-2.86,3.19,3.19c.67.67,1.7.78,2.5.28,1.54-.97,3.23-1.67,5-2.08.92-.21,1.57-1.03,1.57-1.97v-4.5h4.04v4.5c0,.94.65,1.76,1.57,1.97,1.77.41,3.46,1.11,5,2.08.8.5,1.84.39,2.5-.28l3.19-3.19,2.86,2.86-3.19,3.19c-.67.67-.78,1.71-.28,2.5.97,1.54,1.68,3.23,2.08,5,.21.92,1.02,1.57,1.96,1.57h4.5v4.04Z"/>
      <path d="M270.6,209.58c-6.69,0-12.12,5.43-12.12,12.12s5.43,12.12,12.12,12.12,12.12-5.43,12.12-12.12c0-6.69-5.43-12.11-12.12-12.12ZM270.6,229.77c-4.46,0-8.08-3.62-8.08-8.08s3.62-8.08,8.08-8.08,8.08,3.62,8.08,8.08-3.62,8.08-8.08,8.08Z"/>
    </g>
  </g>
  <rect class="cls-7" y="297.73" width="795.9" height="201.19" transform="translate(795.9 796.66) rotate(180)"/>
</svg>