<?xml version="1.0" encoding="UTF-8"?>
<svg id="Capa_1" data-name="Capa 1" xmlns="http://www.w3.org/2000/svg" xmlns:xlink="http://www.w3.org/1999/xlink" viewBox="0 0 800 500">
  <defs>
    <style>
      .cls-1 {
        letter-spacing: 0em;
      }

      .cls-2 {
        fill: #cccfda;
      }

      .cls-3 {
        font-family: Montserrat-ExtraBold, Montserrat;
        font-size: 62.24px;
        font-weight: 700;
      }

      .cls-4 {
        fill: #fff;
      }

      .cls-5 {
        fill: url(#Degradado_sin_nombre_120);
      }

      .cls-6 {
        fill: url(#Degradado_sin_nombre_4-2);
      }

      .cls-7 {
        fill: url(#Degradado_sin_nombre_4-3);
      }

      .cls-8 {
        fill: url(#Degradado_sin_nombre_4);
      }

      .cls-9 {
        opacity: .31;
      }

      .cls-10 {
        fill: #f6fafd;
      }

      .cls-11 {
        fill: #e1f7fc;
      }

      .cls-12 {
        fill: url(#Degradado_sin_nombre_53);
      }

      .cls-13 {
        letter-spacing: -.01em;
      }

      .cls-14 {
        fill: url(#Degradado_sin_nombre_120-2);
      }

      .cls-15 {
        letter-spacing: 0em;
      }

      .cls-16 {
        fill: #dcdfeb;
      }

      .cls-17 {
        letter-spacing: 0em;
      }
    </style>
    <linearGradient id="Degradado_sin_nombre_53" data-name="Degradado sin nombre 53" x1="-1981.46" y1="-171.42" x2="-1981.46" y2="21.59" gradientTransform="translate(2379.41 463.61)" gradientUnits="userSpaceOnUse">
      <stop offset="0" stop-color="#3ee9b2"/>
      <stop offset=".38" stop-color="#03e4f8"/>
      <stop offset=".64" stop-color="#01e3f9" stop-opacity=".56"/>
      <stop offset=".89" stop-color="#00e3fa" stop-opacity=".16"/>
      <stop offset="1" stop-color="#00e3fb" stop-opacity="0"/>
    </linearGradient>
    <linearGradient id="Degradado_sin_nombre_120" data-name="Degradado sin nombre 120" x1="187.88" y1="188.7" x2="206.34" y2="188.7" gradientUnits="userSpaceOnUse">
      <stop offset="0" stop-color="#32e986"/>
      <stop offset=".5" stop-color="#2ece83"/>
      <stop offset=".76" stop-color="#3fe3a9"/>
      <stop offset="1" stop-color="#39f8cb"/>
    </linearGradient>
    <linearGradient id="Degradado_sin_nombre_4" data-name="Degradado sin nombre 4" x1="81.15" y1="188.7" x2="197.11" y2="188.7" gradientUnits="userSpaceOnUse">
      <stop offset=".07" stop-color="#3ee9b2"/>
      <stop offset=".46" stop-color="#39f8cb"/>
      <stop offset="1" stop-color="#00e3fb"/>
    </linearGradient>
    <linearGradient id="Degradado_sin_nombre_120-2" data-name="Degradado sin nombre 120" x1="201.72" y1="235.14" x2="220.18" y2="235.14" xlink:href="#Degradado_sin_nombre_120"/>
    <linearGradient id="Degradado_sin_nombre_4-2" data-name="Degradado sin nombre 4" x1="67.31" y1="235.14" x2="210.95" y2="235.14" xlink:href="#Degradado_sin_nombre_4"/>
    <linearGradient id="Degradado_sin_nombre_4-3" data-name="Degradado sin nombre 4" x1="129.9" y1="235.14" x2="157.59" y2="235.14" xlink:href="#Degradado_sin_nombre_4"/>
  </defs>
  <image class="cls-9" width="6000" height="4000" transform="scale(.13)" xlink:href="../../smiley-woman-working-from-her-laptop.jpg"/>
  <rect class="cls-12" y="297.73" width="795.9" height="201.19" transform="translate(795.9 796.66) rotate(180)"/>
  <g>
    <text class="cls-3" transform="translate(228.95 239.81)"><tspan x="0" y="0">R</tspan><tspan class="cls-15" x="46.06" y="0">e</tspan><tspan x="85.4" y="0">vista </tspan><tspan class="cls-17" x="262.54" y="0">E</tspan><tspan x="304.25" y="0">du 5</tspan><tspan class="cls-13" x="446.66" y="0">.</tspan><tspan class="cls-1" x="463.4" y="0">0</tspan></text>
    <g>
      <path d="M234.3,130.85h8.29s0,21.93,0,21.93h14.2s0-21.93,0-21.93h8.29s0,49.73,0,49.73h-8.29s0-20.49,0-20.49h-14.2s0,20.49,0,20.49h-8.29s0-49.73,0-49.73Z"/>
      <path d="M304.53,163.75v-10.96c0-9.14-6.61-15.33-15.75-15.33-8.44,0-15.75,6.89-15.75,15.33v13.17c0,9.14,6.61,15.33,15.75,15.33,4.2,0,8.12-1.71,11-4.47l-5.25-5.25c-1.39,1.49-3.38,2.41-5.75,2.41-4.5,0-7.87-3.52-7.87-8.02v-2.21h23.62ZM281.05,152.78c0-4.64,3.23-8.01,7.73-8.01,4.64,0,7.87,3.37,7.87,8.01v3.65h-15.61v-3.65Z"/>
      <path d="M312.47,149.13c0-6.47,4.64-10.97,10.97-10.97h2.81v7.31h-2.25c-2.11,0-3.66,1.41-3.66,3.66v31.45s-7.87,0-7.87,0v-31.45Z"/>
      <path d="M333.06,127.12c0-2.67,2.18-4.85,4.85-4.85,2.67,0,4.85,2.18,4.85,4.85,0,2.67-2.18,4.85-4.85,4.85-2.67,0-4.85-2.18-4.85-4.85ZM333.83,138.16h7.87s.07,42.42.07,42.42h-7.87s-.07-42.42-.07-42.42Z"/>
      <path d="M349.42,165.95v-13.17c0-8.44,7.31-15.33,15.75-15.33,4.36,0,7.87,1.27,10.96,4.36l-5.2,5.2c-1.54-1.41-3.51-2.25-5.76-2.25-4.5,0-7.88,3.37-7.88,8.01v13.17c0,4.5,3.38,8.02,7.88,8.02,2.25,0,4.22-.98,5.76-2.39l5.06,5.06c-2.81,2.95-6.75,4.64-10.82,4.64-9.14,0-15.61-6.19-15.75-15.33Z"/>
      <path d="M381.23,147.66c0-6.47,4.64-10.97,10.97-10.97h2.81v7.31h-2.25c-2.11,0-3.65,1.41-3.65,3.66v31.45s-7.87,0-7.87,0v-31.45Z"/>
      <path d="M439.1,145.47h-3.94v-7.31h3.94s0-4.36,0-4.36c0-6.47,4.64-10.97,10.97-10.97h1.27v7.31h-.7c-2.11,0-3.65,1.4-3.65,3.65v4.36s4.52,0,4.52,0v7.31h-4.52s0,35.11,0,35.11h-7.88s0-35.11,0-35.11Z"/>
      <polygon points="463.08 145.47 459.15 145.47 459.15 138.16 463.08 138.16 463.08 122.83 470.96 122.83 470.96 138.16 474.9 138.16 474.9 145.47 470.96 145.47 470.96 180.58 463.08 180.58 463.08 145.47"/>
      <path d="M413.93,137.45c-4.22,0-8.26,1.61-11.21,4.4l4.97,4.97c1.41-1.55,3.47-2.48,5.96-2.48,4.78,0,8.01,3.65,8.01,8.44v1.22h-.14c-2.25-1.83-4.92-2.81-8.15-2.81-8.44,0-15.47,6.61-15.47,15.04,0,9.14,6.33,15.05,15.05,15.05,3.65,0,7.03-1.27,8.72-3.23v2.53s7.73,0,7.73,0v-27.8c0-9.14-6.33-15.33-15.47-15.33ZM413.66,174.25c-4.5,0-7.88-3.52-7.88-8.02,0-4.64,3.38-8.01,7.88-8.01s7.87,3.37,7.87,8.01c0,4.5-3.23,8.02-7.87,8.02Z"/>
    </g>
    <g>
      <path class="cls-5" d="M197.11,142.25h-9.23v92.89l9.23-4.61c5.1,0,9.23-4.13,9.23-9.23v-69.82c0-5.1-4.13-9.23-9.23-9.23Z"/>
      <path class="cls-8" d="M197.11,221.3l-4.61-34.91,4.61-34.91c0-5.1-4.13-9.23-9.23-9.23h-97.5c-5.1,0-9.23,4.13-9.23,9.23v69.82c0,5.1,4.13,9.23,9.23,9.23l53.36,4.61,44.14-4.61c5.1,0,9.23-4.13,9.23-9.23Z"/>
      <path class="cls-14" d="M210.95,230.53l-9.23,9.23h9.23c5.1,0,9.23-4.13,9.23-9.23h-9.23Z"/>
      <path class="cls-6" d="M157.59,230.53l-13.84,3.46-13.84-3.46h-62.59c0,5.1,4.13,9.23,9.23,9.23h53.36l13.84-3.46,13.84,3.46h44.14c5.1,0,9.23-4.13,9.23-9.23h-53.36Z"/>
      <path class="cls-7" d="M129.9,230.53h27.68v9.23h-27.68v-9.23Z"/>
      <path class="cls-11" d="M187.88,151.48l-9.23,34.91,9.23,34.91h9.23v-69.82h-9.23Z"/>
      <path class="cls-4" d="M90.38,151.48v69.82h97.5v-9.23l-9.23-60.59h-88.27Z"/>
      <path class="cls-16" d="M178.65,133.03l-9.23,69.82,18.45-9.23v-60.59h-9.23Z"/>
      <path class="cls-10" d="M152.97,133.03c-5.1,0-9.23,4.13-9.23,9.23h-9.23l9.23,69.82,34.91-9.23v-18.45l-4.61-21.07,4.61-21.07v-9.23h-25.68Z"/>
      <path class="cls-10" d="M134.52,133.03h-34.91v60.59l44.14,9.23v-60.59c0-5.1-4.13-9.23-9.23-9.23Z"/>
      <path class="cls-16" d="M134.52,193.62h-34.91v9.23l44.14,9.23v-9.23c0-5.1-4.13-9.23-9.23-9.23Z"/>
      <path class="cls-2" d="M187.88,193.62h-9.23l-9.23,13.84,18.45-4.61v-9.23Z"/>
      <path class="cls-16" d="M152.97,193.62c-5.1,0-9.23,4.13-9.23,9.23v9.23l34.91-4.61v-13.84h-25.68Z"/>
      <path class="cls-16" d="M152.97,202.85c-5.1,0-9.23,4.13-9.23,9.23h34.91v-9.23h-25.68Z"/>
      <path class="cls-2" d="M178.65,202.85h9.23v9.23h-9.23v-9.23Z"/>
      <path class="cls-16" d="M134.52,202.85h-34.91v9.23h44.14c0-5.1-4.13-9.23-9.23-9.23Z"/>
      <path class="cls-16" d="M169.43,142.25l-9.23,21.07,9.23,21.07h9.23v-42.14h-9.23Z"/>
      <path class="cls-10" d="M152.97,142.25h16.46v42.14h-16.46v-42.14Z"/>
      <path class="cls-16" d="M125.29,142.25l-4.61,11.84,4.61,11.84h9.23v-23.68h-9.23Z"/>
      <path class="cls-10" d="M108.84,142.25h16.46v23.68h-16.46v-23.68Z"/>
      <path d="M220.18,228.22h-13.85c1.45-1.93,2.31-4.33,2.31-6.92v-30.3c0-1.27-1.03-2.31-2.31-2.31s-2.31,1.03-2.31,2.31v30.3c0,3.82-3.1,6.92-6.92,6.92h-106.73c-3.82,0-6.92-3.1-6.92-6.92v-69.82c0-3.82,3.1-6.92,6.92-6.92h6.92v4.61h-6.92c-1.27,0-2.31,1.03-2.31,2.31v30.3c0,1.27,1.03,2.31,2.31,2.31s2.31-1.03,2.31-2.31v-27.99h4.61v58.28c0,1.27,1.03,2.31,2.31,2.31h88.27c1.27,0,2.31-1.03,2.31-2.31v-58.28h4.61v65.21h-102.11v-27.99c0-1.27-1.03-2.31-2.31-2.31s-2.31,1.03-2.31,2.31v30.3c0,1.27,1.03,2.31,2.31,2.31h106.73c1.27,0,2.31-1.03,2.31-2.31v-69.82c0-1.27-1.03-2.31-2.31-2.31h-6.92v-4.61h6.92c3.82,0,6.92,3.1,6.92,6.92v30.3c0,1.27,1.03,2.31,2.31,2.31s2.31-1.03,2.31-2.31v-30.3c0-6.36-5.17-11.53-11.53-11.53h-6.92v-6.92c0-1.27-1.03-2.31-2.31-2.31h-34.91c-3.77,0-7.12,1.82-9.23,4.62-2.11-2.8-5.46-4.62-9.23-4.62h-34.91c-1.27,0-2.31,1.03-2.31,2.31v6.92h-6.92c-6.36,0-11.53,5.17-11.53,11.53v69.82c0,2.59.86,4.99,2.31,6.92h-13.85c-1.27,0-2.31,1.03-2.31,2.31,0,6.36,5.17,11.53,11.53,11.53h134.41c6.36,0,11.53-5.17,11.53-11.53,0-1.27-1.03-2.31-2.31-2.31ZM185.58,209.77h-39.13c.95-2.68,3.52-4.61,6.52-4.61h32.6v4.61ZM146.05,142.25c0-3.82,3.1-6.92,6.92-6.92h32.6v55.98h-32.6c-2.59,0-4.99.86-6.92,2.31v-51.37ZM146.05,202.85c0-3.82,3.1-6.92,6.92-6.92h32.6v4.61h-32.6c-2.59,0-4.99.86-6.92,2.31ZM101.92,135.33h32.6c3.82,0,6.92,3.1,6.92,6.92v51.37c-1.93-1.45-4.33-2.31-6.92-2.31h-32.6v-55.98ZM101.92,195.93h32.6c3.82,0,6.92,3.1,6.92,6.92-1.93-1.45-4.33-2.31-6.92-2.31h-32.6v-4.61ZM101.92,205.15h32.6c3.01,0,5.57,1.93,6.52,4.61h-39.13v-4.61ZM127.6,237.45h-51.06c-3.01,0-5.57-1.93-6.53-4.61h57.58v4.61ZM155.28,237.45h-23.07v-4.61h23.07v4.61ZM210.95,237.45h-51.06v-4.61h57.58c-.95,2.69-3.52,4.61-6.53,4.61Z"/>
      <path d="M178.65,186.7c1.27,0,2.31-1.03,2.31-2.31v-42.14c0-1.27-1.03-2.31-2.31-2.31h-25.68c-1.27,0-2.31,1.03-2.31,2.31v42.14c0,1.27,1.03,2.31,2.31,2.31h25.68ZM155.28,144.56h21.07v37.52h-21.07v-37.52Z"/>
      <path d="M108.84,168.24h25.68c1.27,0,2.31-1.03,2.31-2.31v-23.68c0-1.27-1.03-2.31-2.31-2.31h-25.68c-1.27,0-2.31,1.03-2.31,2.31v23.68c0,1.27,1.03,2.31,2.31,2.31ZM111.14,144.56h21.07v19.07h-21.07v-19.07Z"/>
      <path d="M108.84,177.47h25.68c1.27,0,2.31-1.03,2.31-2.31s-1.03-2.31-2.31-2.31h-25.68c-1.27,0-2.31,1.03-2.31,2.31s1.03,2.31,2.31,2.31Z"/>
      <path d="M136.82,184.39c0-1.27-1.03-2.31-2.31-2.31h-25.68c-1.27,0-2.31,1.03-2.31,2.31s1.03,2.31,2.31,2.31h25.68c1.27,0,2.31-1.03,2.31-2.31Z"/>
    </g>
  </g>
</svg>