<?xml version="1.0" encoding="UTF-8"?>
<svg id="Capa_1" data-name="Capa 1" xmlns="http://www.w3.org/2000/svg" xmlns:xlink="http://www.w3.org/1999/xlink" viewBox="0 0 400 400">
  <defs>
    <style>
      .cls-1 {
        fill: none;
        stroke: #000;
        stroke-linecap: round;
        stroke-linejoin: round;
        stroke-width: 10px;
      }

      .cls-2 {
        fill: url(#Degradado_sin_nombre_4);
      }
    </style>
    <linearGradient id="Degradado_sin_nombre_4" data-name="Degradado sin nombre 4" x1="98.98" y1="211.01" x2="318.8" y2="211.01" gradientUnits="userSpaceOnUse">
      <stop offset=".07" stop-color="#3ee9b2"/>
      <stop offset=".46" stop-color="#39f8cb"/>
      <stop offset="1" stop-color="#00e3fb"/>
    </linearGradient>
  </defs>
  <rect class="cls-2" x="98.98" y="65.92" width="219.82" height="290.16" rx="19" ry="19"/>
  <path d="M238.05,324.6c20.98,0,38.05-17.07,38.05-38.05s-17.07-38.05-38.05-38.05-38.05,17.07-38.05,38.05,17.07,38.05,38.05,38.05ZM238.05,257.4c16.08,0,29.16,13.08,29.16,29.16s-13.08,29.16-29.16,29.16-29.16-13.08-29.16-29.16,13.08-29.16,29.16-29.16Z"/>
  <path d="M238.05,306.9h0c2.46,0,4.45-1.99,4.45-4.45s-1.99-4.45-4.45-4.45c-6.32,0-11.46-5.14-11.46-11.46s5.14-11.46,11.46-11.46,11.46,5.14,11.46,11.46c0,2.46,1.99,4.45,4.45,4.45s4.45-1.99,4.45-4.45c0-11.22-9.13-20.35-20.35-20.35s-20.35,9.13-20.35,20.35,9.13,20.35,20.35,20.35Z"/>
  <path d="M290.33,236.53c-1.74-1.74-4.55-1.74-6.29,0-1.74,1.74-1.74,4.55,0,6.29l10.96,10.96c.87.87,2.01,1.3,3.14,1.3s2.28-.43,3.14-1.3c1.74-1.74,1.74-4.55,0-6.29l-10.96-10.96Z"/>
  <path d="M373.53,171.2h0c-5.24-4.51-11.97-6.94-18.95-6.9-2.46.02-4.43,2.03-4.41,4.48.02,2.44,2.01,4.41,4.45,4.41h.04c4.83-.06,9.47,1.64,13.07,4.75,8.82,7.6,9.27,20.94,1.12,29.08-3.93,3.93-9.17,5.99-14.72,5.79-3.02-.11-5.95.9-8.25,2.85l-24.07,20.35-10-10,20.35-24.07c1.94-2.3,2.96-5.23,2.85-8.25-.2-5.65,2.04-11.14,6.14-15.05,1.78-1.7,1.84-4.51.15-6.29-1.7-1.78-4.51-1.84-6.29-.15-5.94,5.67-9.17,13.61-8.89,21.8.03.81-.24,1.58-.75,2.19l-8.59,10.16-11.24,13.33-2.54-2.53v.04l-8.52-8.52-3.51-3.51c-2.47-2.47-6.11-3.49-9.51-2.66,0,0,0,0,0,0l-13.06,3.21c-1.78.44-3.42,1.36-4.71,2.66l-5.92,5.92c-1.9,1.9-2.95,4.43-2.95,7.11s1.05,5.21,2.95,7.11l39.4,39.4h0l.07.07,5.76,5.76h0s12.8,12.8,12.8,12.8l3.5,3.5c1.9,1.9,4.43,2.95,7.11,2.95s5.21-1.05,7.11-2.95l5.92-5.92c1.3-1.3,2.22-2.93,2.66-4.71l3.21-13.06c.83-3.4-.18-7.04-2.66-9.51l-14.53-14.53,23.5-19.87c.61-.51,1.39-.78,2.19-.75,7.95.3,15.71-2.78,21.33-8.39,11.56-11.56,11.37-30.93-1.61-42.11ZM336.35,263.14c.29.29.4.71.31,1.1l-3.21,13.06c-.05.21-.16.4-.31.55l-5.92,5.92c-.28.28-.6.34-.82.34s-.54-.06-.82-.34l-61.53-61.52c-.28-.28-.34-.6-.34-.82s.06-.54.34-.82l5.92-5.92c.15-.15.34-.26.55-.31l13.06-3.21h0c.39-.1.82.02,1.1.31,8.16,8.16,45.06,45.06,51.67,51.67Z"/>
  <path d="M324.69,291.28v62.39c0,6.99-5.69,12.68-12.68,12.68H86.96c-6.99,0-12.68-5.69-12.68-12.68V68.34c0-6.99,5.69-12.68,12.68-12.68h225.06c6.99,0,12.68,5.69,12.68,12.68v130.01c2.76-2.44,5.81-4.57,9-6.46v-123.55c0-11.98-9.71-21.68-21.68-21.68H86.96c-11.98,0-21.68,9.71-21.68,21.68v285.33c0,11.98,9.71,21.68,21.68,21.68h225.06c11.98,0,21.68-9.71,21.68-21.68v-66.73c-2.46,2.38-5.41,4.01-9,4.34Z"/>
  <line class="cls-1" x1="108.42" y1="100.53" x2="292.67" y2="100.53"/>
  <line class="cls-1" x1="108.42" y1="140.53" x2="292.67" y2="140.53"/>
  <line class="cls-1" x1="108.42" y1="180.53" x2="292.67" y2="180.53"/>
  <line class="cls-1" x1="108.42" y1="340.53" x2="292.67" y2="340.53"/>
  <line class="cls-1" x1="108.42" y1="220.53" x2="257.67" y2="220.53"/>
  <line class="cls-1" x1="108.42" y1="260.53" x2="182.67" y2="260.53"/>
</svg>