<?xml version="1.0" encoding="UTF-8"?>
<svg id="Capa_1" data-name="Capa 1" xmlns="http://www.w3.org/2000/svg" xmlns:xlink="http://www.w3.org/1999/xlink" viewBox="0 0 400 400">
  <defs>
    <style>
      .cls-1 {
        fill: url(#Degradado_sin_nombre_4);
      }
    </style>
    <linearGradient id="Degradado_sin_nombre_4" data-name="Degradado sin nombre 4" x1="94.87" y1="261.15" x2="296.27" y2="261.15" gradientUnits="userSpaceOnUse">
      <stop offset=".07" stop-color="#3ee9b2"/>
      <stop offset=".46" stop-color="#39f8cb"/>
      <stop offset="1" stop-color="#00e3fb"/>
    </linearGradient>
  </defs>
  <circle class="cls-1" cx="195.57" cy="261.15" r="100.7"/>
  <g>
    <path d="M327.45,240.06c-1.82.02-3.82-.34-5.52-.97-3.54-1.3-15.44-13.24-16.44-16.84-.37-1.33-.53-4.98-.69-5.24-.12-.2-3.16-1.55-4.13-2.36-4.89-4.08-7.43-9.32-7.07-15.78-6.75,2.68-13.51,2.45-20.3,0,.93,7.66-4.07,15.78-11.3,18.32-2.19.77-3.8.59-5.66,1.11-3.44.97-6.72,3.13-9.52,5.15-13.05,9.45-5.08,42.77-7.41,57.46-.81,5.09-8.22,5.73-8.99-1.1-1.04-9.18-.95-37.31.82-46.01,1.18-5.8,4.2-11.19,8.2-15.48-4.02-4.23-10.09-3.86-15.04-5.83-8.38-3.33-11.83-11.28-12.03-19.85-7.68,2.52-15.11,3.19-22.56-.56.53,5.8-1.68,12.34-5.93,16.35-6.21,5.86-14.49,4.01-21.15,9.04,1.65,3.52,4.68,6.19,6.31,9.75,6.37,13.88.85,39.28,2.68,54.79-.73,4.66-7.84,4.15-8.46-.5-2.04-15.41,4.7-42.97-5.14-55.22-7.51-9.34-17.07-5.86-23.9-12.76-3.64-3.68-5.5-9.54-5.34-14.69-6.4,2.6-13.34,2.6-19.74,0,.24,6.77-3.02,13.81-9.07,17.17-1.16.64-4.42,1.49-4.77,2-.45.67-.57,3.39-.99,4.65-1.05,3.11-12.45,14.65-15.5,16.09-1.03.49-3.41.63-3.84,1.24-1.54,2.18.64,35.6-.22,40.96-.54,5-7.89,5.22-8.5-.01-1.54-13.23,1.17-29.35.01-42.89-12.44-10.67-4.43-21.05,5.63-29.34,5.52-4.55,10.59-5.53,16.9-1.65,1.35.83,1.7,2.57,3.63,2.5,3.46-.13,7.29-4.21,7.7-7.6.19-1.54.24-7.67-.13-8.92-.17-.56-5.59-6.4-6.67-8-18.88-28.06-.74-65.31,33.87-57.56,26.34,5.9,31.35,36.18,17.94,56.88-1.17,1.81-7.04,8.26-7.21,9.15-.31,1.62-.21,7.22.04,8.96.99,6.97,6.95,6.9,12.05,8.26,1.13.3,4.71,2.1,5.12,2.07.34-.03,4.24-3.35,5.39-4.03,5.28-3.09,8.31-2.84,13.49-4.56,6.79-2.25,8.31-10.52,7.31-16.89-.4-2.52-3.02-3.82-4.46-5.69-11.83-15.34-16.67-36.97-3.64-53.25,18.79-23.46,57.55-14.28,63.25,15.63,1.6,8.41,1,13.56-1.83,21.53-2.1,5.93-5.4,11.73-9.3,16.65-.89,1.12-3.51,3.04-3.82,4.08-.92,3.1-.2,11.59,1.67,14.46,3.13,4.8,9.84,4.24,14.95,6.48,1.98.87,7.61,4.95,8.49,5.09,1.01.15,5.91-2.02,7.46-2.48,2.47-.75,4.4-.1,7-2.03,3.71-2.75,4.84-10.69,3.63-14.75-.32-1.08-3.41-3.43-4.38-4.65-12.99-16.4-15.45-40.13,1.97-54.41,30.4-24.89,71.84,12.66,47.22,50.6-1.12,1.73-6.54,7.62-6.78,8.45-.42,1.42-.28,8.25.02,9.91.41,2.24,4.3,6.86,6.62,5.79.56-.26,1.07-1.27,1.74-1.68,4.34-2.63,8.6-3.28,13.34-.99,3.58,1.73,14.48,12.97,15.27,16.88,1.23,6.05-1.17,9.07-3.85,13.94l.02,45.15c-1.5,3.92-5.84,4.36-8.15.85l-.3-42.86ZM224.79,137.38c-12.65-22.08-46.85-15.64-50.2,9.59,1.92-1.51,3-5.05,4.68-6.59,3.84-3.53,7.3,1.62,11.08,2.4,10.6,2.19,13.43-5.71,22.46-6.94,4.26-.58,7.98.28,11.98,1.54ZM140.73,148.1c-11.35-20.35-41.53-15.41-46.25,7.34,1.9-.99,2.41-3.49,3.92-4.82,3.77-3.33,5.73.23,9.3,1.46,9.67,3.33,12.49-4.62,20.96-5.61,4.21-.49,8.19.02,12.07,1.63ZM305.46,148.1c-11.48-20.19-41.88-15.54-46.25,7.34,2.31-1.61,2.84-5.73,5.96-6.19,2.77-.41,4.43,1.78,6.85,2.68,9.71,3.63,12.69-4.4,20.8-5.47,4.42-.58,8.54.14,12.64,1.64ZM183.14,149.89c-.57,2.61-6.99,9.31-7.32,10.98-.67,3.38,7.89,15.87,10.66,18.48,15.08,14.22,31.41,3.09,38.4-12.82,3.19-7.25,5.99-16.68-3.11-20.79-10.39-4.7-15.58,5.32-25.55,6.23-5.09.47-8.43-1.24-13.09-2.09ZM130.44,155.02c-7.4.91-9.75,7.89-20.96,6.57-1.85-.22-5.33-1.95-6.71-1.56-.57.16-6.6,8.7-6.9,9.55-.79,2.25,5.78,12.36,7.62,14.37,10.15,11.12,21.84,10.82,31.59-.6,3.22-3.78,9.15-14.65,8.25-19.46-1.05-5.63-7.32-9.55-12.88-8.87ZM267.14,159.41c-.88,2.68-7.07,9.06-6.72,11.41.34,2.22,4.35,9.12,5.87,11.09,5.87,7.55,14.28,12.72,23.92,8.79,10.04-4.09,25.51-26.74,12.15-34.15-9.58-5.31-14.26,4.03-23.21,5.03-4.29.48-8.13-.52-12.02-2.17ZM80.21,213.66c-1.35.3-10.67,9.38-11.26,10.75-1.7,3.91,2.77,7.97,6.33,6.33.67-.31,10.14-9.76,10.43-10.43,1.52-3.55-1.81-7.48-5.5-6.65ZM317.14,213.65c-2.55.77-4.11,4.51-2.69,6.98.36.62,9.54,9.81,10.19,10.11,3.56,1.64,8.59-2.76,5.89-7.01-.67-1.05-8.26-8.65-9.31-9.31-1.28-.81-2.57-1.22-4.09-.76Z"/>
    <path d="M184.05,60.26c27.81-1.73,55.17,4.23,79.27,18,2.21,1.27,10.48,7.23,11.66,7.56.98.27,5.8-2.37,8.2-2.59,15.98-1.48,24.53,17.51,13.27,28.5-10.71,10.47-28.48,2.25-28.27-12.44.03-1.8,1.63-6.2,1.49-6.49-.85-1.73-17.4-10.62-20.25-11.93-44.98-20.76-95.12-14.56-134.6,14.53-2.45,1.8-9.35,8.6-11.61,8.75-3.19.2-5.54-2.62-4.55-5.72.84-2.63,11.97-10.84,14.81-12.84,20.42-14.4,45.46-23.76,70.58-25.33ZM284.44,91.83c-8.91.48-9.82,14.29-1.23,15.62,11.98,1.86,12.59-16.23,1.23-15.62Z"/>
    <path d="M130.04,307.71c10.91,7.04,22.08,13.11,34.52,17.12,41.66,13.41,85.23,5.76,120.22-19.99,2.77-2.04,9.71-9.07,12.49-8.98,3.39.11,5.2,3.44,3.61,6.46-1.39,2.65-11.45,10-14.42,12.09-43.75,30.85-102,34.16-148.92,8.1-2.4-1.33-11.82-8.02-13.11-8.3-.93-.2-3.18,1.46-4.44,1.84-16.71,5.08-28.98-15.6-16.51-27.79,13.41-13.1,34.45,2.9,26.56,19.44ZM112.93,292.65c-8.4,1.75-7.02,16.04,2.55,15.53,10.33-.56,9.56-18.05-2.55-15.53Z"/>
    <path d="M311.5,245.82c3.32-.75,5.43.82,5.81,4.1,1.15,9.7-.85,21.63-.05,31.57-.78,5.01-8.23,5.44-9.01-1.08-.75-6.28-.7-23.58.01-29.91.24-2.12.88-4.14,3.22-4.67Z"/>
    <path d="M252.83,245.82c3.31-.76,5.43.82,5.82,4.1,1.15,9.7-.86,21.63-.04,31.57-.84,5.32-8.19,5.56-9-1.66-.71-6.35-.7-22.42,0-28.77.23-2.06.93-4.71,3.23-5.23Z"/>
    <path d="M88.1,245.82c2.75-.82,5.47.75,5.84,3.52,1.31,9.83-1.03,22.58-.04,32.74-1.47,4.57-7.86,4.1-8.48-.52-1.29-9.69,1.05-22.21,0-32.22-.1-1.22,1.64-3.21,2.68-3.52Z"/>
    <path d="M146.77,245.82c2.75-.82,5.47.75,5.84,3.52,1.31,9.83-1.03,22.58-.04,32.74-1.47,4.57-7.86,4.1-8.48-.52-1.29-9.69,1.05-22.21,0-32.22-.1-1.22,1.64-3.21,2.68-3.52Z"/>
  </g>
</svg>