<?xml version="1.0" encoding="UTF-8"?>
<svg id="Capa_1" data-name="Capa 1" xmlns="http://www.w3.org/2000/svg" viewBox="0 0 1224.77 400">
  <defs>
    <style>
      .cls-1 {
        letter-spacing: 0em;
      }

      .cls-2 {
        fill: #27e2f8;
      }

      .cls-3 {
        fill: #47f6ca;
      }

      .cls-4 {
        fill: #333;
        font-family: Montserrat-SemiBold, Montserrat;
        font-size: 32.54px;
        font-weight: 600;
      }

      .cls-5 {
        letter-spacing: -.02em;
      }

      .cls-6 {
        letter-spacing: -.01em;
      }

      .cls-7 {
        letter-spacing: -.01em;
      }

      .cls-8 {
        letter-spacing: 0em;
      }

      .cls-9 {
        letter-spacing: 0em;
      }

      .cls-10 {
        letter-spacing: 0em;
      }

      .cls-11 {
        fill: #4d4d4d;
      }
    </style>
  </defs>
  <g>
    <path class="cls-3" d="M77.02,174.67c-.69-1.07-.11-2.46.6-3.36,2.44-3.1,10.04-10.68,13.14-13.14,2.2-1.75,3.61-.69,5.5.91,6.19,5.24,11.63,12.46,17.87,17.79,6.85-2.45,13.86-4.69,20.15-8.45l-25.5-25.5c-.94-.94.2-2.83.89-3.66,2.46-2.96,10.23-10.97,13.16-13.09.7-.51,2.46-.94,3.05-.34l25.5,25.5c3.75-6.29,6.12-13.28,8.45-20.15-5.33-6.24-12.54-11.67-17.79-17.87-1.59-1.88-2.66-3.3-.91-5.5,2.47-3.11,10.04-10.7,13.14-13.14.78-.61,2.6-1.36,3.36-.6l12.52,12.52c.22.22.7-.04.96-.29,1.73-1.72,2.98-4.03,4.85-5.81,2.29-2.18,10.99-8.05,13.96-8.49,1.06-.16,2.05.47,2.83,1.12,3.59,2.97,11.53,10.8,14.36,14.39.88,1.11,1.36,2.73.48,4-1.14,1.64-6.41,1.36-8.73,2.19-3.44,1.22-6.8,3.82-9.09,6.64-.47.58-2.43,3.45-1.91,3.97l11.45,11.45c4.36-5.18,9.05-9.69,15.12-12.85,2.2-1.14,4.88-2.75,7.02-1.06,3.65,2.89,11.34,10.71,14.38,14.36,1.16,1.39,1.94,3.41.3,4.86-1.03.91-4.77.66-6.43,1.05-5.92,1.38-10.26,5.61-13.28,10.73l11.91,11.91c4.47-5.5,10.54-11.31,17.25-13.88,1.96-.75,3.04-1.48,4.89-.02,3.66,2.89,11.32,10.7,14.38,14.36,5.19,6.21-5.07,5.31-7.97,6.3-4.93,1.69-8.84,5.99-11.45,10.34l26.11,26.11c.94.94-.2,2.83-.89,3.66-2.7,3.25-9.61,10.28-12.85,12.84-.57.45-2.58,1.38-3.05.9l-18.17-18.17-9.97,19.09c.22,1.32,11.08,10.73,12.83,13.13,1.18,1.61.59,2.61-.54,3.97-2.86,3.43-9.12,9.7-12.55,12.55-1.63,1.36-2.51,1.68-4.28.29-2.2-1.73-11.61-12.37-12.83-12.57l-18.78,9.66,16.95,16.95c1.28,1.28,1.09,3.22.01,4.58-2.23,2.8-10.68,11.4-13.45,13.4-.7.51-2.46.94-3.05.34l-26.11-26.11c-4.33,2.53-8.41,6.33-10.16,11.15-1.12,3.09-.32,13.42-6.48,8.27-3.67-3.07-11.46-10.71-14.36-14.38-1.83-2.32.26-5.65,1.53-7.94,3.14-5.69,7.29-10.18,12.38-14.2l-11.91-11.91c-5.08,2.96-9.35,7.44-10.73,13.28-.4,1.67-.14,5.39-1.05,6.43-1.45,1.65-3.47.86-4.86-.3-3.65-3.04-11.48-10.73-14.36-14.38-1.69-2.14-.26-4.23.8-6.41,3.08-6.35,7.76-11.24,13.11-15.73l-11.45-11.45c-.52-.52-3.39,1.44-3.97,1.91-2.83,2.28-5.42,5.65-6.64,9.09-.83,2.33-.55,7.59-2.19,8.73-1.26.88-2.89.4-4-.48-3.59-2.84-11.42-10.77-14.39-14.36-.65-.78-1.27-1.77-1.12-2.83.44-2.98,6.31-11.67,8.49-13.96,1.78-1.87,4.09-3.11,5.81-4.85.25-.26.51-.73.29-.96l-12.52-12.52ZM93.05,164.44l-8.86,8.86,10.99,10.99,12.21-5.5-14.35-14.35ZM124.51,132.98l-8.55,8.55,52.52,52.52c3.2-2.21,6.34-5.35,8.55-8.55l-52.52-52.52ZM156.26,101.23l-8.86,8.86,14.35,14.35,5.5-12.21-10.99-10.99ZM146.8,180.93l-7.79-7.79c-4.62,2.01-9.05,4.36-13.74,6.22-9.64,3.81-20.11,5.61-29.01,11.23-6.61,4.18-11.12,9.09-14.81,15.99l8.86,8.86c.95-1.72,1.31-3.6,2.27-5.34,7.05-12.75,22.23-14.67,34.53-19.32,2.63-1,19.69-8.15,19.7-9.84ZM189.55,98.48c-6.89,3.69-11.81,8.2-15.99,14.81-5.63,8.9-7.41,19.37-11.23,29.01-1.86,4.7-4.16,9.14-6.22,13.74l7.79,7.79c4.38-5.76,7.3-12.96,9.84-19.7,4.63-12.29,6.6-27.49,19.32-34.53,1.74-.96,3.63-1.32,5.34-2.27l-8.86-8.86ZM165.12,236.51l-38.94-38.94-13.28,4.43,40.31,40.31c1.21-1.75,11.9-4.81,11.91-5.8ZM184.97,129.93l-4.58,13.13,39.09,39.09c2.47-3.53,3.01-8.38,5.8-11.91l-40.31-40.31ZM151.38,185.51l-18.93,9.77,10.69,10.69,20.15-8.55-11.91-11.91ZM178.25,149.47l-9.77,18.93,11.91,11.91,8.55-20.15-10.69-10.69ZM123.28,220.93c-5.71,3.49-9.61,8.93-12.83,14.66l8.86,8.86c1.65-5.46,4.73-9.53,9.01-13.28.59-.51,3.47-1.73,2.75-2.45l-7.79-7.79ZM218.56,127.49c-5.73,3.21-11.16,7.12-14.66,12.83l7.79,7.79c.72.72,1.94-2.16,2.45-2.75,2.3-2.63,4.89-5.03,7.93-6.74,1.7-.96,3.59-1.46,5.34-2.27l-8.86-8.86ZM193.82,165.05c-2.17,4.66-3.66,9.58-5.98,14.2-5.53,11.01-11.41,17.77-22.27,23.83-5.63,3.14-11.73,5.58-17.86,7.47l8.7,8.7c12.78-4.01,25.08-11.06,33.51-21.68,5.46-6.88,9.75-15.78,12.29-24.12l-8.4-8.4ZM180.39,214.52l-18.93,9.77,10.69,10.69,20.15-8.55-11.91-11.91ZM207.26,178.49l-9.77,18.93,11.91,11.91,8.55-20.15-10.69-10.69ZM193.82,202.3c-2.57,3.18-5.37,5.98-8.55,8.55l38.78,38.78,8.55-8.55-38.78-38.78ZM204.82,238.95l-7.79-7.79c-5.25,2.15-10.27,4.79-15.57,6.83-8.96,3.43-18.56,5.24-26.87,10.32-6.76,4.13-11.57,9.18-15.12,16.29l8.86,8.86c4.71-16.68,21.24-18.95,34.97-24.06,7.39-2.75,15.07-5.89,21.53-10.45ZM247.57,156.5c-7.08,3.5-12.21,8.39-16.29,15.12-5.06,8.33-6.88,17.91-10.32,26.87-2.03,5.31-4.68,10.32-6.83,15.57l7.79,7.79c4.59-6.47,7.69-14.13,10.45-21.53,5.11-13.7,7.37-30.31,24.06-34.97l-8.86-8.86ZM201.15,272.54l-16.95-16.95-13.28,4.43,21.38,21.38,8.86-8.86ZM242.99,187.95l-4.43,13.28,16.95,16.95,8.86-8.86-21.38-21.38Z"/>
    <g>
      <path class="cls-11" d="M376.1,124.64c4.47,4.51,6.71,11.31,6.71,20.41v34.95h-21.42v-31.46c0-4.28-.81-7.44-2.42-9.47-1.62-2.03-3.89-3.04-6.82-3.04-3.23,0-5.83,1.13-7.78,3.38-1.96,2.25-2.93,5.68-2.93,10.26v30.33h-21.42v-31.46c0-8.34-3.08-12.52-9.24-12.52-3.31,0-5.94,1.13-7.89,3.38-1.96,2.25-2.93,5.68-2.93,10.26v30.33h-21.42v-61.11h20.41v6.43c2.25-2.48,4.94-4.34,8.06-5.58,3.12-1.24,6.52-1.86,10.2-1.86,4.28,0,8.12.79,11.5,2.37,3.38,1.58,6.13,3.99,8.23,7.22,2.4-3.08,5.45-5.45,9.13-7.1,3.68-1.65,7.7-2.48,12.06-2.48,7.52,0,13.51,2.25,17.98,6.76Z"/>
      <path class="cls-11" d="M410.21,176.95c-5.26-2.71-9.38-6.46-12.35-11.27-2.97-4.81-4.45-10.26-4.45-16.35s1.48-11.42,4.45-16.24c2.97-4.81,7.06-8.55,12.29-11.22,5.22-2.67,11.14-4,17.76-4s12.55,1.33,17.81,4c5.26,2.67,9.36,6.39,12.29,11.16,2.93,4.77,4.4,10.2,4.4,16.29s-1.47,11.54-4.4,16.35c-2.93,4.81-7.03,8.57-12.29,11.27-5.26,2.71-11.2,4.06-17.81,4.06s-12.44-1.35-17.7-4.06ZM437.15,160.1c2.41-2.59,3.61-6.18,3.61-10.77s-1.2-8.04-3.61-10.6c-2.41-2.55-5.49-3.83-9.24-3.83s-6.84,1.28-9.25,3.83c-2.41,2.56-3.61,6.09-3.61,10.6s1.2,8.17,3.61,10.77c2.4,2.59,5.49,3.89,9.25,3.89s6.84-1.3,9.24-3.89Z"/>
      <path class="cls-11" d="M537.27,96.34v83.66h-20.41v-6.09c-3.98,4.74-9.96,7.1-17.93,7.1-5.56,0-10.64-1.3-15.22-3.89-4.59-2.59-8.21-6.3-10.88-11.11-2.67-4.81-4-10.37-4-16.69s1.33-11.86,4-16.63c2.67-4.77,6.29-8.44,10.88-10.99,4.58-2.55,9.66-3.83,15.22-3.83,7.29,0,12.93,2.1,16.91,6.31v-27.85h21.42ZM512.58,160.1c2.41-2.59,3.61-6.18,3.61-10.77s-1.18-8.04-3.55-10.6c-2.37-2.55-5.43-3.83-9.19-3.83s-6.84,1.28-9.25,3.83c-2.41,2.56-3.61,6.09-3.61,10.6s1.2,8.17,3.61,10.77c2.41,2.59,5.49,3.89,9.25,3.89s6.73-1.3,9.13-3.89Z"/>
      <path class="cls-11" d="M613.15,154.85h-44.42c.9,3.16,2.65,5.58,5.24,7.27,2.59,1.69,5.84,2.54,9.75,2.54,2.93,0,5.47-.41,7.61-1.24,2.14-.83,4.3-2.18,6.48-4.06l11.28,11.73c-5.94,6.62-14.62,9.92-26.04,9.92-7.14,0-13.42-1.35-18.83-4.06-5.41-2.71-9.6-6.46-12.57-11.27-2.97-4.81-4.45-10.26-4.45-16.35s1.45-11.4,4.34-16.18c2.89-4.77,6.9-8.51,12.01-11.22,5.11-2.71,10.86-4.06,17.25-4.06s11.61,1.26,16.57,3.78c4.96,2.52,8.89,6.16,11.78,10.94,2.89,4.77,4.34,10.43,4.34,16.97,0,.15-.11,1.92-.34,5.3ZM572.62,135.91c-2.22,1.88-3.63,4.44-4.23,7.67h25.03c-.6-3.23-2.01-5.79-4.23-7.67-2.22-1.88-4.98-2.82-8.29-2.82s-6.07.94-8.29,2.82Z"/>
      <path class="cls-11" d="M623.41,96.34h21.42v83.66h-21.42v-83.66Z"/>
      <path class="cls-11" d="M671.66,176.95c-5.26-2.71-9.38-6.46-12.35-11.27-2.97-4.81-4.45-10.26-4.45-16.35s1.48-11.42,4.45-16.24c2.97-4.81,7.06-8.55,12.29-11.22,5.22-2.67,11.14-4,17.76-4s12.55,1.33,17.81,4c5.26,2.67,9.36,6.39,12.29,11.16,2.93,4.77,4.4,10.2,4.4,16.29s-1.47,11.54-4.4,16.35c-2.93,4.81-7.03,8.57-12.29,11.27-5.26,2.71-11.2,4.06-17.81,4.06s-12.44-1.35-17.7-4.06ZM698.61,160.1c2.41-2.59,3.61-6.18,3.61-10.77s-1.2-8.04-3.61-10.6c-2.41-2.55-5.49-3.83-9.24-3.83s-6.84,1.28-9.25,3.83c-2.41,2.56-3.61,6.09-3.61,10.6s1.2,8.17,3.61,10.77c2.4,2.59,5.49,3.89,9.25,3.89s6.84-1.3,9.24-3.89Z"/>
      <path class="cls-2" d="M331.87,205.32c5.26,2.37,9.32,5.75,12.18,10.15,2.86,4.4,4.28,9.57,4.28,15.5s-1.43,11.09-4.28,15.45c-2.86,4.36-6.92,7.72-12.18,10.09-5.26,2.37-11.46,3.55-18.6,3.55h-13.75v20.63h-22.32v-78.92h36.08c7.14,0,13.34,1.18,18.6,3.55ZM322.29,239.48c2.33-1.99,3.5-4.83,3.5-8.51s-1.17-6.54-3.5-8.57c-2.33-2.03-5.79-3.04-10.37-3.04h-12.4v23.11h12.4c4.58,0,8.04-1,10.37-2.99Z"/>
      <path class="cls-2" d="M393.66,259.72h-12.18v20.97h-22.32v-78.92h36.08c7.14,0,13.34,1.18,18.6,3.55,5.26,2.37,9.32,5.75,12.18,10.15,2.86,4.4,4.28,9.57,4.28,15.5s-1.34,10.69-4,14.94c-2.67,4.25-6.48,7.57-11.44,9.98l17.02,24.8h-23.9l-14.32-20.97ZM404.26,222.4c-2.33-2.03-5.79-3.04-10.37-3.04h-12.4v23.11h12.4c4.58,0,8.04-1,10.37-2.99,2.33-1.99,3.5-4.83,3.5-8.51s-1.17-6.54-3.5-8.57Z"/>
      <path class="cls-2" d="M495.47,265.36h-33.37l-6.2,15.33h-22.77l34.84-78.92h21.99l34.95,78.92h-23.23l-6.2-15.33ZM488.93,248.9l-10.15-25.26-10.15,25.26h20.29Z"/>
      <path class="cls-2" d="M576.76,280.69l-16.35-24.47-16.12,24.47h-25.48l28.75-39.91-27.51-39.01h25.14l15.78,22.78,15.56-22.78h24.13l-27.51,38.11,29.31,40.81h-25.71Z"/>
      <path class="cls-2" d="M607.65,201.77h22.32v78.92h-22.32v-78.92Z"/>
      <path class="cls-2" d="M655,279.9c-6.01-1.58-10.9-3.68-14.66-6.31l7.33-16.46c3.53,2.33,7.63,4.21,12.29,5.64,4.66,1.43,9.24,2.14,13.75,2.14,8.57,0,12.85-2.14,12.85-6.43,0-2.26-1.22-3.93-3.66-5.02-2.44-1.09-6.37-2.24-11.78-3.44-5.94-1.28-10.9-2.65-14.88-4.12-3.99-1.47-7.4-3.81-10.26-7.05-2.86-3.23-4.28-7.59-4.28-13.08,0-4.81,1.31-9.15,3.95-13.02,2.63-3.87,6.56-6.93,11.78-9.19,5.22-2.25,11.63-3.38,19.22-3.38,5.19,0,10.3.58,15.33,1.75,5.04,1.17,9.47,2.88,13.3,5.13l-6.88,16.57c-7.52-4.06-14.81-6.09-21.87-6.09-4.44,0-7.67.66-9.7,1.97-2.03,1.32-3.04,3.03-3.04,5.13s1.2,3.68,3.61,4.74c2.4,1.05,6.27,2.14,11.61,3.27,6.01,1.28,10.99,2.65,14.94,4.12,3.95,1.47,7.37,3.8,10.26,6.99,2.89,3.2,4.34,7.54,4.34,13.02,0,4.73-1.32,9.02-3.95,12.85-2.63,3.83-6.58,6.9-11.84,9.19-5.26,2.29-11.65,3.44-19.17,3.44-6.39,0-12.59-.79-18.6-2.37Z"/>
      <path class="cls-3" d="M742.68,219.47h-24.24v-17.7h70.69v17.7h-24.13v61.22h-22.32v-61.22Z"/>
      <path class="cls-3" d="M831.98,259.72h-12.18v20.97h-22.32v-78.92h36.08c7.14,0,13.34,1.18,18.6,3.55,5.26,2.37,9.32,5.75,12.18,10.15,2.86,4.4,4.28,9.57,4.28,15.5s-1.33,10.69-4,14.94c-2.67,4.25-6.48,7.57-11.44,9.98l17.02,24.8h-23.9l-14.32-20.97ZM842.58,222.4c-2.33-2.03-5.79-3.04-10.37-3.04h-12.4v23.11h12.4c4.58,0,8.04-1,10.37-2.99,2.33-1.99,3.5-4.83,3.5-8.51s-1.17-6.54-3.5-8.57Z"/>
      <path class="cls-3" d="M933.79,265.36h-33.37l-6.2,15.33h-22.78l34.84-78.92h21.99l34.95,78.92h-23.23l-6.2-15.33ZM927.25,248.9l-10.15-25.26-10.15,25.26h20.29Z"/>
      <path class="cls-3" d="M1040.78,280.69l-.23-41.83-20.29,34.05h-9.92l-20.18-32.92v40.7h-20.63v-78.92h18.38l27.74,45.55,27.06-45.55h18.38l.23,78.92h-20.52Z"/>
      <path class="cls-3" d="M1129.96,265.36h-33.37l-6.2,15.33h-22.78l34.84-78.92h21.99l34.95,78.92h-23.23l-6.2-15.33ZM1123.43,248.9l-10.15-25.26-10.15,25.26h20.29Z"/>
    </g>
  </g>
  <text class="cls-4" transform="translate(75.87 327.88)"><tspan x="0" y="0">TEJIENDO EL </tspan><tspan class="cls-6" x="230.58" y="0">C</tspan><tspan x="253.75" y="0">ONOCIMIEN</tspan><tspan class="cls-7" x="458.53" y="0">T</tspan><tspan class="cls-5" x="477.79" y="0">O</tspan><tspan x="504.54" y="0">, TRANS</tspan><tspan class="cls-9" x="636.02" y="0">F</tspan><tspan x="656.48" y="0">ORMANDO </tspan><tspan class="cls-10" x="852.71" y="0">L</tspan><tspan class="cls-1" x="872.36" y="0">A REALI</tspan><tspan class="cls-8" x="1005.53" y="0">D</tspan><tspan x="1032.08" y="0">AD</tspan></text>
</svg>