<?xml version="1.0" encoding="UTF-8"?>
<svg id="Capa_1" data-name="Capa 1" xmlns="http://www.w3.org/2000/svg" xmlns:xlink="http://www.w3.org/1999/xlink" viewBox="0 0 500 212.36">
  <defs>
    <style>
      .cls-1 {
        fill: #fff;
      }

      .cls-2 {
        fill: url(#Degradado_sin_nombre_120);
      }

      .cls-3 {
        fill: url(#Degradado_sin_nombre_4-2);
      }

      .cls-4 {
        fill: url(#Degradado_sin_nombre_4-3);
      }

      .cls-5 {
        fill: url(#Degradado_sin_nombre_4);
      }

      .cls-6 {
        fill: url(#Degradado_sin_nombre_120-3);
      }

      .cls-7 {
        fill: url(#Degradado_sin_nombre_120-4);
      }

      .cls-8 {
        fill: url(#Degradado_sin_nombre_120-2);
      }

      .cls-9 {
        clip-path: url(#clippath);
      }
    </style>
    <linearGradient id="Degradado_sin_nombre_4" data-name="Degradado sin nombre 4" x1="1112.27" y1="-1513.28" x2="1138.8" y2="-1513.28" gradientTransform="translate(-1011.97 1579.72)" gradientUnits="userSpaceOnUse">
      <stop offset=".07" stop-color="#3ee9b2"/>
      <stop offset=".46" stop-color="#39f8cb"/>
      <stop offset="1" stop-color="#00e3fb"/>
    </linearGradient>
    <linearGradient id="Degradado_sin_nombre_4-2" data-name="Degradado sin nombre 4" x1="64.6" y1="97" x2="118.7" y2="113.11" gradientTransform="matrix(1,0,0,1,0,0)" xlink:href="#Degradado_sin_nombre_4"/>
    <linearGradient id="Degradado_sin_nombre_120" data-name="Degradado sin nombre 120" x1="78.8" y1="124.14" x2="108.81" y2="133.07" gradientUnits="userSpaceOnUse">
      <stop offset="0" stop-color="#32e986"/>
      <stop offset=".5" stop-color="#2ece83"/>
      <stop offset=".76" stop-color="#3fe3a9"/>
      <stop offset="1" stop-color="#39f8cb"/>
    </linearGradient>
    <linearGradient id="Degradado_sin_nombre_4-3" data-name="Degradado sin nombre 4" x1="125.96" y1="145.34" x2="125.96" y2="79.27" gradientTransform="matrix(1,0,0,1,0,0)" xlink:href="#Degradado_sin_nombre_4"/>
    <linearGradient id="Degradado_sin_nombre_120-2" data-name="Degradado sin nombre 120" x1="141.77" y1="59.8" x2="120.7" y2="92.45" xlink:href="#Degradado_sin_nombre_120"/>
    <linearGradient id="Degradado_sin_nombre_120-3" data-name="Degradado sin nombre 120" x1="141.77" y1="59.8" x2="120.7" y2="92.45" xlink:href="#Degradado_sin_nombre_120"/>
    <clipPath id="clippath">
      <path class="cls-6" d="M113.8,84.31c0,6.49,5.44,11.75,12.16,11.75s12.16-5.26,12.16-11.75-5.44-11.76-12.16-11.76-12.16,5.26-12.16,11.76"/>
    </clipPath>
    <linearGradient id="Degradado_sin_nombre_120-4" data-name="Degradado sin nombre 120" x1="141.77" y1="59.8" x2="120.7" y2="92.45" xlink:href="#Degradado_sin_nombre_120"/>
  </defs>
  <g>
    <path class="cls-1" d="M181.3,137.68c-3.18,0-6.36-.6-9.5-1.8-3.15-1.19-6.01-3.04-8.58-5.5-2.56-2.48-4.63-5.6-6.18-9.36-1.56-3.77-2.34-8.2-2.34-13.3,0-6.71,1.34-12.31,4-16.8,2.66-4.5,6.07-7.88,10.24-10.13,4.15-2.25,8.49-3.37,12.99-3.37,5.21,0,9.77,1.33,13.68,3.96,3.92,2.65,6.96,6.2,9.12,10.66,2.15,4.46,3.23,9.37,3.23,14.74s-1.15,10.72-3.46,15.43c-2.3,4.7-5.47,8.46-9.5,11.27-4.03,2.81-8.59,4.22-13.69,4.22ZM183.49,163.37c-5.02,0-9.63-.6-13.8-1.82-4.19-1.22-7.5-2.45-9.93-3.68l5.9-14c2.1,1.28,4.54,2.36,7.32,3.26,2.77.9,5.6,1.35,8.49,1.35,2.48,0,5.05-.4,7.73-1.21,2.69-.8,4.96-2.1,6.81-3.88,1.86-1.78,2.78-4.11,2.78-7v-5.84h-1.8l2.65-5.74v-34.08l-4.39-6.58h4.1v-5.84h16.19v57.07c0,4.58-.78,8.61-2.36,12.12-1.57,3.5-3.8,6.42-6.66,8.77-2.87,2.34-6.25,4.11-10.15,5.31-3.89,1.19-8.18,1.79-12.87,1.79ZM185.69,123.22c2.67,0,5.03-.66,7.12-1.99,2.08-1.33,3.71-3.2,4.89-5.62,1.18-2.42,1.77-5.23,1.77-8.41s-.58-5.98-1.75-8.27c-1.16-2.29-2.75-4.05-4.78-5.28s-4.33-1.86-6.92-1.86-5.09.62-7.17,1.86c-2.08,1.23-3.72,3-4.92,5.31-1.19,2.31-1.79,5.05-1.79,8.23s.58,5.94,1.74,8.35c1.16,2.42,2.75,4.3,4.78,5.65,2.02,1.35,4.38,2.02,7.03,2.02Z"/>
    <path class="cls-1" d="M266.98,139.76c-5.81,0-11.1-1.33-15.88-3.99-4.79-2.67-8.59-6.34-11.42-11.03-2.83-4.68-4.25-10.08-4.25-16.19s1.42-11.5,4.25-16.19c2.83-4.68,6.63-8.34,11.42-10.96,4.78-2.63,10.07-3.93,15.88-3.93s11.27,1.31,16.04,3.93c4.75,2.63,8.53,6.28,11.32,10.96,2.79,4.69,4.2,10.09,4.2,16.19s-1.4,11.51-4.2,16.19c-2.79,4.69-6.58,8.36-11.35,11.03-4.79,2.66-10.11,3.99-16,3.99ZM266.98,124.57c2.78,0,5.27-.67,7.49-2.02,2.21-1.35,3.95-3.22,5.23-5.62,1.28-2.4,1.91-5.2,1.91-8.38s-.61-5.81-1.86-8.2c-1.23-2.4-2.94-4.29-5.11-5.65-2.17-1.37-4.69-2.06-7.54-2.06s-5.33.66-7.56,1.99c-2.24,1.33-3.99,3.19-5.26,5.6-1.28,2.39-1.91,5.18-1.91,8.32s.64,5.98,1.94,8.38c1.29,2.4,3.05,4.27,5.25,5.62,2.21,1.35,4.69,2.02,7.42,2.02Z"/>
    <path class="cls-1" d="M318.42,138.86v-60.5h17.27v8.49h1.74l-4.05,4.28c.9-1.88,2.27-3.86,4.1-5.97,1.84-2.1,4.15-3.9,6.95-5.42s6.08-2.28,9.87-2.28c1.57,0,2.97.13,4.19.39,1.22.26,2.11.55,2.68.84l-7.15,16.98c-.37-.19-1.03-.39-1.99-.62-.96-.22-2.01-.34-3.17-.34-1.42,0-2.88.25-4.36.76-1.48.51-2.85,1.31-4.1,2.39-1.25,1.09-2.27,2.45-3.04,4.08-.77,1.62-1.15,3.56-1.15,5.82v31.09h-17.77Z"/>
    <path class="cls-1" d="M392.02,139.76c-4.08,0-7.68-.82-10.76-2.47-3.09-1.66-5.51-3.87-7.25-6.64-1.74-2.77-2.61-5.88-2.61-9.33,0-3.64.97-6.86,2.92-9.67,1.95-2.81,4.8-5.03,8.52-6.64,3.73-1.61,8.24-2.41,13.53-2.41h14.45v11.13h-12.31c-3.23,0-5.69.53-7.4,1.57-1.7,1.05-2.55,2.69-2.55,4.89,0,1.32.35,2.44,1.03,3.35.7.92,1.64,1.62,2.85,2.13s2.56.76,4.1.76c1.42,0,3.09-.27,5.01-.84,1.91-.56,3.56-1.5,4.98-2.8,1.4-1.32,2.11-3.08,2.11-5.29v-7.02l-.84-2.65v-8.27c0-1.2-.22-2.27-.65-3.2-.42-.94-1.08-1.74-1.94-2.41-.85-.67-1.91-1.19-3.14-1.55-1.24-.36-2.65-.54-4.22-.54-1.8,0-3.73.21-5.8.62-2.06.41-4.05.96-5.96,1.63-1.91.67-3.56,1.45-4.94,2.36l-5.9-13.39c1.5-.86,3.47-1.72,5.92-2.58,2.46-.86,5.27-1.58,8.43-2.17,3.17-.58,6.58-.86,10.21-.86,5.7,0,10.21.72,13.53,2.16,3.32,1.44,5.8,3.29,7.42,5.53,1.63,2.26,2.69,4.64,3.18,7.15.48,2.51.73,4.85.73,7.03v18.22c0,2.06.25,3.62.76,4.66.51,1.05,1.41,1.8,2.73,2.26l1.35.44-6.24,14.84-2.09-.67c-3.48-1.16-6.1-2.64-7.88-4.44-1.76-1.8-2.8-3.6-3.14-5.4l3.93,2.7h-6.97l4.66-1.4c-1.19,2.44-3.62,4.58-7.25,6.43-3.63,1.86-7.79,2.78-12.48,2.78Z"/>
  </g>
  <g>
    <rect class="cls-5" x="100.3" y="59.38" width="26.52" height="14.11" rx="7.05" ry="7.05" transform="translate(-13.71 99.76) rotate(-45)"/>
    <g>
      <path class="cls-3" d="M103.96,142.59c-18.44,0-33.44-14.99-33.44-33.43s14.99-33.44,33.44-33.44c6.68,0,21.25,1.94,28.62,9.32l-11.44,14.06c-1.58-1.57-9.27-3.99-15.77-3.99-8.41,0-13.76,4.04-13.76,12.45s3.84,13.55,12.25,13.55c6.45,0,15.33-3.13,17.24-5.46l14.16,14.83c-6.87,8.36-22.43,12.11-31.31,12.11Z"/>
      <path class="cls-2" d="M114.02,122.2s-6.51,17.28-33.43,10.99c0,0,14.58,15.93,38.36,6.28l-4.94-17.28Z"/>
      <rect class="cls-4" x="113.59" y="72.59" width="24.74" height="72.67" rx="12.37" ry="12.37"/>
      <g>
        <path class="cls-8" d="M113.8,84.31c0,6.49,5.44,11.75,12.16,11.75s12.16-5.26,12.16-11.75-5.44-11.76-12.16-11.76-12.16,5.26-12.16,11.76"/>
        <g class="cls-9">
          <polygon class="cls-7" points="149.48 80.14 130.26 107.06 102.43 88.47 121.65 61.56 149.48 80.14"/>
        </g>
      </g>
    </g>
  </g>
</svg>