<?xml version="1.0" encoding="UTF-8"?>
<svg id="Capa_1" data-name="Capa 1" xmlns="http://www.w3.org/2000/svg" xmlns:xlink="http://www.w3.org/1999/xlink" viewBox="0 0 500 212.36">
  <defs>
    <style>
      .cls-1 {
        clip-path: url(#clippath-1);
      }

      .cls-2 {
        clip-path: url(#clippath-3);
      }

      .cls-3 {
        clip-path: url(#clippath-2);
      }

      .cls-4 {
        fill: #fff;
      }

      .cls-5 {
        fill: url(#Degradado_sin_nombre_120);
      }

      .cls-6 {
        fill: url(#Degradado_sin_nombre_4-2);
      }

      .cls-7 {
        fill: url(#Degradado_sin_nombre_4);
      }

      .cls-8 {
        fill: url(#Degradado_sin_nombre_120-3);
      }

      .cls-9 {
        fill: url(#Degradado_sin_nombre_120-7);
      }

      .cls-10 {
        fill: url(#Degradado_sin_nombre_120-8);
      }

      .cls-11 {
        fill: url(#Degradado_sin_nombre_120-5);
      }

      .cls-12 {
        fill: url(#Degradado_sin_nombre_120-6);
      }

      .cls-13 {
        fill: url(#Degradado_sin_nombre_120-4);
      }

      .cls-14 {
        fill: url(#Degradado_sin_nombre_120-2);
      }

      .cls-15 {
        clip-path: url(#clippath);
      }
    </style>
    <linearGradient id="Degradado_sin_nombre_120" data-name="Degradado sin nombre 120" x1="89.4" y1="113.02" x2="65.9" y2="88.52" gradientUnits="userSpaceOnUse">
      <stop offset="0" stop-color="#32e986"/>
      <stop offset=".5" stop-color="#2ece83"/>
      <stop offset=".76" stop-color="#3fe3a9"/>
      <stop offset="1" stop-color="#39f8cb"/>
    </linearGradient>
    <clipPath id="clippath">
      <path class="cls-5" d="M55.32,92.13c0,7.5,6.29,13.59,14.05,13.59s14.05-6.08,14.05-13.59-6.29-13.59-14.05-13.59-14.05,6.08-14.05,13.59"/>
    </clipPath>
    <linearGradient id="Degradado_sin_nombre_120-2" data-name="Degradado sin nombre 120" x1="89.4" y1="113.02" x2="65.9" y2="88.52" xlink:href="#Degradado_sin_nombre_120"/>
    <linearGradient id="Degradado_sin_nombre_4" data-name="Degradado sin nombre 4" x1="18.86" y1="103.75" x2="78.88" y2="103.75" gradientUnits="userSpaceOnUse">
      <stop offset=".07" stop-color="#3ee9b2"/>
      <stop offset=".46" stop-color="#39f8cb"/>
      <stop offset="1" stop-color="#00e3fb"/>
    </linearGradient>
    <clipPath id="clippath-1">
      <path class="cls-7" d="M18.87,113.03s1.84,10.78,7.01,14.07c3.69,2.35,18.82,7.37,18.82,7.37l8.43-9.25s-6.67-7.74-3.89-22.58c2.8-14.95,17.49-28.37,29.65-20.53,0,0-9.54-9.06-23.26-9.06-6.05,0-13,.43-20.82,5.75,0,0-16.1,10.51-15.93,34.24"/>
    </clipPath>
    <linearGradient id="Degradado_sin_nombre_4-2" data-name="Degradado sin nombre 4" x1="1997.93" y1="2013.05" x2="1999.26" y2="2013.05" gradientTransform="translate(-5209.96 145896.16) rotate(-42.73) scale(51.43 -51.43)" xlink:href="#Degradado_sin_nombre_4"/>
    <linearGradient id="Degradado_sin_nombre_120-3" data-name="Degradado sin nombre 120" x1="18.87" y1="128.44" x2="78.96" y2="128.44" xlink:href="#Degradado_sin_nombre_120"/>
    <linearGradient id="Degradado_sin_nombre_120-4" data-name="Degradado sin nombre 120" x1="18.87" y1="128.44" x2="78.96" y2="128.44" xlink:href="#Degradado_sin_nombre_120"/>
    <clipPath id="clippath-2">
      <path class="cls-13" d="M78.96,134.24l-21.76-17.07s-1.34,4.43-8.49,9.92c-7.15,5.49-24.36,2.63-29.84-14.06,0,0,.76,31.89,36.7,30.8,0,0,13.21.26,23.39-9.59"/>
    </clipPath>
    <linearGradient id="Degradado_sin_nombre_120-5" data-name="Degradado sin nombre 120" x1="1988.02" y1="1973.89" x2="1989.35" y2="1973.89" gradientTransform="translate(-91658.42 91154.45) scale(46.11 -46.11)" xlink:href="#Degradado_sin_nombre_120"/>
    <linearGradient id="Degradado_sin_nombre_120-6" data-name="Degradado sin nombre 120" x1="87.64" y1="96.1" x2="63.3" y2="133.84" xlink:href="#Degradado_sin_nombre_120"/>
    <linearGradient id="Degradado_sin_nombre_120-7" data-name="Degradado sin nombre 120" x1="87.64" y1="96.1" x2="63.3" y2="133.84" xlink:href="#Degradado_sin_nombre_120"/>
    <clipPath id="clippath-3">
      <path class="cls-9" d="M55.32,124.43c0,7.5,6.29,13.59,14.05,13.59s14.05-6.08,14.05-13.59-6.29-13.59-14.05-13.59-14.05,6.08-14.05,13.59"/>
    </clipPath>
    <linearGradient id="Degradado_sin_nombre_120-8" data-name="Degradado sin nombre 120" x1="87.64" y1="96.1" x2="63.3" y2="133.84" xlink:href="#Degradado_sin_nombre_120"/>
  </defs>
  <path class="cls-4" d="M134.5,140.87c-5.99,0-11.45-1.33-16.37-3.98-4.93-2.65-8.85-6.31-11.77-10.98-2.92-4.67-4.38-10.05-4.38-16.14s1.46-11.47,4.38-16.14c2.92-4.67,6.84-8.31,11.77-10.93,4.93-2.61,10.38-3.92,16.37-3.92s11.61,1.31,16.52,3.92c4.91,2.62,8.8,6.26,11.68,10.93,2.88,4.67,4.32,10.05,4.32,16.14s-1.44,11.47-4.32,16.14c-2.88,4.67-6.78,8.33-11.71,10.98-4.93,2.65-10.42,3.98-16.49,3.98M134.5,125.74c2.86,0,5.43-.67,7.71-2.02,2.28-1.35,4.08-3.21,5.39-5.6,1.31-2.39,1.97-5.17,1.97-8.35s-.64-5.79-1.91-8.18c-1.27-2.39-3.03-4.27-5.27-5.63-2.24-1.36-4.83-2.05-7.77-2.05s-5.5.66-7.8,1.99c-2.3,1.33-4.11,3.18-5.42,5.58-1.31,2.39-1.97,5.16-1.97,8.29s.67,5.96,2,8.35c1.33,2.39,3.14,4.26,5.42,5.6,2.28,1.35,4.83,2.02,7.65,2.02"/>
  <path class="cls-4" d="M201.94,140.6c-3.67,0-6.75-.78-9.24-2.35-2.48-1.57-4.35-3.64-5.6-6.21-1.25-2.57-1.88-5.41-1.88-8.51V48.2h18.53v72.6c0,.98.14,1.82.41,2.52.27.7.7,1.25,1.29,1.64.59.4,1.41.6,2.46.6.62,0,1.14-.06,1.55-.17.41-.11.75-.21,1.03-.28v14.06c-1.13.42-2.45.76-3.96,1.02-1.51.26-3.04.4-4.6.4"/>
  <path class="cls-4" d="M242,140.6c-3.67,0-6.75-.78-9.24-2.35-2.48-1.57-4.35-3.64-5.6-6.21-1.25-2.57-1.88-5.41-1.88-8.51V48.2h18.53v72.6c0,.98.14,1.82.41,2.52.27.7.7,1.25,1.29,1.64.59.4,1.41.6,2.46.6.62,0,1.14-.06,1.55-.17.41-.11.75-.21,1.03-.28v14.06c-1.13.42-2.45.76-3.96,1.02-1.51.26-3.04.4-4.6.4"/>
  <path class="cls-4" d="M368.42,138.8c-3.29,0-6.55-.6-9.8-1.79-3.25-1.2-6.19-3.03-8.84-5.49-2.65-2.47-4.77-5.58-6.38-9.33-1.6-3.76-2.41-8.17-2.41-13.26,0-6.69,1.37-12.27,4.12-16.76,2.74-4.48,6.26-7.85,10.55-10.09,4.29-2.24,8.75-3.36,13.39-3.36,5.37,0,10.07,1.32,14.11,3.95,4.04,2.63,7.17,6.17,9.39,10.62,2.22,4.45,3.33,9.34,3.33,14.68s-1.19,10.7-3.56,15.38c-2.38,4.69-5.64,8.43-9.79,11.24-4.15,2.8-8.86,4.2-14.11,4.2M370.68,164.41c-5.18,0-9.92-.61-14.23-1.82-4.31-1.21-7.72-2.44-10.23-3.67l6.09-13.96c2.16,1.27,4.67,2.35,7.53,3.25,2.86.9,5.78,1.35,8.75,1.35,2.55,0,5.21-.4,7.97-1.21,2.76-.8,5.1-2.09,7.01-3.87,1.91-1.77,2.87-4.1,2.87-6.98v-5.83h-1.85l2.72-5.72v-33.96l-4.52-6.56h4.23v-6.7h16.69v57.76c0,4.56-.81,8.58-2.43,12.08-1.62,3.49-3.91,6.41-6.87,8.74-2.96,2.33-6.44,4.1-10.46,5.3-4.02,1.2-8.44,1.79-13.27,1.79M372.94,124.39c2.74,0,5.19-.66,7.33-1.99,2.15-1.32,3.83-3.2,5.04-5.6,1.22-2.41,1.83-5.2,1.83-8.38s-.6-5.96-1.8-8.24c-1.2-2.28-2.84-4.04-4.93-5.27-2.09-1.23-4.46-1.85-7.13-1.85s-5.24.62-7.39,1.85c-2.14,1.23-3.83,3-5.07,5.3-1.24,2.3-1.85,5.04-1.85,8.21s.6,5.91,1.8,8.32c1.2,2.41,2.84,4.29,4.93,5.63,2.09,1.35,4.5,2.02,7.25,2.02"/>
  <path class="cls-4" d="M298.67,140.87c-6.76,0-12.62-1.32-17.56-3.95-4.95-2.63-8.76-6.28-11.45-10.93-2.69-4.65-4.03-9.99-4.03-16,0-6.35,1.41-11.85,4.23-16.51,2.82-4.65,6.57-8.26,11.24-10.82,4.67-2.56,9.79-3.84,15.36-3.84s10.23,1.2,14.58,3.59c4.35,2.39,7.8,5.7,10.35,9.92,2.55,4.22,3.83,9.13,3.83,14.74,0,1.49-.09,2.97-.26,4.43-.17,1.46-.4,2.8-.67,4.04h-44.63v-11.1h28.69c0-2.47-.52-4.58-1.57-6.33-1.04-1.76-2.47-3.1-4.29-4.04-1.82-.93-3.9-1.4-6.26-1.4-3.13,0-5.8.75-8,2.24-2.2,1.49-3.89,3.5-5.07,6.02-1.18,2.52-1.77,5.35-1.77,8.49,0,3.48.71,6.52,2.14,9.14,1.43,2.62,3.43,4.64,6,6.08,2.57,1.44,5.53,2.16,8.9,2.16,1.89,0,3.81-.21,5.74-.62,1.93-.41,3.71-.95,5.33-1.63,1.62-.67,2.92-1.36,3.88-2.07l5.68,13.23c-2.32,1.53-5.27,2.77-8.84,3.73-3.58.95-7.43,1.43-11.56,1.43"/>
  <path class="cls-4" d="M454.59,140.64c-6.76,0-12.62-1.32-17.56-3.95-4.95-2.63-8.76-6.28-11.45-10.93-2.69-4.65-4.03-9.99-4.03-16,0-6.35,1.41-11.85,4.23-16.51,2.82-4.65,6.57-8.26,11.24-10.82,4.67-2.56,9.79-3.84,15.36-3.84s10.23,1.2,14.58,3.59c4.35,2.39,7.8,5.7,10.35,9.92,2.55,4.22,3.83,9.13,3.83,14.74,0,1.49-.09,2.97-.26,4.43-.17,1.46-.4,2.8-.67,4.04h-44.63v-11.1h28.69c0-2.47-.52-4.58-1.57-6.33-1.04-1.76-2.47-3.1-4.29-4.04-1.82-.93-3.9-1.4-6.26-1.4-3.13,0-5.8.75-8,2.24-2.2,1.49-3.89,3.5-5.07,6.02-1.18,2.52-1.77,5.35-1.77,8.49,0,3.48.71,6.52,2.14,9.14,1.43,2.62,3.43,4.64,6,6.08,2.57,1.44,5.53,2.16,8.9,2.16,1.89,0,3.81-.21,5.74-.62,1.93-.41,3.71-.95,5.33-1.63,1.62-.67,2.92-1.36,3.88-2.07l5.68,13.23c-2.32,1.53-5.27,2.77-8.84,3.73-3.58.95-7.43,1.43-11.56,1.43"/>
  <g>
    <path class="cls-5" d="M55.32,92.13c0,7.5,6.29,13.59,14.05,13.59s14.05-6.08,14.05-13.59-6.29-13.59-14.05-13.59-14.05,6.08-14.05,13.59"/>
    <g class="cls-15">
      <polygon class="cls-14" points="58.6 114.45 46.29 81.72 80.14 69.82 92.44 102.55 58.6 114.45"/>
    </g>
  </g>
  <g>
    <path class="cls-7" d="M18.87,113.03s1.84,10.78,7.01,14.07c3.69,2.35,18.82,7.37,18.82,7.37l8.43-9.25s-6.67-7.74-3.89-22.58c2.8-14.95,17.49-28.37,29.65-20.53,0,0-9.54-9.06-23.26-9.06-6.05,0-13,.43-20.82,5.75,0,0-16.1,10.51-15.93,34.24"/>
    <g class="cls-1">
      <polygon class="cls-6" points="-15.14 101.21 49.71 43.28 109.71 106.09 44.86 164.02 -15.14 101.21"/>
    </g>
  </g>
  <g>
    <path class="cls-8" d="M78.96,134.24l-21.76-17.07s-1.34,4.43-8.49,9.92c-7.15,5.49-24.36,2.63-29.84-14.06,0,0,.76,31.89,36.7,30.8,0,0,13.21.26,23.39-9.59"/>
    <g class="cls-3">
      <rect class="cls-11" x="18.87" y="113.03" width="61.42" height="31.75"/>
    </g>
  </g>
  <g>
    <path class="cls-12" d="M55.32,124.43c0,7.5,6.29,13.59,14.05,13.59s14.05-6.08,14.05-13.59-6.29-13.59-14.05-13.59-14.05,6.08-14.05,13.59"/>
    <g class="cls-2">
      <polygon class="cls-10" points="96.56 119.61 74.35 150.72 42.18 129.24 64.39 98.13 96.56 119.61"/>
    </g>
  </g>
</svg>