<?xml version="1.0" encoding="UTF-8"?>
<svg id="Capa_1" data-name="Capa 1" xmlns="http://www.w3.org/2000/svg" xmlns:xlink="http://www.w3.org/1999/xlink" viewBox="0 0 653.62 212.36">
  <defs>
    <style>
      .cls-1 {
        fill: #fff;
      }

      .cls-2 {
        fill: url(#Degradado_sin_nombre_120);
      }

      .cls-3 {
        fill: url(#Degradado_sin_nombre_4-2);
      }

      .cls-4 {
        fill: url(#Degradado_sin_nombre_4-3);
      }

      .cls-5 {
        fill: url(#Degradado_sin_nombre_4);
      }
    </style>
    <linearGradient id="Degradado_sin_nombre_4" data-name="Degradado sin nombre 4" x1="80.96" y1="109.49" x2="126.56" y2="109.49" gradientUnits="userSpaceOnUse">
      <stop offset=".07" stop-color="#3ee9b2"/>
      <stop offset=".46" stop-color="#39f8cb"/>
      <stop offset="1" stop-color="#00e3fb"/>
    </linearGradient>
    <linearGradient id="Degradado_sin_nombre_4-2" data-name="Degradado sin nombre 4" x1="52.79" y1="80.83" x2="97.38" y2="136.8" xlink:href="#Degradado_sin_nombre_4"/>
    <linearGradient id="Degradado_sin_nombre_4-3" data-name="Degradado sin nombre 4" x1="52.15" y1="146.2" x2="54.35" y2="85.17" xlink:href="#Degradado_sin_nombre_4"/>
    <linearGradient id="Degradado_sin_nombre_120" data-name="Degradado sin nombre 120" x1="70.23" y1="105.62" x2="47.94" y2="140.17" gradientUnits="userSpaceOnUse">
      <stop offset="0" stop-color="#32e986"/>
      <stop offset=".5" stop-color="#2ece83"/>
      <stop offset=".76" stop-color="#3fe3a9"/>
      <stop offset="1" stop-color="#39f8cb"/>
    </linearGradient>
  </defs>
  <g>
    <path class="cls-1" d="M177.43,141.32c-6.63,0-12.38-1.33-17.23-4.01-4.85-2.67-8.59-6.36-11.23-11.09-2.63-4.71-3.95-10.13-3.95-16.22,0-6.45,1.39-12.02,4.16-16.75,2.76-4.72,6.44-8.38,11.02-10.98,4.59-2.59,9.62-3.89,15.07-3.89s10.03,1.22,14.3,3.64c4.26,2.43,7.65,5.79,10.15,10.07,2.51,4.27,3.75,9.26,3.75,14.95,0,1.51-.09,3.02-.26,4.5-.17,1.47-.38,2.84-.65,4.09h-43.78v-11.26h28.14c0-2.51-.51-4.65-1.54-6.43-1.02-1.78-2.42-3.14-4.21-4.09-1.78-.95-3.83-1.42-6.14-1.42-3.07,0-5.68.76-7.85,2.27-2.15,1.51-3.82,3.55-4.97,6.11-1.16,2.56-1.74,5.44-1.74,8.61,0,3.53.7,6.62,2.1,9.27,1.41,2.65,3.37,4.7,5.88,6.16,2.53,1.46,5.44,2.2,8.73,2.2,1.85,0,3.73-.21,5.63-.63,1.9-.42,3.64-.97,5.23-1.65,1.59-.68,2.86-1.38,3.81-2.1l5.58,13.42c-2.27,1.55-5.17,2.81-8.68,3.77-3.5.97-7.28,1.45-11.34,1.45Z"/>
    <path class="cls-1" d="M217.56,94.14v-14.9h42.35v14.9h-42.35ZM250.14,141.32c-7.5,0-13.11-2.09-16.8-6.28-3.7-4.19-5.54-9.56-5.54-16.12v-57.31h17.96v56.85c0,2.58.64,4.46,1.91,5.63,1.27,1.18,2.84,1.77,4.69,1.77.91,0,1.77-.12,2.58-.34.82-.23,1.55-.51,2.2-.85l5.8,14.16c-1.71.83-3.69,1.46-5.95,1.88-2.25.42-4.53.62-6.84.62Z"/>
    <path class="cls-1" d="M298.28,141.32c-4.13,0-7.76-.83-10.88-2.49-3.12-1.67-5.58-3.91-7.33-6.72-1.76-2.8-2.64-5.95-2.64-9.43,0-3.68.98-6.94,2.95-9.78,1.97-2.85,4.85-5.08,8.61-6.72,3.77-1.63,8.34-2.44,13.68-2.44h14.61v11.26h-12.45c-3.26,0-5.76.53-7.48,1.59-1.72,1.07-2.58,2.72-2.58,4.95,0,1.33.35,2.46,1.04,3.39.7.93,1.66,1.64,2.88,2.15,1.22.51,2.59.77,4.15.77,1.44,0,3.12-.28,5.06-.85,1.93-.56,3.6-1.51,5.03-2.84,1.42-1.33,2.13-3.11,2.13-5.35v-7.1l-.85-2.68v-8.36c0-1.22-.22-2.29-.66-3.24-.43-.95-1.09-1.76-1.96-2.44-.86-.68-1.93-1.2-3.18-1.57-1.26-.36-2.68-.54-4.26-.54-1.82,0-3.77.21-5.86.63-2.08.42-4.09.97-6.02,1.65-1.93.68-3.6,1.47-5,2.39l-5.97-13.54c1.51-.87,3.51-1.74,5.99-2.61,2.48-.87,5.33-1.6,8.53-2.2,3.21-.59,6.65-.87,10.32-.87,5.77,0,10.32.72,13.68,2.19,3.36,1.46,5.86,3.33,7.5,5.6,1.65,2.28,2.72,4.69,3.22,7.23.49,2.54.74,4.9.74,7.11v18.42c0,2.08.26,3.66.77,4.71.51,1.07,1.43,1.82,2.76,2.28l1.36.45-6.31,15.01-2.11-.68c-3.52-1.17-6.17-2.67-7.96-4.49-1.78-1.82-2.84-3.64-3.18-5.46l3.98,2.73h-7.05l4.71-1.42c-1.2,2.46-3.66,4.63-7.33,6.5-3.67,1.88-7.88,2.81-12.62,2.81Z"/>
    <path class="cls-1" d="M356.27,140.42v-61.18h17.4v8.02h2.73l-5.12,6.37c.76-3.34,2.19-6.15,4.29-8.42,2.11-2.27,4.64-3.99,7.59-5.15,2.96-1.15,6.13-1.73,9.5-1.73,4.09,0,7.62.94,10.57,2.81,2.96,1.88,5.23,4.47,6.82,7.78,1.6,3.33,2.39,7.14,2.39,11.46v40.03h-17.96v-36.11c0-3.68-.87-6.43-2.62-8.27-1.74-1.83-4.1-2.75-7.1-2.75-1.97,0-3.75.43-5.35,1.28-1.59.85-2.85,2.11-3.77,3.77-.93,1.67-1.4,3.72-1.4,6.14v35.94h-17.96Z"/>
    <path class="cls-1" d="M463.53,141.32c-5.87,0-11.23-1.34-16.05-4.03-4.84-2.7-8.69-6.41-11.54-11.15-2.86-4.73-4.3-10.19-4.3-16.37s1.44-11.63,4.3-16.37c2.86-4.73,6.71-8.43,11.54-11.09,4.83-2.65,10.18-3.98,16.05-3.98s11.4,1.32,16.21,3.98c4.81,2.65,8.62,6.35,11.45,11.09,2.82,4.74,4.24,10.2,4.24,16.37s-1.42,11.64-4.24,16.37c-2.82,4.74-6.65,8.45-11.48,11.15-4.84,2.69-10.22,4.03-16.18,4.03ZM463.53,125.97c2.81,0,5.33-.68,7.57-2.05,2.24-1.36,4-3.25,5.29-5.68,1.29-2.43,1.93-5.26,1.93-8.47s-.62-5.87-1.88-8.29c-1.25-2.43-2.97-4.34-5.17-5.71-2.2-1.39-4.74-2.08-7.62-2.08s-5.39.67-7.64,2.01c-2.26,1.34-4.03,3.23-5.32,5.66-1.29,2.42-1.93,5.23-1.93,8.41s.65,6.04,1.96,8.47c1.3,2.43,3.08,4.32,5.31,5.68,2.24,1.36,4.74,2.05,7.5,2.05Z"/>
    <path class="cls-1" d="M524.88,72.25c-3.07,0-5.67-1.06-7.79-3.19-2.12-2.12-3.18-4.69-3.18-7.73s1.06-5.71,3.18-7.81c2.12-2.11,4.72-3.16,7.79-3.16s5.66,1.04,7.76,3.16c2.1,2.1,3.16,4.71,3.16,7.81s-1.06,5.61-3.16,7.73c-2.1,2.13-4.69,3.19-7.76,3.19ZM515.84,140.42v-61.18h17.96v61.18h-17.96Z"/>
    <path class="cls-1" d="M575.17,141.32c-4.13,0-7.76-.83-10.88-2.49-3.12-1.67-5.58-3.91-7.33-6.72-1.76-2.8-2.64-5.95-2.64-9.43,0-3.68.98-6.94,2.95-9.78,1.97-2.85,4.85-5.08,8.61-6.72,3.77-1.63,8.34-2.44,13.68-2.44h14.61v11.26h-12.45c-3.26,0-5.76.53-7.48,1.59-1.72,1.07-2.58,2.72-2.58,4.95,0,1.33.35,2.46,1.04,3.39.7.93,1.66,1.64,2.88,2.15,1.22.51,2.59.77,4.15.77,1.44,0,3.12-.28,5.06-.85,1.93-.56,3.6-1.51,5.03-2.84,1.42-1.33,2.13-3.11,2.13-5.35v-7.1l-.85-2.68v-8.36c0-1.22-.22-2.29-.66-3.24-.43-.95-1.09-1.76-1.96-2.44-.86-.68-1.93-1.2-3.18-1.57-1.26-.36-2.68-.54-4.26-.54-1.82,0-3.77.21-5.86.63-2.08.42-4.09.97-6.02,1.65-1.93.68-3.6,1.47-5,2.39l-5.97-13.54c1.51-.87,3.51-1.74,5.99-2.61,2.48-.87,5.33-1.6,8.53-2.2,3.21-.59,6.65-.87,10.32-.87,5.77,0,10.32.72,13.68,2.19,3.36,1.46,5.86,3.33,7.5,5.6,1.65,2.28,2.72,4.69,3.22,7.23.49,2.54.74,4.9.74,7.11v18.42c0,2.08.26,3.66.77,4.71.51,1.07,1.43,1.82,2.76,2.28l1.36.45-6.31,15.01-2.11-.68c-3.52-1.17-6.17-2.67-7.96-4.49-1.78-1.82-2.84-3.64-3.18-5.46l3.98,2.73h-7.05l4.71-1.42c-1.2,2.46-3.66,4.63-7.33,6.5-3.67,1.88-7.88,2.81-12.62,2.81Z"/>
  </g>
  <g>
    <g>
      <path class="cls-5" d="M114.08,142.75c-5.01,0-8.04-2.01-9.72-3.73-3.65-3.73-3.75-8.76-3.69-10.22.08-2.45.07-19.87.07-26.55-2.02,1.51-4.73,5.78-6.45,9.86l-6.05,14.39-7.29-41.38,1.93-1.7c.34-.3,8.4-7.38,18.07-7.19,14.38.02,23.95,8.97,25.6,23.94l-.02,29.28c0,.47.06,5.91-3.62,9.77-2.14,2.24-5.08,3.47-8.51,3.53h-.33Z"/>
      <path class="cls-3" d="M83.61,143.57c-5,0-8.04-2-9.72-3.71-3.54-3.61-3.77-8.35-3.71-10.22.09-2.47.08-19.88.08-26.56-2.02,1.51-4.73,5.77-6.44,9.85l-6.56,15.6-5.75-43.29,1.79-1.61c.29-.27,7.36-6.58,17.14-6.58h.03c14.38.02,23.95,8.97,25.61,23.93l-.02,29.29c0,.47.06,5.91-3.62,9.77-2.14,2.24-5.08,3.47-8.51,3.53h-.33Z"/>
    </g>
    <path class="cls-4" d="M53.48,143.76c-7.12,0-12.91-5.79-12.91-12.92v-43.21c0-7.13,5.79-12.92,12.91-12.92s12.92,5.79,12.92,12.92v43.21c0,7.13-5.79,12.92-12.92,12.92Z"/>
    <path class="cls-2" d="M40.63,131.56c0,6.87,5.76,12.44,12.87,12.44s12.87-5.57,12.87-12.44-5.76-12.44-12.87-12.44-12.87,5.57-12.87,12.44"/>
  </g>
</svg>