<?xml version="1.0" encoding="UTF-8"?>
<svg id="Capa_1" data-name="Capa 1" xmlns="http://www.w3.org/2000/svg" xmlns:xlink="http://www.w3.org/1999/xlink" viewBox="0 0 689.42 212.36">
  <defs>
    <style>
      .cls-1 {
        clip-path: url(#clippath-1);
      }

      .cls-2 {
        fill: #fff;
      }

      .cls-3 {
        fill: url(#Degradado_sin_nombre_120);
      }

      .cls-4 {
        fill: url(#Degradado_sin_nombre_4-2);
      }

      .cls-5 {
        fill: url(#Degradado_sin_nombre_4-4);
      }

      .cls-6 {
        fill: url(#Degradado_sin_nombre_4-3);
      }

      .cls-7 {
        fill: url(#Degradado_sin_nombre_4);
      }

      .cls-8 {
        fill: url(#Degradado_sin_nombre_120-3);
      }

      .cls-9 {
        fill: url(#Degradado_sin_nombre_120-4);
      }

      .cls-10 {
        fill: url(#Degradado_sin_nombre_120-2);
      }

      .cls-11 {
        clip-path: url(#clippath);
      }
    </style>
    <linearGradient id="Degradado_sin_nombre_4" data-name="Degradado sin nombre 4" x1="52.26" y1="74.86" x2="108.91" y2="132.85" gradientUnits="userSpaceOnUse">
      <stop offset=".07" stop-color="#3ee9b2"/>
      <stop offset=".46" stop-color="#39f8cb"/>
      <stop offset="1" stop-color="#00e3fb"/>
    </linearGradient>
    <linearGradient id="Degradado_sin_nombre_120" data-name="Degradado sin nombre 120" x1="79.03" y1="86.92" x2="34.4" y2="156.09" gradientUnits="userSpaceOnUse">
      <stop offset="0" stop-color="#32e986"/>
      <stop offset=".5" stop-color="#2ece83"/>
      <stop offset=".76" stop-color="#3fe3a9"/>
      <stop offset="1" stop-color="#39f8cb"/>
    </linearGradient>
    <linearGradient id="Degradado_sin_nombre_4-2" data-name="Degradado sin nombre 4" x1="71.98" y1="139.1" x2="51" y2="171.61" xlink:href="#Degradado_sin_nombre_4"/>
    <linearGradient id="Degradado_sin_nombre_4-3" data-name="Degradado sin nombre 4" x1="71.98" y1="139.1" x2="51" y2="171.61" xlink:href="#Degradado_sin_nombre_4"/>
    <clipPath id="clippath">
      <path class="cls-6" d="M44.12,163.51c0,6.47,5.42,11.71,12.11,11.71s12.11-5.24,12.11-11.71-5.42-11.71-12.11-11.71-12.11,5.24-12.11,11.71"/>
    </clipPath>
    <linearGradient id="Degradado_sin_nombre_4-4" data-name="Degradado sin nombre 4" x1="71.98" y1="139.1" x2="51" y2="171.61" xlink:href="#Degradado_sin_nombre_4"/>
    <linearGradient id="Degradado_sin_nombre_120-2" data-name="Degradado sin nombre 120" x1="96.9" y1="106.48" x2="75.92" y2="139" xlink:href="#Degradado_sin_nombre_120"/>
    <linearGradient id="Degradado_sin_nombre_120-3" data-name="Degradado sin nombre 120" x1="96.9" y1="106.48" x2="75.92" y2="139" xlink:href="#Degradado_sin_nombre_120"/>
    <clipPath id="clippath-1">
      <path class="cls-8" d="M69.04,130.89c0,6.47,5.42,11.71,12.11,11.71s12.11-5.24,12.11-11.71-5.42-11.71-12.11-11.71-12.11,5.24-12.11,11.71"/>
    </clipPath>
    <linearGradient id="Degradado_sin_nombre_120-4" data-name="Degradado sin nombre 120" x1="96.9" y1="106.48" x2="75.92" y2="139" xlink:href="#Degradado_sin_nombre_120"/>
  </defs>
  <path class="cls-2" d="M130.27,139.12v-60.82h17.36v8.53h1.75l-4.07,4.3c.9-1.89,2.28-3.88,4.12-6,1.85-2.11,4.18-3.92,6.98-5.45,2.81-1.53,6.12-2.29,9.92-2.29,1.58,0,2.99.13,4.21.39,1.23.26,2.12.55,2.69.85l-7.19,17.07c-.37-.19-1.04-.39-2-.63-.96-.22-2.02-.34-3.19-.34-1.43,0-2.89.25-4.39.76-1.48.51-2.86,1.31-4.12,2.41s-2.28,2.46-3.05,4.1c-.77,1.63-1.16,3.58-1.16,5.85v31.25h-17.87Z"/>
  <path class="cls-2" d="M214.2,140.02c-5.84,0-11.16-1.34-15.96-4.01-4.81-2.68-8.64-6.37-11.48-11.09-2.84-4.71-4.27-10.13-4.27-16.28s1.43-11.56,4.27-16.28c2.84-4.71,6.67-8.38,11.48-11.02,4.8-2.64,10.12-3.95,15.96-3.95s11.33,1.31,16.12,3.95c4.78,2.64,8.57,6.32,11.38,11.02,2.81,4.72,4.22,10.14,4.22,16.28s-1.41,11.57-4.22,16.28c-2.81,4.72-6.61,8.4-11.41,11.09-4.81,2.67-10.16,4.01-16.09,4.01ZM214.2,124.76c2.8,0,5.3-.68,7.52-2.03,2.23-1.36,3.97-3.23,5.26-5.65,1.28-2.42,1.92-5.23,1.92-8.43s-.61-5.84-1.87-8.25c-1.24-2.42-2.96-4.31-5.14-5.68-2.18-1.38-4.72-2.07-7.58-2.07s-5.36.67-7.6,2c-2.25,1.34-4.01,3.21-5.29,5.63-1.28,2.41-1.92,5.2-1.92,8.36s.65,6.01,1.95,8.43c1.29,2.42,3.06,4.29,5.28,5.65,2.23,1.36,4.72,2.03,7.46,2.03Z"/>
  <path class="cls-2" d="M285.76,139.8c-4.48,0-8.7-.81-12.65-2.41-3.96-1.6-7.45-3.82-10.46-6.63-3.01-2.83-5.37-6.15-7.07-9.95-1.7-3.8-2.54-7.92-2.54-12.33s.84-8.44,2.49-12.21c1.65-3.76,3.96-7.07,6.92-9.89,2.96-2.83,6.38-5.03,10.26-6.61,3.89-1.59,8.03-2.37,12.44-2.37,3.47,0,6.81.49,10.06,1.46,3.24.99,6.17,2.36,8.76,4.13l-6.56,14.36c-1.05-.94-2.19-1.76-3.42-2.44-1.22-.68-2.54-1.2-3.95-1.55-1.41-.36-2.89-.54-4.44-.54-3.23,0-6.02.71-8.33,2.15-2.32,1.43-4.1,3.32-5.34,5.68-1.25,2.35-1.87,4.94-1.87,7.77,0,2.98.67,5.67,2,8.09,1.34,2.41,3.17,4.32,5.48,5.73,2.32,1.41,4.97,2.12,7.95,2.12,2.48,0,4.85-.43,7.12-1.3,2.26-.86,3.93-1.8,5.02-2.82l6.39,14.64c-2.14,1.31-4.8,2.47-7.97,3.44-3.17.99-6.59,1.47-10.29,1.47Z"/>
  <path class="cls-2" d="M350.18,140.02c-6.59,0-12.3-1.32-17.13-3.98-4.82-2.65-8.54-6.33-11.16-11.02-2.62-4.68-3.93-10.07-3.93-16.13,0-6.41,1.38-11.95,4.13-16.65,2.74-4.7,6.4-8.33,10.96-10.92,4.57-2.58,9.56-3.87,14.99-3.87s9.97,1.21,14.21,3.61c4.24,2.42,7.61,5.75,10.09,10.02,2.49,4.25,3.73,9.21,3.73,14.86,0,1.5-.08,3-.25,4.47-.17,1.46-.38,2.82-.65,4.07h-43.53v-11.19h27.98c0-2.49-.51-4.62-1.53-6.39s-2.41-3.13-4.19-4.07c-1.77-.94-3.8-1.41-6.1-1.41-3.05,0-5.65.75-7.8,2.26-2.14,1.5-3.79,3.53-4.94,6.07-1.16,2.54-1.73,5.41-1.73,8.56,0,3.51.7,6.58,2.09,9.22,1.4,2.64,3.35,4.67,5.85,6.13,2.51,1.45,5.41,2.18,8.68,2.18,1.84,0,3.71-.21,5.6-.63s3.61-.96,5.2-1.64c1.58-.68,2.84-1.37,3.78-2.09l5.54,13.34c-2.26,1.54-5.14,2.8-8.63,3.75-3.48.96-7.24,1.44-11.28,1.44Z"/>
  <path class="cls-2" d="M416.76,140.02c-3.61,0-7.08-.61-10.4-1.87-3.32-1.24-6.23-3-8.76-5.28-2.52-2.28-4.41-4.95-5.65-8l14.02-6.16c.94,1.77,2.35,3.44,4.24,5.02,1.88,1.59,4.1,2.37,6.67,2.37,1.32,0,2.5-.23,3.53-.7,1.04-.48,1.85-1.09,2.44-1.87s.87-1.58.87-2.41c0-1.13-.43-2.08-1.32-2.85-.88-.77-1.99-1.43-3.34-1.98-1.34-.55-2.74-1.03-4.24-1.44-1.48-.41-2.85-.82-4.09-1.19-2.87-.87-5.57-2.06-8.12-3.56-2.54-1.5-4.6-3.46-6.19-5.85-1.58-2.4-2.37-5.29-2.37-8.68,0-3.58.92-6.74,2.78-9.5,1.84-2.74,4.39-4.89,7.63-6.41,3.23-1.53,6.93-2.29,11.08-2.29,5.16,0,9.81,1.19,13.96,3.56,4.15,2.37,7.07,5.52,8.76,9.43l-13.74,5.95c-.71-1.18-1.77-2.33-3.17-3.48-1.39-1.16-3.13-1.73-5.19-1.73-1.77,0-3.24.46-4.41,1.36-1.18.9-1.76,2.03-1.76,3.39s.58,2.46,1.76,3.31c1.17.85,2.65,1.56,4.46,2.15,1.81.58,3.7,1.16,5.65,1.72,1.52.41,3.26,1.01,5.26,1.78,2,.77,3.95,1.82,5.85,3.14,1.91,1.32,3.49,3.02,4.75,5.09,1.27,2.08,1.9,4.62,1.9,7.63,0,3.8-1.04,7.18-3.11,10.09-2.08,2.93-4.84,5.19-8.31,6.81-3.47,1.62-7.27,2.43-11.43,2.43Z"/>
  <path class="cls-2" d="M480.17,140.02c-3.61,0-7.08-.61-10.4-1.87-3.32-1.24-6.23-3-8.76-5.28-2.52-2.28-4.41-4.95-5.65-8l14.02-6.16c.94,1.77,2.35,3.44,4.24,5.02,1.88,1.59,4.1,2.37,6.67,2.37,1.32,0,2.5-.23,3.53-.7,1.04-.48,1.85-1.09,2.44-1.87s.87-1.58.87-2.41c0-1.13-.43-2.08-1.32-2.85-.88-.77-1.99-1.43-3.34-1.98-1.34-.55-2.74-1.03-4.24-1.44-1.48-.41-2.85-.82-4.09-1.19-2.87-.87-5.57-2.06-8.12-3.56-2.54-1.5-4.6-3.46-6.19-5.85-1.58-2.4-2.37-5.29-2.37-8.68,0-3.58.92-6.74,2.78-9.5,1.84-2.74,4.39-4.89,7.63-6.41,3.23-1.53,6.93-2.29,11.08-2.29,5.16,0,9.81,1.19,13.96,3.56,4.15,2.37,7.07,5.52,8.76,9.43l-13.74,5.95c-.71-1.18-1.77-2.33-3.17-3.48-1.39-1.16-3.13-1.73-5.19-1.73-1.77,0-3.24.46-4.41,1.36-1.18.9-1.76,2.03-1.76,3.39s.58,2.46,1.76,3.31c1.17.85,2.65,1.56,4.46,2.15,1.81.58,3.7,1.16,5.65,1.72,1.52.41,3.26,1.01,5.26,1.78,2,.77,3.95,1.82,5.85,3.14,1.91,1.32,3.49,3.02,4.75,5.09,1.27,2.08,1.9,4.62,1.9,7.63,0,3.8-1.04,7.18-3.11,10.09-2.08,2.93-4.84,5.19-8.31,6.81-3.47,1.62-7.27,2.43-11.43,2.43Z"/>
  <path class="cls-2" d="M545.17,140.02c-4.19,0-7.99-.89-11.43-2.68-3.42-1.79-6.15-4.43-8.16-7.92-2.02-3.49-3.03-7.79-3.03-12.91v-38.22h17.87v35.84c0,3.5.91,6.17,2.73,7.99,1.83,1.83,4.07,2.74,6.7,2.74,1.96,0,3.69-.43,5.17-1.3,1.49-.86,2.66-2.1,3.51-3.7.85-1.6,1.27-3.52,1.27-5.73v-35.84h17.87v39.51c0,2.19.32,3.77.95,4.75.65.99,1.94,1.83,3.9,2.54l-6.33,14.92c-4.48-1.17-7.77-2.69-9.84-4.58-2.08-1.88-3.15-4.33-3.22-7.34l3.78,4.07h-7.58l8.32-5.14c-2.46,3.8-5.59,6.92-9.39,9.35-3.8,2.44-8.17,3.65-13.11,3.65Z"/>
  <path class="cls-2" d="M622.59,140.02c-3.61,0-7.08-.61-10.4-1.87-3.32-1.24-6.23-3-8.76-5.28-2.52-2.28-4.41-4.95-5.65-8l14.02-6.16c.94,1.77,2.35,3.44,4.24,5.02,1.88,1.59,4.1,2.37,6.67,2.37,1.32,0,2.5-.23,3.53-.7,1.04-.48,1.85-1.09,2.44-1.87s.87-1.58.87-2.41c0-1.13-.43-2.08-1.32-2.85-.88-.77-1.99-1.43-3.34-1.98-1.34-.55-2.74-1.03-4.24-1.44-1.48-.41-2.85-.82-4.09-1.19-2.87-.87-5.57-2.06-8.12-3.56-2.54-1.5-4.6-3.46-6.19-5.85-1.58-2.4-2.37-5.29-2.37-8.68,0-3.58.92-6.74,2.78-9.5,1.84-2.74,4.39-4.89,7.63-6.41,3.23-1.53,6.93-2.29,11.08-2.29,5.16,0,9.81,1.19,13.96,3.56,4.15,2.37,7.07,5.52,8.76,9.43l-13.74,5.95c-.71-1.18-1.77-2.33-3.17-3.48-1.39-1.16-3.13-1.73-5.19-1.73-1.77,0-3.24.46-4.41,1.36-1.18.9-1.76,2.03-1.76,3.39s.58,2.46,1.76,3.31c1.17.85,2.65,1.56,4.46,2.15,1.81.58,3.7,1.16,5.65,1.72,1.52.41,3.26,1.01,5.26,1.78,2,.77,3.95,1.82,5.85,3.14,1.91,1.32,3.49,3.02,4.75,5.09,1.27,2.08,1.9,4.62,1.9,7.63,0,3.8-1.04,7.18-3.11,10.09-2.08,2.93-4.84,5.19-8.31,6.81-3.47,1.62-7.27,2.43-11.43,2.43Z"/>
  <g>
    <path class="cls-7" d="M44.51,83.97s1.19-11.12,18.31-10.82,41.43.34,47.26,27.5c5.66,26.33-19.17,48.19-32.91,41.25l3.98-22.72s5.89-1.81,5.1-10.48c-.79-8.68-9.48-12.56-30.14-10.79l-11.61-13.94Z"/>
    <path class="cls-3" d="M56.03,74.37h0c6.65,0,12.05,5.4,12.05,12.05v75.86h-24.09v-75.86c0-6.65,5.4-12.05,12.05-12.05Z"/>
    <g>
      <path class="cls-4" d="M44.12,163.51c0,6.47,5.42,11.71,12.11,11.71s12.11-5.24,12.11-11.71-5.42-11.71-12.11-11.71-12.11,5.24-12.11,11.71"/>
      <g class="cls-11">
        <polygon class="cls-5" points="79.66 159.36 60.52 186.16 32.8 167.65 51.94 140.85 79.66 159.36"/>
      </g>
    </g>
    <g>
      <path class="cls-10" d="M69.04,130.89c0,6.47,5.42,11.71,12.11,11.71s12.11-5.24,12.11-11.71-5.42-11.71-12.11-11.71-12.11,5.24-12.11,11.71"/>
      <g class="cls-1">
        <polygon class="cls-9" points="104.58 126.74 85.44 153.54 57.72 135.04 76.86 108.23 104.58 126.74"/>
      </g>
    </g>
  </g>
</svg>