<?xml version="1.0" encoding="UTF-8"?>
<svg id="Capa_1" data-name="Capa 1" xmlns="http://www.w3.org/2000/svg" viewBox="0 0 500 212.36">
  <defs>
    <style>
      .cls-1 {
        fill: #fff;
      }

      .cls-2 {
        fill: aqua;
      }
    </style>
  </defs>
  <g>
    <polygon class="cls-2" points="111.3 62.07 65.84 97.32 65.84 186.94 156.85 186.94 156.85 97.32 111.3 62.07"/>
    <g>
      <polygon class="cls-2" points="91.78 25.42 19.88 97.32 30.72 97.32 97.2 30.84 91.78 25.42"/>
      <polygon class="cls-2" points="97.2 52.23 142.28 97.32 148.29 92.49 102.61 46.81 97.2 52.23"/>
    </g>
    <rect class="cls-2" x="50.85" y="118" width="14.99" height="26.26"/>
    <path class="cls-2" d="M89.14,164.82l68.95-68.95,4.68-12.77-12.77,4.68-68.95,68.95c-2.83,2.83-3.62,6.92-2.37,10.46,3.54,1.25,7.63.46,10.46-2.37Z"/>
    <polygon class="cls-2" points="149.82 87.61 153.95 91.74 158.09 95.87 162.86 82.83 149.82 87.61"/>
    <path class="cls-1" d="M137.41,74.34c.86,0,1.71-.35,2.32-.96.61-.61.96-1.46.96-2.32s-.35-1.71-.96-2.32c-.61-.61-1.46-.96-2.32-.96s-1.71.35-2.32.96c-.61.61-.96,1.45-.96,2.32s.35,1.71.96,2.32c.61.61,1.46.96,2.32.96Z"/>
    <path class="cls-1" d="M65.84,114.72h-26.26c-1.81,0-3.28,1.47-3.28,3.28v26.26c0,1.81,1.47,3.28,3.28,3.28h26.26c1.81,0,3.28-1.47,3.28-3.28v-26.26c0-1.81-1.47-3.28-3.28-3.28ZM62.56,140.98h-19.7v-19.7h19.7v19.7Z"/>
    <path class="cls-1" d="M182.66,91c-1.23-.51-2.64-.23-3.58.71l-33.45,33.45s0,0,0,0,0,0,0,0l-39,39h0s0,0,0,0l-20.45,20.45c-.94.94-1.22,2.35-.71,3.58.51,1.23,1.71,2.03,3.03,2.03h92.9c1.81,0,3.28-1.47,3.28-3.28v-92.9c0-1.33-.8-2.52-2.03-3.03ZM178.12,183.66h-81.7l12.53-12.53,3.13,3.13c.64.64,1.48.96,2.32.96s1.68-.32,2.32-.96c1.28-1.28,1.28-3.36,0-4.64l-3.13-3.13,8.36-8.36,3.13,3.13c.64.64,1.48.96,2.32.96s1.68-.32,2.32-.96c1.28-1.28,1.28-3.36,0-4.64l-3.13-3.13,8.36-8.36,3.13,3.13c.64.64,1.48.96,2.32.96s1.68-.32,2.32-.96c1.28-1.28,1.28-3.36,0-4.64l-3.13-3.13,8.36-8.36,3.13,3.13c.64.64,1.48.96,2.32.96s1.68-.32,2.32-.96c1.28-1.28,1.28-3.36,0-4.64l-3.13-3.13,8.36-8.36,3.13,3.13c.64.64,1.48.96,2.32.96s1.68-.32,2.32-.96c1.28-1.28,1.28-3.36,0-4.64l-3.13-3.13,12.53-12.53v81.7Z"/>
    <path class="cls-1" d="M166.24,130.63c-1.23-.51-2.64-.23-3.58.71l-36.86,36.86c-.94.94-1.22,2.35-.71,3.58.51,1.23,1.71,2.03,3.03,2.03h36.86c1.81,0,3.28-1.47,3.28-3.28v-36.86c0-1.33-.8-2.52-2.03-3.03ZM161.7,167.24h-25.65l25.65-25.65v25.65Z"/>
    <path class="cls-1" d="M82.04,171.04c3.41,0,6.83-1.3,9.42-3.9l27.69-27.69c1.28-1.28,1.28-3.36,0-4.64-1.28-1.28-3.36-1.28-4.64,0l-20.97,20.97-9.56-9.56,59.98-59.98,9.56,9.56-22.92,22.92c-1.28,1.28-1.28,3.36,0,4.64,1.28,1.28,3.36,1.28,4.64,0l25.17-25.17c.34-.34.6-.74.76-1.19l8.21-22.42c.44-1.2.14-2.55-.76-3.45-.9-.9-2.25-1.2-3.45-.76l-22.42,8.21c-.45.16-.85.42-1.19.76l-6.3,6.3-41.16-41.16c-.62-.62-1.45-.96-2.32-.96s-1.71.35-2.32.96l-49.54,49.54h-12.11l63.97-63.97,35.1,35.1c1.28,1.28,3.36,1.28,4.64,0,1.28-1.28,1.28-3.36,0-4.64l-37.42-37.42c-1.28-1.28-3.36-1.28-4.64,0L17.56,94.99c-.94.94-1.22,2.35-.71,3.58.51,1.23,1.71,2.03,3.03,2.03h3.28v86.34c0,1.81,1.47,3.28,3.28,3.28h52.19c1.81,0,3.28-1.47,3.28-3.28s-1.47-3.28-3.28-3.28H29.73v-83.06h11.55c.87,0,1.71-.35,2.32-.96l48.18-48.18,38.83,38.83-48.68,48.68v-29.51h22.98c1.81,0,3.28-1.47,3.28-3.28s-1.47-3.28-3.28-3.28h-26.26c-1.81,0-3.28,1.47-3.28,3.28v38.08c0,.38.07.75.19,1.09l-2.94,2.94c-5.2,5.2-5.2,13.65,0,18.85,2.6,2.6,6.01,3.9,9.42,3.9ZM156.81,89.82l-6.87-6.87,10.85-3.97-3.97,10.85ZM77.26,152.94l2.07-2.07,9.56,9.56-2.07,2.07c-1.28,1.28-2.98,1.98-4.78,1.98s-3.5-.7-4.78-1.98c-1.28-1.28-1.98-2.98-1.98-4.78s.7-3.5,1.98-4.78Z"/>
    <path class="cls-1" d="M122.49,126.83c-.61.61-.96,1.46-.96,2.32s.35,1.71.96,2.32c.61.61,1.45.96,2.32.96s1.71-.35,2.32-.96c.61-.61.96-1.46.96-2.32s-.35-1.71-.96-2.32c-.61-.61-1.46-.96-2.32-.96s-1.71.35-2.32.96Z"/>
  </g>
  <g>
    <path class="cls-1" d="M202.45,82.14h8.29s0,21.93,0,21.93h14.2s0-21.93,0-21.93h8.29s0,49.73,0,49.73h-8.29s0-20.49,0-20.49h-14.2s0,20.49,0,20.49h-8.29s0-49.73,0-49.73Z"/>
    <path class="cls-1" d="M272.68,115.04v-10.96c0-9.14-6.61-15.33-15.75-15.33-8.44,0-15.75,6.89-15.75,15.33v13.17c0,9.14,6.61,15.33,15.75,15.33,4.2,0,8.12-1.71,11-4.47l-5.25-5.25c-1.39,1.49-3.38,2.41-5.75,2.41-4.5,0-7.87-3.52-7.87-8.02v-2.21h23.62ZM249.2,104.08c0-4.64,3.23-8.01,7.73-8.01,4.64,0,7.87,3.37,7.87,8.01v3.65h-15.61v-3.65Z"/>
    <path class="cls-1" d="M280.62,100.42c0-6.47,4.64-10.97,10.97-10.97h2.81v7.31h-2.25c-2.11,0-3.66,1.41-3.66,3.66v31.45s-7.87,0-7.87,0v-31.45Z"/>
    <path class="cls-1" d="M301.21,78.42c0-2.67,2.18-4.85,4.85-4.85,2.67,0,4.85,2.18,4.85,4.85,0,2.67-2.18,4.85-4.85,4.85-2.67,0-4.85-2.18-4.85-4.85ZM301.98,89.45h7.87s.07,42.42.07,42.42h-7.87s-.07-42.42-.07-42.42Z"/>
    <path class="cls-1" d="M317.57,117.25v-13.17c0-8.44,7.31-15.33,15.75-15.33,4.36,0,7.87,1.27,10.96,4.36l-5.2,5.2c-1.54-1.41-3.51-2.25-5.76-2.25-4.5,0-7.88,3.37-7.88,8.01v13.17c0,4.5,3.38,8.02,7.88,8.02,2.25,0,4.22-.98,5.76-2.39l5.06,5.06c-2.81,2.95-6.75,4.64-10.82,4.64-9.14,0-15.61-6.19-15.75-15.33Z"/>
    <path class="cls-1" d="M349.38,98.96c0-6.47,4.64-10.97,10.97-10.97h2.81v7.31h-2.25c-2.11,0-3.65,1.41-3.65,3.66v31.45s-7.87,0-7.87,0v-31.45Z"/>
    <path class="cls-1" d="M407.25,96.76h-3.94v-7.31h3.94s0-4.36,0-4.36c0-6.47,4.64-10.97,10.97-10.97h1.27v7.31h-.7c-2.11,0-3.65,1.4-3.65,3.65v4.36s4.52,0,4.52,0v7.31h-4.52s0,35.11,0,35.11h-7.88s0-35.11,0-35.11Z"/>
    <polygon class="cls-1" points="431.23 96.76 427.3 96.76 427.3 89.45 431.23 89.45 431.23 74.13 439.11 74.13 439.11 89.45 443.05 89.45 443.05 96.76 439.11 96.76 439.11 131.87 431.23 131.87 431.23 96.76"/>
    <path class="cls-1" d="M382.08,88.75c-4.22,0-8.26,1.61-11.21,4.4l4.97,4.97c1.41-1.55,3.47-2.48,5.96-2.48,4.78,0,8.01,3.65,8.01,8.44v1.22h-.14c-2.25-1.83-4.92-2.81-8.15-2.81-8.44,0-15.47,6.61-15.47,15.04,0,9.14,6.33,15.05,15.05,15.05,3.65,0,7.03-1.27,8.72-3.23v2.53s7.73,0,7.73,0v-27.8c0-9.14-6.33-15.33-15.47-15.33ZM381.81,125.55c-4.5,0-7.88-3.52-7.88-8.02,0-4.64,3.38-8.01,7.88-8.01s7.87,3.37,7.87,8.01c0,4.5-3.23,8.02-7.87,8.02Z"/>
  </g>
  <g>
    <path class="cls-1" d="M208.92,187.42c-2.91-.97-5.2-2.23-6.86-3.77l2.2-4.63c1.58,1.43,3.61,2.58,6.09,3.47,2.47.89,5.02,1.34,7.63,1.34,3.44,0,6.02-.58,7.72-1.75,1.7-1.17,2.55-2.72,2.55-4.66,0-1.43-.47-2.58-1.4-3.47-.93-.89-2.08-1.57-3.44-2.05s-3.3-1.01-5.79-1.6c-3.13-.75-5.65-1.5-7.57-2.26-1.92-.75-3.56-1.91-4.93-3.47-1.37-1.56-2.05-3.67-2.05-6.32,0-2.22.58-4.22,1.75-6,1.17-1.78,2.94-3.21,5.31-4.28,2.38-1.07,5.32-1.6,8.85-1.6,2.45,0,4.87.32,7.25.95,2.38.63,4.41,1.54,6.12,2.73l-1.96,4.75c-1.74-1.11-3.6-1.95-5.58-2.52-1.98-.57-3.92-.86-5.82-.86-3.37,0-5.89.61-7.57,1.84-1.68,1.23-2.52,2.81-2.52,4.75,0,1.43.48,2.58,1.43,3.47.95.89,2.13,1.58,3.53,2.08,1.4.5,3.32,1.02,5.73,1.57,3.13.75,5.64,1.5,7.54,2.26,1.9.75,3.53,1.9,4.9,3.44,1.37,1.54,2.05,3.62,2.05,6.24,0,2.18-.59,4.17-1.78,5.97-1.19,1.8-2.99,3.23-5.4,4.28-2.42,1.05-5.38,1.57-8.91,1.57-3.13,0-6.15-.48-9.06-1.46Z"/>
    <path class="cls-1" d="M256.34,152h-14.25v-5.17h34.38v5.17h-14.25v36.4h-5.88v-36.4Z"/>
    <path class="cls-1" d="M292.38,184.12c-3.09-3.17-4.63-7.72-4.63-13.66v-23.63h5.94v23.4c0,8.91,3.9,13.36,11.7,13.36,3.8,0,6.71-1.1,8.73-3.3s3.03-5.55,3.03-10.07v-23.4h5.76v23.63c0,5.98-1.54,10.54-4.63,13.69-3.09,3.15-7.4,4.72-12.95,4.72s-9.86-1.58-12.95-4.75Z"/>
    <path class="cls-1" d="M341.02,146.83h17.52c4.39,0,8.29.87,11.7,2.61,3.4,1.74,6.05,4.19,7.93,7.33,1.88,3.15,2.82,6.76,2.82,10.84s-.94,7.69-2.82,10.84c-1.88,3.15-4.52,5.59-7.93,7.33-3.41,1.74-7.3,2.61-11.7,2.61h-17.52v-41.57ZM358.18,183.23c3.36,0,6.32-.65,8.88-1.96,2.55-1.31,4.52-3.14,5.91-5.49,1.39-2.35,2.08-5.08,2.08-8.17s-.69-5.81-2.08-8.17c-1.39-2.35-3.35-4.19-5.91-5.49-2.55-1.31-5.51-1.96-8.88-1.96h-11.22v31.24h11.22Z"/>
    <path class="cls-1" d="M396.01,146.83h5.94v41.57h-5.94v-41.57Z"/>
    <path class="cls-1" d="M427.78,186.11c-3.37-1.84-6.01-4.38-7.93-7.63-1.92-3.25-2.88-6.87-2.88-10.87s.96-7.62,2.88-10.87c1.92-3.25,4.56-5.79,7.93-7.63,3.36-1.84,7.15-2.76,11.34-2.76s7.92.92,11.28,2.76c3.36,1.84,6,4.38,7.9,7.6,1.9,3.23,2.85,6.86,2.85,10.9s-.95,7.67-2.85,10.9c-1.9,3.23-4.53,5.76-7.9,7.6-3.37,1.84-7.13,2.76-11.28,2.76s-7.98-.92-11.34-2.76ZM447.34,181.51c2.43-1.39,4.35-3.3,5.76-5.73,1.4-2.43,2.11-5.16,2.11-8.17s-.7-5.73-2.11-8.17c-1.41-2.43-3.33-4.34-5.76-5.73-2.43-1.39-5.18-2.08-8.22-2.08s-5.81.69-8.28,2.08c-2.47,1.39-4.41,3.3-5.82,5.73-1.41,2.44-2.11,5.16-2.11,8.17s.7,5.73,2.11,8.17c1.4,2.44,3.34,4.35,5.82,5.73,2.47,1.39,5.24,2.08,8.28,2.08s5.79-.69,8.22-2.08Z"/>
  </g>
</svg>